<?xml version="1.0" encoding="UTF-8"?>
<svg width="100px" height="99px" viewBox="0 0 100 99" version="1.1" xmlns="http://www.w3.org/2000/svg" xmlns:xlink="http://www.w3.org/1999/xlink">
    <!-- Generator: Sketch 41.2 (35397) - http://www.bohemiancoding.com/sketch -->
    <title>Group 7 Copy 5</title>
    <desc>Created with Sketch.</desc>
    <defs>
        <ellipse id="path-1" cx="50" cy="83.4926036" rx="50" ry="16.841716"></ellipse>
        <filter x="-50%" y="-50%" width="200%" height="200%" filterUnits="objectBoundingBox" id="filter-2">
            <feOffset dx="0" dy="1" in="SourceAlpha" result="shadowOffsetInner1"></feOffset>
            <feComposite in="shadowOffsetInner1" in2="SourceAlpha" operator="arithmetic" k2="-1" k3="1" result="shadowInnerInner1"></feComposite>
            <feColorMatrix values="0 0 0 0 0.435905612   0 0 0 0 0.435905612   0 0 0 0 0.435905612  0 0 0 0.5 0" type="matrix" in="shadowInnerInner1"></feColorMatrix>
        </filter>
        <path d="M0.176470588,1.73475855 C0.176470588,1.40934332 0.430933335,1.13504429 0.75942172,1.1214925 L9.8876371,0.744907973 C10.2095921,0.731625718 10.4705882,0.988553771 10.4705882,1.30309592 L10.4705882,6.40515636 C10.4705882,9.24673844 8.1603873,11.5502959 5.32352941,11.5502959 L5.32352941,11.5502959 C2.48088732,11.5502959 0.176470588,9.24114378 0.176470588,6.40888312 L0.176470588,1.73475855 Z" id="path-3"></path>
        <linearGradient x1="37.0590477%" y1="1.70370869%" x2="37.0590478%" y2="84.5704277%" id="linearGradient-5">
            <stop stop-color="#84D7FB" offset="0%"></stop>
            <stop stop-color="#6BC5ED" offset="100%"></stop>
        </linearGradient>
        <linearGradient x1="50%" y1="0%" x2="50%" y2="100%" id="linearGradient-6">
            <stop stop-color="#82D6FB" offset="0%"></stop>
            <stop stop-color="#94DEFF" offset="100%"></stop>
        </linearGradient>
        <linearGradient x1="37.0590477%" y1="1.70370869%" x2="62.9409523%" y2="98.2962913%" id="linearGradient-7">
            <stop stop-color="#67C2EB" offset="0%"></stop>
            <stop stop-color="#89D9FD" offset="100%"></stop>
        </linearGradient>
        <linearGradient x1="50%" y1="0%" x2="50%" y2="100%" id="linearGradient-8">
            <stop stop-color="#59C2F1" offset="0%"></stop>
            <stop stop-color="#94DEFF" offset="100%"></stop>
        </linearGradient>
        <linearGradient x1="0%" y1="31.68506%" x2="98.2962913%" y2="62.9409523%" id="linearGradient-9">
            <stop stop-color="#59C2F1" offset="0%"></stop>
            <stop stop-color="#7BD2F9" offset="100%"></stop>
        </linearGradient>
    </defs>
    <g id="Logo" stroke="none" stroke-width="1" fill="none" fill-rule="evenodd">
        <g id="Group-7-Copy-5" transform="translate(0.000000, -2.000000)">
            <g id="Group-Copy" transform="translate(0.000000, 0.665680)">
                <g id="Oval-3">
                    <use fill="#1F282C" fill-rule="evenodd" xlink:href="#path-1"></use>
                    <use fill="black" fill-opacity="1" filter="url(#filter-2)" xlink:href="#path-1"></use>
                </g>
                <g id="caterpillar-body" transform="translate(8.000000, 0.000000)">
                    <path d="M73.7233502,82.4674556 L73.7647059,82.4674556 C73.7647059,82.4674556 77.5882353,82.1745562 77.5882353,76.9023669 C77.5882353,71.6301775 73.7647059,71.8832663 73.7647059,71.8832663 C73.7647059,71.8832663 78.4705882,71.8832663 78.4705882,66.0650888 C78.4705882,60.2469112 73.7647059,59.9142012 73.7647059,59.9142012 C73.7647059,59.9142012 78.4705882,59.9142012 78.4705882,53.4704142 C78.4705882,47.0266272 73.7647059,47.1248074 73.7647059,47.1248074 L73.7647059,46.7435515 C73.7647059,27.0026244 57.7649668,11 38.0282884,11 L41.5599469,11 C21.8171206,11 5.82352941,26.9985349 5.82352941,46.7337278 L5.82352941,82.4674556 L5.86488508,82.4674556 C5.8374219,82.6330994 5.82352941,82.7997978 5.82352941,82.9674556 C5.82352941,88.5148128 21.0326798,93.0118343 39.7941176,93.0118343 C58.5555555,93.0118343 73.7647059,88.5148128 73.7647059,82.9674556 C73.7647059,82.7997978 73.7508134,82.6330994 73.7233502,82.4674556 Z" id="Combined-Shape" fill="#59C2F1"></path>
                    <g id="eyes" transform="translate(36.000000, 43.000000)" fill="#20292C">
                        <ellipse id="Oval-4" cx="2.61764706" cy="3.88017751" rx="1.91176471" ry="1.90384615"></ellipse>
                        <ellipse id="Oval-4-Copy" cx="28.2058824" cy="2.12278107" rx="1.91176471" ry="1.90384615"></ellipse>
                    </g>
                    <g id="mouth" transform="translate(48.000000, 51.000000)">
                        <mask id="mask-4" fill="white">
                            <use xlink:href="#path-3"></use>
                        </mask>
                        <use id="Mask" fill="#20292C" xlink:href="#path-3"></use>
                    </g>
                    <g id="Group-10" transform="translate(44.352941, 0.334320)">
                        <rect id="Rectangle-3-Copy" fill="#59C2F1" transform="translate(4.972409, 9.679814) rotate(-345.000000) translate(-4.972409, -9.679814) " x="2.0312328" y="1.4786309" width="5.88235294" height="16.4023669" rx="2.94117647"></rect>
                        <path d="M9.2437834,4.22389563 C9.23933581,2.92396302 8.37334807,1.74625647 7.06408934,1.39544166 C5.49826403,0.975880028 3.88124551,1.91014328 3.45950836,3.48408777 L0.659740629,13.9329632 C0.372693946,15.004236 0.707101526,16.0870762 1.43973515,16.8054071 C1.43885274,16.5474982 1.47188336,16.2847781 1.54209357,16.02275 L4.3418613,5.57387461 C4.76359845,3.99993012 6.38061697,3.06566686 7.94644228,3.48522849 C8.4534634,3.62108439 8.89400767,3.88094832 9.2437834,4.22389563 Z" id="Combined-Shape-Copy-4" fill="url(#linearGradient-5)"></path>
                    </g>
                    <path d="M65.776127,24.3182117 C59.5940677,16.1952658 50.1240693,11 39.5085415,11 C21.7816864,11 5.78323852,26.9985349 5.78323852,46.7337278 C5.78323852,46.7337278 0.823529412,46.147929 0.823529412,53.7633136 C0.823529412,61.3786982 5.78323852,61.3786982 5.78323852,61.3786982 C5.78323852,61.3786982 0.823529412,61.3786982 0.823529412,67.2366864 C0.823529412,73.0946746 5.78323852,73.0946746 5.78323852,73.0946746 C5.78323852,73.0946746 1.41176471,73.0946746 1.41176471,77.7810651 C1.41176471,82.4674556 5.78323852,82.4674556 5.78323852,82.4674556 L5.82352941,82.4674556 C5.82352941,85.3065483 9.44147959,87.8835711 15.3255102,89.7792614 L15.3255102,54.0868446 C15.3255102,35.3053176 30.5433756,20.0798817 49.3247854,20.0798817 C55.2925171,20.0798817 60.9011385,21.6174176 65.776127,24.3182117 Z" id="Combined-Shape-Copy-5" fill="url(#linearGradient-6)"></path>
                    <g id="Group-9" transform="translate(15.235294, 3.970414)">
                        <rect id="Rectangle-3-Copy-9" fill="#59C2F1" transform="translate(6.737115, 8.972714) rotate(-15.000000) translate(-6.737115, -8.972714) " x="3.79593868" y="0.771530311" width="5.88235294" height="16.4023669" rx="2.94117647"></rect>
                        <path d="M7.75548181,2.23657535 C6.86117278,0.724258715 5.04303359,-0.0732830029 3.2667396,0.402673536 C1.13238945,0.974570934 -0.140056176,3.17818856 0.434372824,5.32198677 L2.98878589,14.8551861 C3.41097113,16.4308029 4.71067587,17.5360653 6.21894961,17.7839301 C6.0364884,17.47538 5.89248266,17.1370766 5.79513361,16.773765 L3.24072055,7.2405657 C2.66629155,5.09676749 3.93873718,2.89314986 6.07308733,2.32125247 C6.64009121,2.16932423 7.21135882,2.14715597 7.75548181,2.23657535 Z" id="Combined-Shape-Copy-6" fill="url(#linearGradient-7)"></path>
                    </g>
                    <g id="Group-4-Copy" transform="translate(37.365242, 84.658142) rotate(-300.000000) translate(-37.365242, -84.658142) translate(29.865242, 78.658142)">
                        <g id="Group-2-Copy" transform="translate(-0.000000, 0.000000)">
                            <path d="M10.3876684,-0.173649435 L10.3876684,10.0652737 C10.3876684,11.689847 9.07121598,13.0068239 7.44649191,13.0068239 L7.44649191,13.0068239 C5.822125,13.0068239 4.50531544,11.6887682 4.50531544,10.0652737 L4.50531544,-0.173649435" id="Rectangle-3-Copy-6" fill="#3B86A7" transform="translate(7.446492, 6.416587) rotate(-68.000000) translate(-7.446492, -6.416587) "></path>
                            <path d="M10.0945652,-1.05536689 L10.0945652,9.18355627 C10.0945652,10.8081296 8.77811275,12.1251065 7.15338869,12.1251065 L7.15338869,12.1251065 C5.52902178,12.1251065 4.21221222,10.8070507 4.21221222,9.18355627 L4.21221222,-1.05536689" id="Rectangle-3-Copy-2" fill="url(#linearGradient-8)" transform="translate(7.153389, 5.534870) rotate(-75.000000) translate(-7.153389, -5.534870) "></path>
                        </g>
                        <path d="M12.380322,4.11281124 C13.4642012,4.78216434 14.026561,6.12555808 13.6732471,7.44414348 C13.2437686,9.04697882 11.6224635,10.0051957 10.0542882,9.58500438 L0.16424793,6.93497606 L0.449865026,5.86903855 L8.85246093,8.12050734 C10.4206362,8.54069862 12.0419413,7.58248178 12.4714197,5.97964644 C12.6438288,5.33620721 12.5981962,4.68686058 12.380322,4.11281124 Z" id="Combined-Shape-Copy" fill="url(#linearGradient-9)"></path>
                    </g>
                    <g id="hand" transform="translate(34.789023, 72.280463) rotate(-300.000000) translate(-34.789023, -72.280463) translate(27.289023, 66.280463)">
                        <g id="Group-2" transform="translate(-0.000000, 0.000000)">
                            <path d="M10.3876684,-0.173649435 L10.3876684,10.0652737 C10.3876684,11.689847 9.07121598,13.0068239 7.44649191,13.0068239 L7.44649191,13.0068239 C5.822125,13.0068239 4.50531544,11.6887682 4.50531544,10.0652737 L4.50531544,-0.173649435" id="Rectangle-3-Copy-6" fill="#3B86A7" transform="translate(7.446492, 6.416587) rotate(-68.000000) translate(-7.446492, -6.416587) "></path>
                            <path d="M10.0945652,-1.05536689 L10.0945652,9.18355627 C10.0945652,10.8081296 8.77811275,12.1251065 7.15338869,12.1251065 L7.15338869,12.1251065 C5.52902178,12.1251065 4.21221222,10.8070507 4.21221222,9.18355627 L4.21221222,-1.05536689" id="Rectangle-3-Copy-2" fill="url(#linearGradient-8)" transform="translate(7.153389, 5.534870) rotate(-75.000000) translate(-7.153389, -5.534870) "></path>
                        </g>
                        <g id="Group-2-Copy-4" transform="translate(-0.000000, 3.928994)" fill="url(#linearGradient-9)">
                            <path d="M12.380322,0.183817161 C13.4642012,0.853170258 14.026561,2.196564 13.6732471,3.5151494 C13.2437686,5.11798474 11.6224635,6.07620158 10.0542882,5.65601029 L0.16424793,3.00598198 L0.449865026,1.94004447 L8.85246093,4.19151325 C10.4206362,4.61170454 12.0419413,3.6534877 12.4714197,2.05065236 C12.6438288,1.40721313 12.5981962,0.757866492 12.380322,0.183817161 Z" id="Combined-Shape"></path>
                        </g>
                    </g>
                    <g id="Group-4-Copy-2" transform="translate(67.365242, 80.557550) rotate(-300.000000) translate(-67.365242, -80.557550) translate(59.865242, 74.557550)">
                        <g id="Group-2-Copy" transform="translate(-0.000000, 0.000000)">
                            <path d="M10.3876684,-0.173649435 L10.3876684,10.0652737 C10.3876684,11.689847 9.07121598,13.0068239 7.44649191,13.0068239 L7.44649191,13.0068239 C5.822125,13.0068239 4.50531544,11.6887682 4.50531544,10.0652737 L4.50531544,-0.173649435" id="Rectangle-3-Copy-6" fill="#3B86A7" transform="translate(7.446492, 6.416587) rotate(-68.000000) translate(-7.446492, -6.416587) "></path>
                            <path d="M10.0945652,-1.05536689 L10.0945652,9.18355627 C10.0945652,10.8081296 8.77811275,12.1251065 7.15338869,12.1251065 L7.15338869,12.1251065 C5.52902178,12.1251065 4.21221222,10.8070507 4.21221222,9.18355627 L4.21221222,-1.05536689" id="Rectangle-3-Copy-2" fill="url(#linearGradient-8)" transform="translate(7.153389, 5.534870) rotate(-75.000000) translate(-7.153389, -5.534870) "></path>
                        </g>
                        <path d="M12.380322,4.11281124 C13.4642012,4.78216434 14.026561,6.12555808 13.6732471,7.44414348 C13.2437686,9.04697882 11.6224635,10.0051957 10.0542882,9.58500438 L0.16424793,6.93497606 L0.449865026,5.86903855 L8.85246093,8.12050734 C10.4206362,8.54069862 12.0419413,7.58248178 12.4714197,5.97964644 C12.6438288,5.33620721 12.5981962,4.68686058 12.380322,4.11281124 Z" id="Combined-Shape-Copy" fill="url(#linearGradient-9)"></path>
                    </g>
                    <g id="Group-6-Copy" transform="translate(67.436081, 68.765670) rotate(-300.000000) translate(-67.436081, -68.765670) translate(59.936081, 62.765670)">
                        <g id="Group-2-Copy-2" transform="translate(-0.000000, 0.000000)">
                            <path d="M10.3876684,-0.173649435 L10.3876684,10.0652737 C10.3876684,11.689847 9.07121598,13.0068239 7.44649191,13.0068239 L7.44649191,13.0068239 C5.822125,13.0068239 4.50531544,11.6887682 4.50531544,10.0652737 L4.50531544,-0.173649435" id="Rectangle-3-Copy-6" fill="#3B86A7" transform="translate(7.446492, 6.416587) rotate(-68.000000) translate(-7.446492, -6.416587) "></path>
                            <path d="M10.0945652,-1.05536689 L10.0945652,9.18355627 C10.0945652,10.8081296 8.77811275,12.1251065 7.15338869,12.1251065 L7.15338869,12.1251065 C5.52902178,12.1251065 4.21221222,10.8070507 4.21221222,9.18355627 L4.21221222,-1.05536689" id="Rectangle-3-Copy-2" fill="url(#linearGradient-8)" transform="translate(7.153389, 5.534870) rotate(-75.000000) translate(-7.153389, -5.534870) "></path>
                        </g>
                        <path d="M12.6744396,4.40571065 C13.7583188,5.07506375 14.3206786,6.41845749 13.9673647,7.73704289 C13.5378863,9.33987823 11.9165811,10.2980951 10.3484059,9.87790379 L0.458365577,7.22787547 L0.743982673,6.16193796 L9.14657858,8.41340674 C10.7147538,8.83359803 12.336059,7.87538119 12.7655374,6.27254585 C12.9379464,5.62910662 12.8923139,4.97975998 12.6744396,4.40571065 Z" id="Combined-Shape-Copy-3" fill="url(#linearGradient-9)"></path>
                    </g>
                </g>
            </g>
        </g>
    </g>
</svg>
