<?xml version="1.0" encoding="UTF-8"?>
<svg width="465px" height="337px" viewBox="0 0 465 337" version="1.1" xmlns="http://www.w3.org/2000/svg" xmlns:xlink="http://www.w3.org/1999/xlink">
    <!-- Generator: Sketch 41.2 (35397) - http://www.bohemiancoding.com/sketch -->
    <title>caterpillar-cry</title>
    <desc>Created with Sketch.</desc>
    <defs>
        <ellipse id="path-1" cx="170" cy="247.5" rx="170" ry="57.5"></ellipse>
        <filter x="-50%" y="-50%" width="200%" height="200%" filterUnits="objectBoundingBox" id="filter-2">
            <feOffset dx="0" dy="5" in="SourceAlpha" result="shadowOffsetInner1"></feOffset>
            <feComposite in="shadowOffsetInner1" in2="SourceAlpha" operator="arithmetic" k2="-1" k3="1" result="shadowInnerInner1"></feComposite>
            <feColorMatrix values="0 0 0 0 0   0 0 0 0 0   0 0 0 0 0  0 0 0 0.5 0" type="matrix" in="shadowInnerInner1"></feColorMatrix>
        </filter>
        <path d="M191,142.942774 C191,141.838206 191.781577,141.382518 192.775234,141.861965 C192.775234,141.861965 197,144.842277 208.5,144.842277 C220,144.842277 224.528061,139.501284 224.528061,139.501284 C225.340991,138.764024 226,139.063488 226,140.175037 L226,155.075514 C226,163.908488 218.843346,171.069028 210.010778,171.069028 L206.989222,171.069028 C198.158619,171.069028 191,163.910429 191,155.079686 L191,142.942774 Z" id="path-3"></path>
        <linearGradient x1="37.0590477%" y1="1.70370869%" x2="37.0590478%" y2="84.5704277%" id="linearGradient-5">
            <stop stop-color="#84D7FB" offset="0%"></stop>
            <stop stop-color="#6BC5ED" offset="100%"></stop>
        </linearGradient>
        <linearGradient x1="50%" y1="0%" x2="50%" y2="100%" id="linearGradient-6">
            <stop stop-color="#82D6FB" offset="0%"></stop>
            <stop stop-color="#94DEFF" offset="100%"></stop>
        </linearGradient>
        <linearGradient x1="37.0590477%" y1="1.70370869%" x2="62.9409523%" y2="98.2962913%" id="linearGradient-7">
            <stop stop-color="#67C2EB" offset="0%"></stop>
            <stop stop-color="#89D9FD" offset="100%"></stop>
        </linearGradient>
        <linearGradient x1="50%" y1="0%" x2="50%" y2="100%" id="linearGradient-8">
            <stop stop-color="#59C2F1" offset="0%"></stop>
            <stop stop-color="#94DEFF" offset="100%"></stop>
        </linearGradient>
        <linearGradient x1="0%" y1="31.68506%" x2="98.2962913%" y2="62.9409523%" id="linearGradient-9">
            <stop stop-color="#59C2F1" offset="0%"></stop>
            <stop stop-color="#7BD2F9" offset="100%"></stop>
        </linearGradient>
    </defs>
    <g id="Logo" stroke="none" stroke-width="1" fill="none" fill-rule="evenodd">
        <g id="caterpillar-cry" transform="translate(0.000000, -1.000000)">
            <g>
                <circle id="Oval-7" fill="#65C7F4" cx="188" cy="178" r="8"></circle>
                <g id="Group-Copy" transform="translate(0.000000, 33.000000)">
                    <g id="Oval-3">
                        <use fill="#00B0FF" fill-rule="evenodd" xlink:href="#path-1"></use>
                        <use fill="black" fill-opacity="1" filter="url(#filter-2)" xlink:href="#path-1"></use>
                    </g>
                    <ellipse id="Oval-18" stroke-opacity="0.0950803895" stroke="#8AD9FD" stroke-width="2" transform="translate(167.000000, 249.000000) rotate(-3.000000) translate(-167.000000, -249.000000) " cx="167" cy="249" rx="137" ry="38"></ellipse>
                    <ellipse id="Oval-18" stroke-opacity="0.124292346" stroke="#8AD9FD" stroke-width="2" transform="translate(169.000000, 252.000000) rotate(-1.000000) translate(-169.000000, -252.000000) " cx="169" cy="252" rx="152" ry="49"></ellipse>
                    <path d="M278,244 C278,244 291,243 291,225 C291,207 278,207.864081 278,207.864081 C278,207.864081 294,207.864081 294,188 C294,168.135919 278,167 278,167 C278,167 294,167 294,145 C294,123 278,123.335201 278,123.335201 L278,121.992124 C278,54.6127708 223.378665,0 155.999835,0 L169.000165,0 C101.615741,0 47,54.6212605 47,122 L47,244 C47,263.882251 98.7111114,280 162.5,280 C226.288889,280 278,263.882251 278,244 Z" id="Combined-Shape" fill="#59C2F1"></path>
                    <circle id="Oval-4" fill="#20292C" cx="158.5" cy="122.5" r="6.5"></circle>
                    <circle id="Oval-4-Copy" fill="#20292C" cx="245.5" cy="116.5" r="6.5"></circle>
                    <mask id="mask-4" fill="white">
                        <use xlink:href="#path-3"></use>
                    </mask>
                    <use id="Mask" fill="#20292C" transform="translate(208.500000, 155.083179) rotate(-180.000000) translate(-208.500000, -155.083179) " xlink:href="#path-3"></use>
                </g>
                <g id="Group-10" transform="translate(178.000000, 0.000000)">
                    <rect id="Rectangle-3-Copy" fill="#59C2F1" transform="translate(16.906192, 29.634114) rotate(-345.000000) translate(-16.906192, -29.634114) " x="6.90619153" y="1.63411359" width="20" height="56" rx="10"></rect>
                    <path d="M31.4614749,11.0021918 C31.4599032,6.58541999 28.514301,2.54670183 24.0484988,1.35009374 C18.7126648,-0.0796386699 13.2295814,3.08981027 11.7990693,8.42855409 L2.2063773,44.2289679 C1.23819486,47.8422739 2.37414827,51.5217857 4.86248819,53.9665389 C4.8621824,53.1072193 4.97331679,52.2335893 5.2063773,51.3637957 L14.7990693,15.5633819 C16.2295814,10.2246381 21.7126648,7.05518912 27.0484988,8.48492152 C28.7737372,8.94719776 30.2720936,9.83364421 31.4614749,11.0021918 Z" id="Combined-Shape-Copy-4" fill="url(#linearGradient-5)"></path>
                </g>
                <path d="M250.74631,78.3562902 C229.725409,50.6915474 197.568919,33 161.529041,33 C101.48844,33 46.863011,87.6212605 46.863011,155 C46.863011,155 30,153 30,179 C30,205 46.863011,205 46.863011,205 C46.863011,205 30,205 30,225 C30,245 46.863011,245 46.863011,245 C46.863011,245 32,245 32,261 C32,277 46.863011,277 46.863011,277 L47,277 C47,286.693064 59.3010306,295.491384 79.3067348,301.963539 L79.3067348,179.591368 C79.3067348,115.752018 131.065463,64 194.90427,64 C215.156815,64 234.192923,69.2073141 250.74631,78.3562902 Z" id="Combined-Shape-Copy-5" fill="url(#linearGradient-6)"></path>
                <g id="Group-9" transform="translate(78.000000, 10.000000)">
                    <rect id="Rectangle-3-Copy-9" fill="#59C2F1" transform="translate(23.906192, 29.634114) rotate(-15.000000) translate(-23.906192, -29.634114) " x="13.9061915" y="1.63411359" width="20" height="56" rx="10"></rect>
                    <path d="M27.3611245,6.63825632 C24.3364064,1.4762972 18.135147,-1.24925627 12.0741447,0.374784394 C4.80095917,2.32362859 0.486604754,9.79498638 2.43419334,17.0634859 L11.2045463,49.7948887 C12.6334778,55.1277336 17.0364749,58.8691403 22.1519423,59.7145804 C21.5478051,58.6835648 21.0703911,57.5553528 20.7461285,56.3451885 L11.9757756,23.6137857 C10.028187,16.3452862 14.3425414,8.87392837 21.615727,6.92508417 C23.5526172,6.40609601 25.5038308,6.33129894 27.3611245,6.63825632 Z" id="Combined-Shape-Copy-6" fill="url(#linearGradient-7)"></path>
                </g>
                <g id="Group-4-Copy" transform="translate(152.759145, 284.759145) rotate(-300.000000) translate(-152.759145, -284.759145) translate(127.759145, 266.259145)">
                    <g id="Group-2-Copy">
                        <path d="M35.2355292,-3.95132899 L35.2355292,31.0058026 C35.2355292,36.5523257 30.759591,41.048671 25.2355292,41.048671 L25.2355292,41.048671 C19.7126817,41.048671 15.2355292,36.5486423 15.2355292,31.0058026 L15.2355292,-3.95132899" id="Rectangle-3-Copy-6" fill="#3B86A7" transform="translate(25.235529, 18.459645) rotate(-68.000000) translate(-25.235529, -18.459645) "></path>
                        <path d="M34.2355292,-6.95132899 L34.2355292,28.0058026 C34.2355292,33.5523257 29.759591,38.048671 24.2355292,38.048671 L24.2355292,38.048671 C18.7126817,38.048671 14.2355292,33.5486423 14.2355292,28.0058026 L14.2355292,-6.95132899" id="Rectangle-3-Copy-2" fill="url(#linearGradient-8)" transform="translate(24.235529, 15.459645) rotate(-75.000000) translate(-24.235529, -15.459645) "></path>
                    </g>
                    <path d="M42.1892504,10.6886041 C45.8682406,12.9760578 47.7765383,17.5321662 46.5790597,22.0012171 C45.118833,27.4508573 39.5883915,30.7039704 34.2344195,29.2693779 L0.468423249,20.2218065 L1.44469889,16.5782962 L30.1482066,24.2693779 C35.5021786,25.7039704 41.0326202,22.4508573 42.4928468,17.0012171 C43.0753671,14.8272218 42.9229392,12.6326252 42.1892504,10.6886041 Z" id="Combined-Shape-Copy" fill="url(#linearGradient-9)"></path>
                </g>
                <g id="Group-3-Copy" transform="translate(144.000000, 242.500000) rotate(-300.000000) translate(-144.000000, -242.500000) translate(119.000000, 224.000000)">
                    <g id="Group-2">
                        <path d="M35.2355292,-3.95132899 L35.2355292,31.0058026 C35.2355292,36.5523257 30.759591,41.048671 25.2355292,41.048671 L25.2355292,41.048671 C19.7126817,41.048671 15.2355292,36.5486423 15.2355292,31.0058026 L15.2355292,-3.95132899" id="Rectangle-3-Copy-6" fill="#3B86A7" transform="translate(25.235529, 18.459645) rotate(-68.000000) translate(-25.235529, -18.459645) "></path>
                        <path d="M34.2355292,-6.95132899 L34.2355292,28.0058026 C34.2355292,33.5523257 29.759591,38.048671 24.2355292,38.048671 L24.2355292,38.048671 C18.7126817,38.048671 14.2355292,33.5486423 14.2355292,28.0058026 L14.2355292,-6.95132899" id="Rectangle-3-Copy-2" fill="url(#linearGradient-8)" transform="translate(24.235529, 15.459645) rotate(-75.000000) translate(-24.235529, -15.459645) "></path>
                    </g>
                    <g id="Group-2-Copy-4" transform="translate(0.000000, 11.000000)" fill="url(#linearGradient-9)">
                        <path d="M42.1892504,-0.311395944 C45.8682406,1.97605782 47.7765383,6.53216615 46.5790597,11.0012171 C45.118833,16.4508573 39.5883915,19.7039704 34.2344195,18.2693779 L0.468423249,9.22180649 L1.44469889,5.5782962 L30.1482066,13.2693779 C35.5021786,14.7039704 41.0326202,11.4508573 42.4928468,6.00121715 C43.0753671,3.82722179 42.9229392,1.63262525 42.1892504,-0.311395944 Z" id="Combined-Shape"></path>
                    </g>
                </g>
                <g id="Group-4-Copy-2" transform="translate(254.759145, 270.759145) rotate(-300.000000) translate(-254.759145, -270.759145) translate(229.759145, 252.259145)">
                    <g id="Group-2-Copy">
                        <path d="M35.2355292,-3.95132899 L35.2355292,31.0058026 C35.2355292,36.5523257 30.759591,41.048671 25.2355292,41.048671 L25.2355292,41.048671 C19.7126817,41.048671 15.2355292,36.5486423 15.2355292,31.0058026 L15.2355292,-3.95132899" id="Rectangle-3-Copy-6" fill="#3B86A7" transform="translate(25.235529, 18.459645) rotate(-68.000000) translate(-25.235529, -18.459645) "></path>
                        <path d="M34.2355292,-6.95132899 L34.2355292,28.0058026 C34.2355292,33.5523257 29.759591,38.048671 24.2355292,38.048671 L24.2355292,38.048671 C18.7126817,38.048671 14.2355292,33.5486423 14.2355292,28.0058026 L14.2355292,-6.95132899" id="Rectangle-3-Copy-2" fill="url(#linearGradient-8)" transform="translate(24.235529, 15.459645) rotate(-75.000000) translate(-24.235529, -15.459645) "></path>
                    </g>
                    <path d="M42.1892504,10.6886041 C45.8682406,12.9760578 47.7765383,17.5321662 46.5790597,22.0012171 C45.118833,27.4508573 39.5883915,30.7039704 34.2344195,29.2693779 L0.468423249,20.2218065 L1.44469889,16.5782962 L30.1482066,24.2693779 C35.5021786,25.7039704 41.0326202,22.4508573 42.4928468,17.0012171 C43.0753671,14.8272218 42.9229392,12.6326252 42.1892504,10.6886041 Z" id="Combined-Shape-Copy" fill="url(#linearGradient-9)"></path>
                </g>
                <g id="Group-6-Copy" transform="translate(255.000000, 230.500000) rotate(-300.000000) translate(-255.000000, -230.500000) translate(230.000000, 212.000000)">
                    <g id="Group-2-Copy-2">
                        <path d="M35.2355292,-3.95132899 L35.2355292,31.0058026 C35.2355292,36.5523257 30.759591,41.048671 25.2355292,41.048671 L25.2355292,41.048671 C19.7126817,41.048671 15.2355292,36.5486423 15.2355292,31.0058026 L15.2355292,-3.95132899" id="Rectangle-3-Copy-6" fill="#3B86A7" transform="translate(25.235529, 18.459645) rotate(-68.000000) translate(-25.235529, -18.459645) "></path>
                        <path d="M34.2355292,-6.95132899 L34.2355292,28.0058026 C34.2355292,33.5523257 29.759591,38.048671 24.2355292,38.048671 L24.2355292,38.048671 C18.7126817,38.048671 14.2355292,33.5486423 14.2355292,28.0058026 L14.2355292,-6.95132899" id="Rectangle-3-Copy-2" fill="url(#linearGradient-8)" transform="translate(24.235529, 15.459645) rotate(-75.000000) translate(-24.235529, -15.459645) "></path>
                    </g>
                    <path d="M43.1892504,11.6886041 C46.8682406,13.9760578 48.7765383,18.5321662 47.5790597,23.0012171 C46.118833,28.4508573 40.5883915,31.7039704 35.2344195,30.2693779 L1.46842325,21.2218065 L2.44469889,17.5782962 L31.1482066,25.2693779 C36.5021786,26.7039704 42.0326202,23.4508573 43.4928468,18.0012171 C44.0753671,15.8272218 43.9229392,13.6326252 43.1892504,11.6886041 Z" id="Combined-Shape-Copy-3" fill="url(#linearGradient-9)"></path>
                </g>
            </g>
            <g id="Group-32" transform="translate(160.000000, 158.000000)">
                <path d="M5.38461538,20 C8.35845635,20 10.7692308,17.4416271 10.7692308,14.2857143 C10.7692308,11.1298014 5.38461538,0 5.38461538,0 C5.38461538,0 0,11.1298014 0,14.2857143 C0,17.4416271 2.41077442,20 5.38461538,20 Z" id="Oval-17" fill="#00B1FF"></path>
                <path d="M9.43742319,13 C9.48798429,13.2740924 9.51547365,13.5153131 9.51547365,13.7158259 C9.51547365,16.2112774 7.60921994,18.2342405 5.25773682,18.2342405 C2.90625371,18.2342405 1,16.2112774 1,13.7158259 C1,13.5153131 1.02748936,13.2740924 1.07805046,13 C1.45857092,15.0813561 3.1852266,16.6527954 5.25773682,16.6527954 C7.33024705,16.6527954 9.05690273,15.0813561 9.43742319,13 Z" id="Combined-Shape" fill-opacity="0.103968524" fill="#FFFFFF"></path>
            </g>
            <g id="Group-34" transform="translate(237.000000, 155.000000)">
                <path d="M6.5,26.4205128 C10.0898509,26.4205128 13,23.0408367 13,18.8717949 C13,14.7027531 6.5,0 6.5,0 C6.5,0 0,14.7027531 0,18.8717949 C0,23.0408367 2.91014913,26.4205128 6.5,26.4205128 Z" id="Oval-17-Copy-2" fill="#00B1FF"></path>
                <path d="M12.1156013,16.8 C12.178466,17.1914722 12.2126447,17.5359955 12.2126447,17.8223777 C12.2126447,21.386504 9.84251969,24.2757992 6.91882234,24.2757992 C3.99512499,24.2757992 1.625,21.386504 1.625,17.8223777 C1.625,17.5359955 1.65917867,17.1914722 1.72204341,16.8 C2.19516041,19.772695 4.34198367,22.0171017 6.91882234,22.0171017 C9.49566101,22.0171017 11.6424843,19.772695 12.1156013,16.8 Z" id="Combined-Shape" fill-opacity="0.103968524" fill="#FFFFFF"></path>
            </g>
            <g id="Group-33" transform="translate(160.000000, 192.000000)">
                <path d="M5,17.6923077 C7.76142375,17.6923077 10,15.4291317 10,12.6373626 C10,9.84559357 5,0 5,0 C5,0 0,9.84559357 0,12.6373626 C0,15.4291317 2.23857625,17.6923077 5,17.6923077 Z" id="Oval-17-Copy" fill="#00B1FF"></path>
                <path d="M8.44658891,12 C8.49121246,12.2419048 8.51547365,12.4547982 8.51547365,12.6317641 C8.51547365,14.8341665 6.83307757,16.6195665 4.75773682,16.6195665 C2.68239608,16.6195665 1,14.8341665 1,12.6317641 C1,12.4547982 1.02426119,12.2419048 1.06888474,12 C1.40471943,13.8369357 2.92860827,15.2238356 4.75773682,15.2238356 C6.58686537,15.2238356 8.11075422,13.8369357 8.44658891,12 Z" id="Combined-Shape" fill-opacity="0.103968524" fill="#FFFFFF"></path>
            </g>
            <path d="M411,252 C440.823376,252 465,246.627417 465,240 C465,234.785229 457.909911,231.654952 437,230 C420.184888,228.669138 411.953539,226 394,226 C376.046461,226 357,233.372583 357,240 C357,246.627417 381.176624,252 411,252 Z" id="Oval-19" fill="#1BB8FF"></path>
        </g>
    </g>
</svg>