<?xml version="1.0" encoding="UTF-8"?>
<svg width="228px" height="44px" viewBox="0 0 228 44" version="1.1" xmlns="http://www.w3.org/2000/svg" xmlns:xlink="http://www.w3.org/1999/xlink">
    <!-- Generator: Sketch 41.2 (35397) - http://www.bohemiancoding.com/sketch -->
    <title>cc-button</title>
    <desc>Created with Sketch.</desc>
    <defs>
        <rect id="path-1" x="0" y="0" width="228" height="44" rx="3"></rect>
        <mask id="mask-2" maskContentUnits="userSpaceOnUse" maskUnits="objectBoundingBox" x="0" y="0" width="228" height="44" fill="white">
            <use xlink:href="#path-1"></use>
        </mask>
        <rect id="path-3" x="0" y="0" width="33" height="23" rx="1"></rect>
        <mask id="mask-4" maskContentUnits="userSpaceOnUse" maskUnits="objectBoundingBox" x="0" y="0" width="33" height="23" fill="white">
            <use xlink:href="#path-3"></use>
        </mask>
        <rect id="path-5" x="0" y="3.63157895" width="33" height="6.05263158"></rect>
        <mask id="mask-6" maskContentUnits="userSpaceOnUse" maskUnits="objectBoundingBox" x="0" y="0" width="33" height="6.05263158" fill="white">
            <use xlink:href="#path-5"></use>
        </mask>
        <rect id="path-7" x="3.4137931" y="14.5263158" width="7.96551724" height="6.05263158" rx="1"></rect>
        <mask id="mask-8" maskContentUnits="userSpaceOnUse" maskUnits="objectBoundingBox" x="0" y="0" width="7.96551724" height="6.05263158" fill="white">
            <use xlink:href="#path-7"></use>
        </mask>
    </defs>
    <g id="Logo" stroke="none" stroke-width="1" fill="none" fill-rule="evenodd">
        <g id="cc-button">
            <use id="Rectangle-9" stroke="#002C89" mask="url(#mask-2)" stroke-width="2" fill="#019ADA" xlink:href="#path-1"></use>
            <path d="M27.76,19.16 C27.76,19.8213366 27.6373346,20.3786644 27.392,20.832 C27.1466654,21.2853356 26.8160021,21.6506653 26.4,21.928 C25.9839979,22.2053347 25.5040027,22.4079994 24.96,22.536 C24.4159973,22.6640006 23.8506696,22.728 23.264,22.728 L21.904,22.728 L21.904,27 L19.168,27 L19.168,15.672 L23.328,15.672 C23.9466698,15.672 24.5253306,15.7333327 25.064,15.856 C25.6026694,15.9786673 26.071998,16.1759986 26.472,16.448 C26.872002,16.7200014 27.1866655,17.0773311 27.416,17.52 C27.6453345,17.9626689 27.76,18.5093301 27.76,19.16 Z M25.024,19.176 C25.024,18.909332 24.9706672,18.6906675 24.864,18.52 C24.7573328,18.3493325 24.6133342,18.2160005 24.432,18.12 C24.2506658,18.0239995 24.0453345,17.9600002 23.816,17.928 C23.5866655,17.8959998 23.3493346,17.88 23.104,17.88 L21.904,17.88 L21.904,20.552 L23.056,20.552 C23.3120013,20.552 23.5573322,20.5306669 23.792,20.488 C24.0266678,20.4453331 24.2373324,20.3706672 24.424,20.264 C24.6106676,20.1573328 24.7573328,20.0160009 24.864,19.84 C24.9706672,19.6639991 25.024,19.442668 25.024,19.176 Z M32.4160002,23.528 L32.0800002,23.528 C31.7919987,23.528 31.501335,23.5413332 31.2080002,23.568 C30.9146654,23.5946668 30.6533346,23.645333 30.4240002,23.72 C30.1946657,23.794667 30.0053342,23.9039993 29.8560002,24.048 C29.7066661,24.1920007 29.6320002,24.3813322 29.6320002,24.616 C29.6320002,24.7653341 29.6666665,24.8933328 29.7360002,25 C29.8053338,25.1066672 29.893333,25.1919997 30.0000002,25.256 C30.1066674,25.3200003 30.2293328,25.3653332 30.3680002,25.392 C30.5066675,25.4186668 30.6399995,25.432 30.7680002,25.432 C31.3013362,25.432 31.7093321,25.2853348 31.9920002,24.992 C32.2746682,24.6986652 32.4160002,24.3013358 32.4160002,23.8 L32.4160002,23.528 Z M27.6000002,20.12 C28.0693358,19.6719978 28.615997,19.3360011 29.2400002,19.112 C29.8640033,18.8879989 30.5013302,18.776 31.1520002,18.776 C31.8240035,18.776 32.3919978,18.8586658 32.8560002,19.024 C33.3200025,19.1893342 33.6959987,19.4453316 33.9840002,19.792 C34.2720016,20.1386684 34.4826662,20.5759974 34.6160002,21.104 C34.7493342,21.6320026 34.8160002,22.258663 34.8160002,22.984 L34.8160002,27 L32.4160002,27 L32.4160002,26.152 L32.3680002,26.152 C32.1653325,26.4826683 31.8586689,26.7386658 31.4480002,26.92 C31.0373314,27.1013342 30.5920026,27.192 30.1120002,27.192 C29.7919986,27.192 29.4613352,27.1493338 29.1200002,27.064 C28.7786651,26.9786662 28.4666682,26.840001 28.1840002,26.648 C27.9013321,26.455999 27.6693344,26.2000016 27.4880002,25.88 C27.3066659,25.5599984 27.2160002,25.1653357 27.2160002,24.696 C27.2160002,24.1199971 27.3733319,23.6560018 27.6880002,23.304 C28.0026684,22.9519982 28.4079977,22.680001 28.9040002,22.488 C29.4000026,22.295999 29.9519971,22.1680003 30.5600002,22.104 C31.1680032,22.0399997 31.7599973,22.008 32.3360002,22.008 L32.3360002,21.88 C32.3360002,21.4853314 32.1973349,21.1946676 31.9200002,21.008 C31.6426654,20.8213324 31.3013355,20.728 30.8960002,20.728 C30.522665,20.728 30.1626686,20.8079992 29.8160002,20.968 C29.4693318,21.1280008 29.1733347,21.3199989 28.9280002,21.544 L27.6000002,20.12 Z M40.4640003,28.2 C40.3039995,28.6160021 40.1253347,28.986665 39.9280003,29.312 C39.730666,29.637335 39.4960017,29.9146655 39.2240003,30.144 C38.951999,30.3733345 38.6320022,30.5466661 38.2640003,30.664 C37.8959985,30.7813339 37.4613362,30.84 36.9600003,30.84 C36.7146658,30.84 36.461335,30.8240002 36.2000003,30.792 C35.9386657,30.7599998 35.7120013,30.7173336 35.5200003,30.664 L35.8080003,28.456 C35.936001,28.4986669 36.0773329,28.5333332 36.2320003,28.56 C36.3866678,28.5866668 36.5279997,28.6 36.6560003,28.6 C37.0613357,28.6 37.3546661,28.5066676 37.5360003,28.32 C37.7173346,28.1333324 37.8719997,27.869335 38.0000003,27.528 L38.2560003,26.872 L34.9280003,19.032 L37.8400003,19.032 L39.6160003,24.152 L39.6640003,24.152 L41.2480003,19.032 L44.0320003,19.032 L40.4640003,28.2 Z M57.5840007,27 L54.9440007,27 L53.3760007,22.04 L53.3440007,22.04 L51.8080007,27 L49.1680007,27 L46.4160007,19.032 L49.2480007,19.032 L50.6240007,24.072 L50.6720007,24.072 L52.0960007,19.032 L54.7360007,19.032 L56.2080007,24.072 L56.2400007,24.072 L57.6320007,19.032 L60.3520007,19.032 L57.5840007,27 Z M63.4240008,16.488 C63.4240008,16.6906677 63.3840012,16.8799991 63.3040008,17.056 C63.2240004,17.2320009 63.1173348,17.3839994 62.9840008,17.512 C62.8506668,17.6400006 62.6906684,17.741333 62.5040008,17.816 C62.3173332,17.890667 62.1226685,17.928 61.9200008,17.928 C61.493332,17.928 61.1360023,17.7866681 60.8480008,17.504 C60.5599994,17.2213319 60.4160008,16.8826686 60.4160008,16.488 C60.4160008,16.295999 60.4533338,16.1120009 60.5280008,15.936 C60.6026679,15.7599991 60.7093335,15.6080006 60.8480008,15.48 C60.9866682,15.3519994 61.1466666,15.2480004 61.3280008,15.168 C61.5093351,15.0879996 61.7066664,15.048 61.9200008,15.048 C62.1226685,15.048 62.3173332,15.085333 62.5040008,15.16 C62.6906684,15.234667 62.8506668,15.3359994 62.9840008,15.464 C63.1173348,15.5920006 63.2240004,15.7439991 63.3040008,15.92 C63.3840012,16.0960009 63.4240008,16.2853323 63.4240008,16.488 Z M60.6080008,27 L60.6080008,19.032 L63.2320008,19.032 L63.2320008,27 L60.6080008,27 Z M67.360001,21 L67.360001,24.04 C67.360001,24.4133352 67.4320003,24.6933324 67.576001,24.88 C67.7200017,25.0666676 67.9786658,25.16 68.352001,25.16 C68.4800016,25.16 68.6160003,25.1493334 68.760001,25.128 C68.9040017,25.1066666 69.0240005,25.0746669 69.120001,25.032 L69.152001,26.952 C68.9706668,27.0160003 68.7413357,27.0719998 68.464001,27.12 C68.1866663,27.1680002 67.9093357,27.192 67.632001,27.192 C67.098665,27.192 66.6506695,27.125334 66.288001,26.992 C65.9253325,26.858666 65.6346688,26.6666679 65.416001,26.416 C65.1973332,26.1653321 65.0400015,25.8666684 64.944001,25.52 C64.8480005,25.1733316 64.800001,24.7866688 64.800001,24.36 L64.800001,21 L63.520001,21 L63.520001,19.032 L64.784001,19.032 L64.784001,16.936 L67.360001,16.936 L67.360001,19.032 L69.232001,19.032 L69.232001,21 L67.360001,21 Z M74.9120012,27 L74.9120012,22.68 C74.9120012,22.4559989 74.8960013,22.2426677 74.8640012,22.04 C74.832001,21.8373323 74.7706683,21.6586674 74.6800012,21.504 C74.589334,21.3493326 74.4693352,21.2266671 74.3200012,21.136 C74.1706671,21.0453329 73.978669,21 73.7440012,21 C73.2853322,21 72.9333357,21.162665 72.6880012,21.488 C72.4426666,21.813335 72.3200012,22.2159976 72.3200012,22.696 L72.3200012,27 L69.6960012,27 L69.6960012,14.904 L72.3200012,14.904 L72.3200012,20.04 L72.3520012,20.04 C72.5333354,19.7199984 72.8213325,19.4346679 73.2160012,19.184 C73.6106698,18.9333321 74.0853317,18.808 74.6400012,18.808 C75.1840039,18.808 75.6399993,18.903999 76.0080012,19.096 C76.376003,19.288001 76.6746667,19.5359985 76.9040012,19.84 C77.1333356,20.1440015 77.2986673,20.4933314 77.4000012,20.888 C77.501335,21.2826686 77.5520012,21.6773314 77.5520012,22.072 L77.5520012,27 L74.9120012,27 Z M92.0480015,25.432 C91.5466657,26.0080029 90.9280052,26.4639983 90.1920015,26.8 C89.4559978,27.1360017 88.6080063,27.304 87.6480015,27.304 C86.7733305,27.304 85.9653385,27.1600014 85.2240015,26.872 C84.4826645,26.5839986 83.8400042,26.1760026 83.2960015,25.648 C82.7519988,25.1199974 82.3253364,24.4880037 82.0160015,23.752 C81.7066666,23.0159963 81.5520015,22.2053378 81.5520015,21.32 C81.5520015,20.4133288 81.7093333,19.5920037 82.0240015,18.856 C82.3386697,18.1199963 82.7733321,17.4933359 83.3280015,16.976 C83.8826709,16.4586641 84.5333311,16.0613347 85.2800015,15.784 C86.0266719,15.5066653 86.8319972,15.368 87.6960015,15.368 C88.4960055,15.368 89.2826643,15.5093319 90.0560015,15.792 C90.8293387,16.0746681 91.4559991,16.4879973 91.9360015,17.032 L90.0800015,18.888 C89.8240002,18.5359982 89.4880036,18.2746675 89.0720015,18.104 C88.6559994,17.9333325 88.229337,17.848 87.7920015,17.848 C87.3119991,17.848 86.8720035,17.9359991 86.4720015,18.112 C86.0719995,18.2880009 85.7280029,18.5306651 85.4400015,18.84 C85.1520001,19.1493349 84.9280023,19.5146646 84.7680015,19.936 C84.6080007,20.3573354 84.5280015,20.8186642 84.5280015,21.32 C84.5280015,21.8320026 84.6080007,22.3013312 84.7680015,22.728 C84.9280023,23.1546688 85.1493334,23.5199985 85.4320015,23.824 C85.7146696,24.1280015 86.0533329,24.3653325 86.4480015,24.536 C86.8426701,24.7066675 87.2746658,24.792 87.7440015,24.792 C88.2880042,24.792 88.7626661,24.6853344 89.1680015,24.472 C89.5733369,24.2586656 89.8986669,23.981335 90.1440015,23.64 L92.0480015,25.432 Z M97.4400017,21.176 C97.3226677,21.1439998 97.2080022,21.1226667 97.0960017,21.112 C96.9840011,21.1013333 96.8746689,21.096 96.7680017,21.096 C96.4159999,21.096 96.1200029,21.1599994 95.8800017,21.288 C95.6400005,21.4160006 95.4480024,21.5706658 95.3040017,21.752 C95.1600009,21.9333342 95.056002,22.1306656 94.9920017,22.344 C94.9280013,22.5573344 94.8960017,22.7439992 94.8960017,22.904 L94.8960017,27 L92.2720017,27 L92.2720017,19.032 L94.8000017,19.032 L94.8000017,20.184 L94.8320017,20.184 C95.0346693,19.7786646 95.3226665,19.4480013 95.6960017,19.192 C96.0693369,18.9359987 96.5013325,18.808 96.9920017,18.808 C97.0986689,18.808 97.2026678,18.8133333 97.3040017,18.824 C97.4053355,18.8346667 97.4880013,18.8506666 97.5520017,18.872 L97.4400017,21.176 Z M103.008002,22.104 C103.008002,21.6879979 102.877336,21.3306682 102.616002,21.032 C102.354667,20.7333318 101.962671,20.584 101.440002,20.584 C101.184001,20.584 100.949336,20.6239996 100.736002,20.704 C100.522667,20.7840004 100.336003,20.8933326 100.176002,21.032 C100.016001,21.1706674 99.8880023,21.3333324 99.7920018,21.52 C99.6960014,21.7066676 99.6426686,21.9013323 99.6320018,22.104 L103.008002,22.104 Z M105.424002,23.112 L105.424002,23.432 C105.424002,23.5386672 105.418669,23.6399995 105.408002,23.736 L99.6320018,23.736 C99.6533353,23.9600011 99.7200013,24.1626658 99.8320018,24.344 C99.9440024,24.5253342 100.088001,24.682666 100.264002,24.816 C100.440003,24.949334 100.637334,25.053333 100.856002,25.128 C101.07467,25.202667 101.301334,25.24 101.536002,25.24 C101.952004,25.24 102.304,25.1626674 102.592002,25.008 C102.880003,24.8533326 103.114668,24.6533346 103.296002,24.408 L105.120002,25.56 C104.746667,26.1040027 104.253338,26.5226652 103.640002,26.816 C103.026665,27.1093348 102.314673,27.256 101.504002,27.256 C100.906666,27.256 100.341338,27.1626676 99.8080018,26.976 C99.2746658,26.7893324 98.8080038,26.5173351 98.4080018,26.16 C98.0079998,25.8026649 97.6933363,25.3626693 97.4640018,24.84 C97.2346674,24.3173307 97.1200018,23.7200034 97.1200018,23.048 C97.1200018,22.3973301 97.2320007,21.8080026 97.4560018,21.28 C97.680003,20.7519974 97.9839999,20.3040018 98.3680018,19.936 C98.7520038,19.5679982 99.2053326,19.2826677 99.7280018,19.08 C100.250671,18.8773323 100.815999,18.776 101.424002,18.776 C102.010671,18.776 102.549333,18.8746657 103.040002,19.072 C103.530671,19.2693343 103.952,19.5546648 104.304002,19.928 C104.656004,20.3013352 104.930668,20.754664 105.128002,21.288 C105.325336,21.821336 105.424002,22.4293299 105.424002,23.112 Z M112.288002,27 L112.288002,25.96 L112.256002,25.96 C112.000001,26.3653354 111.634671,26.6773322 111.160002,26.896 C110.685333,27.1146678 110.181338,27.224 109.648002,27.224 C109.050666,27.224 108.517338,27.1066678 108.048002,26.872 C107.578666,26.6373322 107.181337,26.3253353 106.856002,25.936 C106.530667,25.5466647 106.28267,25.0960026 106.112002,24.584 C105.941334,24.0719974 105.856002,23.5386694 105.856002,22.984 C105.856002,22.4293306 105.944001,21.8986692 106.120002,21.392 C106.296003,20.8853308 106.546667,20.4400019 106.872002,20.056 C107.197337,19.6719981 107.592,19.3680011 108.056002,19.144 C108.520004,18.9199989 109.039999,18.808 109.616002,18.808 C110.202672,18.808 110.698667,18.9199989 111.104002,19.144 C111.509337,19.3680011 111.824001,19.613332 112.048002,19.88 L112.080002,19.88 L112.080002,14.904 L114.704002,14.904 L114.704002,27 L112.288002,27 Z M112.192002,23 C112.192002,22.7439987 112.146669,22.4933346 112.056002,22.248 C111.965335,22.0026654 111.837336,21.784001 111.672002,21.592 C111.506668,21.399999 111.30667,21.2453339 111.072002,21.128 C110.837334,21.0106661 110.57067,20.952 110.272002,20.952 C109.962667,20.952 109.69067,21.0106661 109.456002,21.128 C109.221334,21.2453339 109.024003,21.3973324 108.864002,21.584 C108.704001,21.7706676 108.584002,21.9866654 108.504002,22.232 C108.424002,22.4773346 108.384002,22.7279987 108.384002,22.984 C108.384002,23.2400013 108.424002,23.4933321 108.504002,23.744 C108.584002,23.9946679 108.704001,24.215999 108.864002,24.408 C109.024003,24.600001 109.221334,24.7546661 109.456002,24.872 C109.69067,24.9893339 109.962667,25.048 110.272002,25.048 C110.57067,25.048 110.837334,24.9893339 111.072002,24.872 C111.30667,24.7546661 111.506668,24.600001 111.672002,24.408 C111.837336,24.215999 111.965335,23.9973346 112.056002,23.752 C112.146669,23.5066654 112.192002,23.2560013 112.192002,23 Z M118.832002,16.488 C118.832002,16.6906677 118.792003,16.8799991 118.712002,17.056 C118.632002,17.2320009 118.525336,17.3839994 118.392002,17.512 C118.258668,17.6400006 118.09867,17.741333 117.912002,17.816 C117.725335,17.890667 117.53067,17.928 117.328002,17.928 C116.901333,17.928 116.544004,17.7866681 116.256002,17.504 C115.968001,17.2213319 115.824002,16.8826686 115.824002,16.488 C115.824002,16.295999 115.861335,16.1120009 115.936002,15.936 C116.010669,15.7599991 116.117335,15.6080006 116.256002,15.48 C116.39467,15.3519994 116.554668,15.2480004 116.736002,15.168 C116.917336,15.0879996 117.114668,15.048 117.328002,15.048 C117.53067,15.048 117.725335,15.085333 117.912002,15.16 C118.09867,15.234667 118.258668,15.3359994 118.392002,15.464 C118.525336,15.5920006 118.632002,15.7439991 118.712002,15.92 C118.792003,16.0960009 118.832002,16.2853323 118.832002,16.488 Z M116.016002,27 L116.016002,19.032 L118.640002,19.032 L118.640002,27 L116.016002,27 Z M122.768002,21 L122.768002,24.04 C122.768002,24.4133352 122.840002,24.6933324 122.984002,24.88 C123.128003,25.0666676 123.386667,25.16 123.760002,25.16 C123.888003,25.16 124.024002,25.1493334 124.168002,25.128 C124.312003,25.1066666 124.432002,25.0746669 124.528002,25.032 L124.560002,26.952 C124.378668,27.0160003 124.149337,27.0719998 123.872002,27.12 C123.594668,27.1680002 123.317337,27.192 123.040002,27.192 C122.506666,27.192 122.058671,27.125334 121.696002,26.992 C121.333334,26.858666 121.04267,26.6666679 120.824002,26.416 C120.605335,26.1653321 120.448003,25.8666684 120.352002,25.52 C120.256002,25.1733316 120.208002,24.7866688 120.208002,24.36 L120.208002,21 L118.928002,21 L118.928002,19.032 L120.192002,19.032 L120.192002,16.936 L122.768002,16.936 L122.768002,19.032 L124.640002,19.032 L124.640002,21 L122.768002,21 Z M138.384003,25.432 C137.882667,26.0080029 137.264006,26.4639983 136.528003,26.8 C135.791999,27.1360017 134.944007,27.304 133.984003,27.304 C133.109332,27.304 132.30134,27.1600014 131.560003,26.872 C130.818666,26.5839986 130.176005,26.1760026 129.632003,25.648 C129.088,25.1199974 128.661338,24.4880037 128.352003,23.752 C128.042668,23.0159963 127.888003,22.2053378 127.888003,21.32 C127.888003,20.4133288 128.045334,19.5920037 128.360003,18.856 C128.674671,18.1199963 129.109333,17.4933359 129.664003,16.976 C130.218672,16.4586641 130.869332,16.0613347 131.616003,15.784 C132.362673,15.5066653 133.167998,15.368 134.032003,15.368 C134.832007,15.368 135.618665,15.5093319 136.392003,15.792 C137.16534,16.0746681 137.792,16.4879973 138.272003,17.032 L136.416003,18.888 C136.160001,18.5359982 135.824005,18.2746675 135.408003,18.104 C134.992001,17.9333325 134.565338,17.848 134.128003,17.848 C133.648,17.848 133.208005,17.9359991 132.808003,18.112 C132.408001,18.2880009 132.064004,18.5306651 131.776003,18.84 C131.488001,19.1493349 131.264003,19.5146646 131.104003,19.936 C130.944002,20.3573354 130.864003,20.8186642 130.864003,21.32 C130.864003,21.8320026 130.944002,22.3013312 131.104003,22.728 C131.264003,23.1546688 131.485335,23.5199985 131.768003,23.824 C132.050671,24.1280015 132.389334,24.3653325 132.784003,24.536 C133.178671,24.7066675 133.610667,24.792 134.080003,24.792 C134.624005,24.792 135.098667,24.6853344 135.504003,24.472 C135.909338,24.2586656 136.234668,23.981335 136.480003,23.64 L138.384003,25.432 Z M143.024003,23.528 L142.688003,23.528 C142.400001,23.528 142.109338,23.5413332 141.816003,23.568 C141.522668,23.5946668 141.261337,23.645333 141.032003,23.72 C140.802668,23.794667 140.613337,23.9039993 140.464003,24.048 C140.314669,24.1920007 140.240003,24.3813322 140.240003,24.616 C140.240003,24.7653341 140.274669,24.8933328 140.344003,25 C140.413337,25.1066672 140.501336,25.1919997 140.608003,25.256 C140.71467,25.3200003 140.837335,25.3653332 140.976003,25.392 C141.11467,25.4186668 141.248002,25.432 141.376003,25.432 C141.909339,25.432 142.317335,25.2853348 142.600003,24.992 C142.882671,24.6986652 143.024003,24.3013358 143.024003,23.8 L143.024003,23.528 Z M138.208003,20.12 C138.677339,19.6719978 139.224,19.3360011 139.848003,19.112 C140.472006,18.8879989 141.109333,18.776 141.760003,18.776 C142.432006,18.776 143.000001,18.8586658 143.464003,19.024 C143.928005,19.1893342 144.304001,19.4453316 144.592003,19.792 C144.880004,20.1386684 145.090669,20.5759974 145.224003,21.104 C145.357337,21.6320026 145.424003,22.258663 145.424003,22.984 L145.424003,27 L143.024003,27 L143.024003,26.152 L142.976003,26.152 C142.773335,26.4826683 142.466672,26.7386658 142.056003,26.92 C141.645334,27.1013342 141.200005,27.192 140.720003,27.192 C140.400001,27.192 140.069338,27.1493338 139.728003,27.064 C139.386668,26.9786662 139.074671,26.840001 138.792003,26.648 C138.509335,26.455999 138.277337,26.2000016 138.096003,25.88 C137.914669,25.5599984 137.824003,25.1653357 137.824003,24.696 C137.824003,24.1199971 137.981335,23.6560018 138.296003,23.304 C138.610671,22.9519982 139.016,22.680001 139.512003,22.488 C140.008005,22.295999 140.56,22.1680003 141.168003,22.104 C141.776006,22.0399997 142.368,22.008 142.944003,22.008 L142.944003,21.88 C142.944003,21.4853314 142.805338,21.1946676 142.528003,21.008 C142.250668,20.8213324 141.909338,20.728 141.504003,20.728 C141.130668,20.728 140.770671,20.8079992 140.424003,20.968 C140.077334,21.1280008 139.781337,21.3199989 139.536003,21.544 L138.208003,20.12 Z M151.744003,21.176 C151.626669,21.1439998 151.512004,21.1226667 151.400003,21.112 C151.288002,21.1013333 151.17867,21.096 151.072003,21.096 C150.720001,21.096 150.424004,21.1599994 150.184003,21.288 C149.944002,21.4160006 149.752004,21.5706658 149.608003,21.752 C149.464002,21.9333342 149.360003,22.1306656 149.296003,22.344 C149.232003,22.5573344 149.200003,22.7439992 149.200003,22.904 L149.200003,27 L146.576003,27 L146.576003,19.032 L149.104003,19.032 L149.104003,20.184 L149.136003,20.184 C149.338671,19.7786646 149.626668,19.4480013 150.000003,19.192 C150.373338,18.9359987 150.805334,18.808 151.296003,18.808 C151.40267,18.808 151.506669,18.8133333 151.608003,18.824 C151.709337,18.8346667 151.792003,18.8506666 151.856003,18.872 L151.744003,21.176 Z M157.856003,27 L157.856003,25.96 L157.824003,25.96 C157.568002,26.3653354 157.202672,26.6773322 156.728003,26.896 C156.253334,27.1146678 155.749339,27.224 155.216003,27.224 C154.618667,27.224 154.085339,27.1066678 153.616003,26.872 C153.146667,26.6373322 152.749338,26.3253353 152.424003,25.936 C152.098668,25.5466647 151.850671,25.0960026 151.680003,24.584 C151.509336,24.0719974 151.424003,23.5386694 151.424003,22.984 C151.424003,22.4293306 151.512002,21.8986692 151.688003,21.392 C151.864004,20.8853308 152.114668,20.4400019 152.440003,20.056 C152.765338,19.6719981 153.160001,19.3680011 153.624003,19.144 C154.088005,18.9199989 154.608,18.808 155.184003,18.808 C155.770673,18.808 156.266668,18.9199989 156.672003,19.144 C157.077339,19.3680011 157.392002,19.613332 157.616003,19.88 L157.648003,19.88 L157.648003,14.904 L160.272003,14.904 L160.272003,27 L157.856003,27 Z M157.760003,23 C157.760003,22.7439987 157.71467,22.4933346 157.624003,22.248 C157.533336,22.0026654 157.405337,21.784001 157.240003,21.592 C157.074669,21.399999 156.874671,21.2453339 156.640003,21.128 C156.405335,21.0106661 156.138671,20.952 155.840003,20.952 C155.530668,20.952 155.258671,21.0106661 155.024003,21.128 C154.789335,21.2453339 154.592004,21.3973324 154.432003,21.584 C154.272002,21.7706676 154.152004,21.9866654 154.072003,22.232 C153.992003,22.4773346 153.952003,22.7279987 153.952003,22.984 C153.952003,23.2400013 153.992003,23.4933321 154.072003,23.744 C154.152004,23.9946679 154.272002,24.215999 154.432003,24.408 C154.592004,24.600001 154.789335,24.7546661 155.024003,24.872 C155.258671,24.9893339 155.530668,25.048 155.840003,25.048 C156.138671,25.048 156.405335,24.9893339 156.640003,24.872 C156.874671,24.7546661 157.074669,24.600001 157.240003,24.408 C157.405337,24.215999 157.533336,23.9973346 157.624003,23.752 C157.71467,23.5066654 157.760003,23.2560013 157.760003,23 Z" id="Pay-with-Credit-Card" fill="#FFFFFF"></path>
            <g id="Group-18" transform="translate(174.000000, 10.000000)" stroke="#2B2B3D">
                <use id="Rectangle-10" mask="url(#mask-4)" stroke-width="2" fill="#D8D8D8" xlink:href="#path-3"></use>
                <use id="Rectangle-11" mask="url(#mask-6)" stroke-width="2" fill="#5B5A77" xlink:href="#path-5"></use>
                <use id="Rectangle-12" mask="url(#mask-8)" stroke-width="2" fill="#F9D453" xlink:href="#path-7"></use>
                <path d="M18.2068966,15.1315789 L29.5862069,15.1315789" id="Path-5" stroke-linecap="round"></path>
                <path d="M18.2068966,17.5526316 L25.0344828,17.5526316" id="Path-5-Copy" stroke-linecap="round"></path>
            </g>
        </g>
    </g>
</svg>