<?xml version="1.0" encoding="UTF-8"?>
<svg width="540px" height="349px" viewBox="0 0 540 349" version="1.1" xmlns="http://www.w3.org/2000/svg" xmlns:xlink="http://www.w3.org/1999/xlink">
    <!-- Generator: Sketch 41.2 (35397) - http://www.bohemiancoding.com/sketch -->
    <title>Group 52</title>
    <desc>Created with Sketch.</desc>
    <defs>
        <filter x="-50%" y="-50%" width="200%" height="200%" filterUnits="objectBoundingBox" id="filter-1">
            <feOffset dx="0" dy="-2" in="SourceAlpha" result="shadowOffsetOuter1"></feOffset>
            <feGaussianBlur stdDeviation="1.5" in="shadowOffsetOuter1" result="shadowBlurOuter1"></feGaussianBlur>
            <feColorMatrix values="0 0 0 0 0.757839073   0 0 0 0 0.757839073   0 0 0 0 0.757839073  0 0 0 0.5 0" type="matrix" in="shadowBlurOuter1" result="shadowMatrixOuter1"></feColorMatrix>
            <feMerge>
                <feMergeNode in="shadowMatrixOuter1"></feMergeNode>
                <feMergeNode in="SourceGraphic"></feMergeNode>
            </feMerge>
        </filter>
        <filter x="-50%" y="-50%" width="200%" height="200%" filterUnits="objectBoundingBox" id="filter-2">
            <feOffset dx="0" dy="-2" in="SourceAlpha" result="shadowOffsetOuter1"></feOffset>
            <feGaussianBlur stdDeviation="1.5" in="shadowOffsetOuter1" result="shadowBlurOuter1"></feGaussianBlur>
            <feColorMatrix values="0 0 0 0 0.757839073   0 0 0 0 0.757839073   0 0 0 0 0.757839073  0 0 0 0.5 0" type="matrix" in="shadowBlurOuter1" result="shadowMatrixOuter1"></feColorMatrix>
            <feMerge>
                <feMergeNode in="shadowMatrixOuter1"></feMergeNode>
                <feMergeNode in="SourceGraphic"></feMergeNode>
            </feMerge>
        </filter>
        <linearGradient x1="37.0590477%" y1="1.70370869%" x2="37.0590478%" y2="84.5704277%" id="linearGradient-3">
            <stop stop-color="#84D7FB" offset="0%"></stop>
            <stop stop-color="#6BC5ED" offset="100%"></stop>
        </linearGradient>
        <path d="M50.9090909,31.7715529 C50.9090909,31.4890344 51.128302,31.2511445 51.4090427,31.2397932 L54.4863967,31.1153648 C54.7625124,31.1042005 54.9863485,31.3211688 54.9863485,31.6106281 L54.9863485,33.2586622 C54.9863485,34.385526 54.0814729,35.2990296 52.9477197,35.2990296 L52.9477197,35.2990296 C51.8218161,35.2990296 50.9090909,34.3825131 50.9090909,33.2558531 L50.9090909,31.7715529 Z" id="path-4"></path>
        <linearGradient x1="50%" y1="0%" x2="50%" y2="100%" id="linearGradient-6">
            <stop stop-color="#59C2F1" offset="0%"></stop>
            <stop stop-color="#94DEFF" offset="100%"></stop>
        </linearGradient>
        <linearGradient x1="0%" y1="31.68506%" x2="98.2962913%" y2="62.9409523%" id="linearGradient-7">
            <stop stop-color="#59C2F1" offset="0%"></stop>
            <stop stop-color="#7BD2F9" offset="100%"></stop>
        </linearGradient>
        <linearGradient x1="37.0590477%" y1="1.70370869%" x2="62.9409523%" y2="98.2962913%" id="linearGradient-8">
            <stop stop-color="#67C2EB" offset="0%"></stop>
            <stop stop-color="#89D9FD" offset="100%"></stop>
        </linearGradient>
        <filter x="-50%" y="-50%" width="200%" height="200%" filterUnits="objectBoundingBox" id="filter-9">
            <feOffset dx="0" dy="2" in="SourceAlpha" result="shadowOffsetOuter1"></feOffset>
            <feGaussianBlur stdDeviation="2" in="shadowOffsetOuter1" result="shadowBlurOuter1"></feGaussianBlur>
            <feColorMatrix values="0 0 0 0 0   0 0 0 0 0   0 0 0 0 0  0 0 0 0.5 0" type="matrix" in="shadowBlurOuter1" result="shadowMatrixOuter1"></feColorMatrix>
            <feMerge>
                <feMergeNode in="shadowMatrixOuter1"></feMergeNode>
                <feMergeNode in="SourceGraphic"></feMergeNode>
            </feMerge>
        </filter>
        <path d="M0,3.47551796 C0,2.37160098 0.900345519,1.43940121 2.00746124,1.39353718 L32.9925388,0.109931095 C34.101229,0.0640018401 35,0.92239901 35,2.02771975 L35,19.5013859 C35,29.1656036 27.1671082,37 17.5,37 L17.5,37 C7.83501688,37 0,29.1602845 0,19.4985219 L0,3.47551796 Z" id="path-10"></path>
    </defs>
    <g id="Landing-Page" stroke="none" stroke-width="1" fill="none" fill-rule="evenodd">
        <g id="Group-52" transform="translate(4.000000, -9.000000)">
            <g id="Group-50" transform="translate(486.890035, 48.863338) rotate(23.000000) translate(-486.890035, -48.863338) translate(454.890035, 9.363338)">
                <g id="Group-49-Copy" filter="url(#filter-1)" transform="translate(20.363636, 0.438233)">
                    <g id="Group-32-Copy-3" transform="translate(16.255971, 27.754601) scale(-1, 1) translate(-16.255971, -27.754601) translate(1.468092, 0.000000)" fill="#F1E338">
                        <path d="M4.16706529,32.0259677 C4.93068322,40.6844526 3.10247048,43.2192541 4.16706529,47.1698258 C5.23166009,51.1203974 7.8931471,55.0709691 12.6838237,55.0709691 C17.4745003,55.0709691 19.60369,49.1568655 21.2005822,41.2439683 C22.7974744,33.331071 29.7173406,32.6843963 29.1850432,16.223681 C28.799786,4.31002461 21.2005822,1.73825154 17.4745003,0.421394312 C13.7484185,-0.895462912 4.16706529,0.421394312 0.973280874,10.9562521 C-2.22050354,21.4911099 3.40344735,23.3674827 4.16706529,32.0259677 Z" id="Path-3"></path>
                    </g>
                    <ellipse id="Oval-12" fill="#89D9FC" cx="19.0335798" cy="45.1333506" rx="3.89522261" ry="4.96880924"></ellipse>
                    <path d="M17.7347539,22.4537348 C17.7347539,22.4537348 20.8184718,13.4064709 20.8184718,8.37544198 C20.8184718,3.3444131 19.4378443,-0.734041636 17.7347539,-0.734041636 C16.0316636,-0.734041636 14.651036,3.3444131 14.651036,8.37544198 C14.651036,13.4064709 17.7347539,22.4537348 17.7347539,22.4537348 Z" id="Oval-13" fill="#E69D23" transform="translate(17.734754, 10.859847) rotate(-60.000000) translate(-17.734754, -10.859847) "></path>
                    <path d="M13.9634978,33.4396346 C13.9634978,33.4396346 17.0472157,23.2164454 17.0472157,17.5315045 C17.0472157,11.8465637 15.6665881,7.23800854 13.9634978,7.23800854 C12.2604074,7.23800854 10.8797799,11.8465637 10.8797799,17.5315045 C10.8797799,23.2164454 13.9634978,33.4396346 13.9634978,33.4396346 Z" id="Oval-13-Copy" fill="#89D9FC" transform="translate(13.963498, 20.338822) rotate(-84.000000) translate(-13.963498, -20.338822) "></path>
                    <path d="M16.8566603,38.766895 C16.8566603,38.766895 19.3725061,31.3073591 19.3725061,27.1592386 C19.3725061,23.0111182 18.2461236,19.6484022 16.8566603,19.6484022 C15.467197,19.6484022 14.3408145,23.0111182 14.3408145,27.1592386 C14.3408145,31.3073591 16.8566603,38.766895 16.8566603,38.766895 Z" id="Oval-13-Copy-2" fill="#F5A623" transform="translate(16.856660, 29.207649) rotate(-105.000000) translate(-16.856660, -29.207649) "></path>
                </g>
                <g id="Group-49" filter="url(#filter-2)" transform="translate(-0.000000, 14.355828)">
                    <g id="Group-32-Copy-3" transform="translate(21.818182, 31.822086) scale(-1, 1) translate(-21.818182, -31.822086) " fill="#F8E81C">
                        <path d="M6.2242254,37.0116274 C7.36481951,47.0180267 4.6340708,49.9474347 6.2242254,54.5130137 C7.81437999,59.0785927 11.7897665,63.6441718 18.9454622,63.6441718 C26.1011578,63.6441718 29.281467,56.8093869 31.6666989,47.6646451 C34.0519308,38.5199034 44.3879357,37.7725572 43.5928584,18.7493112 C43.0174109,4.98099001 31.6666989,2.00885478 26.1011578,0.486995097 C20.5356168,-1.03486458 6.2242254,0.486995097 1.45376161,12.6618725 C-3.31670218,24.83675 5.08363128,27.0052281 6.2242254,37.0116274 Z" id="Path-3"></path>
                    </g>
                    <ellipse id="Oval-12" fill="#F5A623" cx="25.6969697" cy="52.1595092" rx="5.81818182" ry="5.74233129"></ellipse>
                    <path d="M23.7569509,25.9492321 C23.7569509,25.9492321 28.3630115,15.4935304 28.3630115,9.6792934 C28.3630115,3.8650564 26.300808,-0.848313962 23.7569509,-0.848313962 C21.2130939,-0.848313962 19.1508903,3.8650564 19.1508903,9.6792934 C19.1508903,15.4935304 23.7569509,25.9492321 23.7569509,25.9492321 Z" id="Oval-13" fill="#F5A623" transform="translate(23.756951, 12.550459) rotate(-60.000000) translate(-23.756951, -12.550459) "></path>
                    <path d="M18.1239342,38.6453677 C18.1239342,38.6453677 22.7299948,26.8306779 22.7299948,20.2607309 C22.7299948,13.6907838 20.6677913,8.3647894 18.1239342,8.3647894 C15.5800772,8.3647894 13.5178736,13.6907838 13.5178736,20.2607309 C13.5178736,26.8306779 18.1239342,38.6453677 18.1239342,38.6453677 Z" id="Oval-13-Copy" fill="#F5A623" transform="translate(18.123934, 23.505079) rotate(-84.000000) translate(-18.123934, -23.505079) "></path>
                    <path d="M22.4453678,44.8019521 C22.4453678,44.8019521 26.2032142,36.181149 26.2032142,31.3872677 C26.2032142,26.5933864 24.5207691,22.7071777 22.4453678,22.7071777 C20.3699665,22.7071777 18.6875214,26.5933864 18.6875214,31.3872677 C18.6875214,36.181149 22.4453678,44.8019521 22.4453678,44.8019521 Z" id="Oval-13-Copy-2" fill="#F5A623" transform="translate(22.445368, 33.754565) rotate(-105.000000) translate(-22.445368, -33.754565) "></path>
                </g>
                <g id="Group-10-Copy" transform="translate(52.848485, 10.527607)">
                    <rect id="Rectangle-3-Copy" fill="#59C2F1" transform="translate(2.169779, 4.144473) rotate(-345.000000) translate(-2.169779, -4.144473) " x="0.886356132" y="0.633085107" width="2.56684492" height="7.02277638" rx="1.28342246"></rect>
                    <path d="M4.01681783,1.8154541 C4.00820657,1.25778481 3.63189605,0.749432084 3.06475504,0.597467109 C2.37531932,0.412733365 1.67677435,0.818717961 1.49384963,1.50140233 L0.303640838,5.94332201 C0.180073524,6.4044815 0.325958289,6.87517952 0.645081179,7.18837395 C0.643296778,7.07281528 0.657301002,6.95513901 0.688667576,6.83807737 L1.87887637,2.39615769 C2.06180109,1.71347332 2.76034606,1.30748872 3.44978178,1.49222247 C3.67147361,1.55162461 3.86400695,1.66548204 4.01681783,1.8154541 Z" id="Combined-Shape-Copy-4" fill="url(#linearGradient-3)"></path>
                </g>
                <g id="Group-48" transform="translate(34.909091, 15.312883)">
                    <path d="M21.2506429,56.7514938 C22.7503828,55.8828194 23.7575758,54.2588296 23.7575758,52.398773 C23.7575758,51.9885182 23.708288,51.5895464 23.6153086,51.2075181 C24.8756272,50.2946416 25.6969697,48.8105922 25.6969697,47.1349693 C25.6969697,46.400396 25.538798,45.7019958 25.254611,45.0722627 C26.1328075,44.0973706 26.6666667,42.8073459 26.6666667,41.392638 C26.6666667,40.5754467 26.4875059,39.79913 26.1661809,39.100983 C27.0819781,38.0499826 27.6363636,36.6756965 27.6363636,35.1717791 C27.6363636,34.0343887 27.3177191,32.9698457 26.7646852,32.0632607 C27.3177828,31.1565475 27.6363636,30.0909806 27.6363636,28.9509202 C27.6363636,27.975143 27.4018388,27.052982 26.9859904,26.2381784 C27.7002414,25.2526683 28.1212121,24.0405824 28.1212121,22.7300613 C28.1212121,20.9881897 27.3738696,19.4171729 26.1818182,18.3227166 L26.1818182,11.8782459 C26.1818182,5.32464051 20.8635037,0 14.3030303,0 C7.74111444,0 2.42424242,5.31807184 2.42424242,11.8782459 L2.42424242,18.3195554 C1.23194179,19.4130651 0.484848485,20.9842173 0.484848485,22.7300613 C0.484848485,23.7058386 0.719373275,24.6279996 1.13522174,25.4428032 C0.420970743,26.4283133 0,27.6403992 0,28.9509202 C0,30.0883107 0.318644572,31.1528537 0.87167839,32.0594387 C0.318580798,32.9661518 0,34.0317188 0,35.1717791 C0,36.6721446 0.554474446,38.0457482 1.47002182,39.0972249 C1.14874181,39.7958867 0.96969697,40.5733544 0.96969697,41.392638 C0.96969697,42.9795446 1.64531003,44.4123132 2.72561504,45.4178362 C2.53064269,45.9535972 2.42424242,46.5318747 2.42424242,47.1349693 C2.42424242,48.6254024 3.07539596,49.9669198 4.10910806,50.8881063 C3.95944918,51.364911 3.87878788,51.8723893 3.87878788,52.398773 C3.87878788,54.2543403 4.88707834,55.8790901 6.3858565,56.7492687 C6.33145531,57.0454356 6.3030303,57.3506876 6.3030303,57.6625767 C6.3030303,60.4319069 8.55314413,62.6871166 11.3288002,62.6871166 L16.3075634,62.6871166 C19.0831451,62.6871166 21.3333333,60.4375534 21.3333333,57.6625767 C21.3333333,57.3515765 21.3049557,57.0470602 21.2506429,56.7514938 Z" id="Combined-Shape" fill="#59C2F1"></path>
                    <path d="M10.3893626,62.5992861 C8.06269785,62.1585055 6.3030303,60.1115712 6.3030303,57.6625767 C6.3030303,57.3506876 6.33145531,57.0454356 6.3858565,56.7492687 C4.88707834,55.8790901 3.87878788,54.2543403 3.87878788,52.398773 C3.87878788,51.8723893 3.95944918,51.364911 4.10910806,50.8881063 C3.07539596,49.9669198 2.42424242,48.6254024 2.42424242,47.1349693 C2.42424242,46.5318747 2.53064269,45.9535972 2.72561504,45.4178362 C1.64531003,44.4123132 0.96969697,42.9795446 0.96969697,41.392638 C0.96969697,40.5733544 1.14874181,39.7958867 1.47002182,39.0972249 C0.554474446,38.0457482 0,36.6721446 0,35.1717791 C0,34.0317188 0.318580798,32.9661518 0.87167839,32.0594387 C0.318644572,31.1528537 0,30.0883107 0,28.9509202 C0,27.6403992 0.420970743,26.4283133 1.13522174,25.4428032 C0.719373275,24.6279996 0.484848485,23.7058386 0.484848485,22.7300613 C0.484848485,20.9842173 1.23194179,19.4130651 2.42424242,18.3195554 L2.42424242,11.8782459 C2.42424242,5.31807184 7.74111444,0 14.3030303,0 C17.5976748,0 20.5790456,1.34287953 22.7308798,3.50990341 C21.202439,2.79323237 19.4964307,2.39263804 17.6969697,2.39263804 C11.1350538,2.39263804 5.81818182,7.71070987 5.81818182,14.2708839 L5.81818182,20.7121935 C4.62588118,21.8057031 3.87878788,23.3768553 3.87878788,25.1226994 C3.87878788,26.0984766 4.11331267,27.0206376 4.52916114,27.8354412 C3.81491014,28.8209513 3.39393939,30.0330373 3.39393939,31.3435583 C3.39393939,32.4809487 3.71258397,33.5454917 4.26561778,34.4520767 C3.71252019,35.3587899 3.39393939,36.4243568 3.39393939,37.5644172 C3.39393939,39.0647827 3.94841384,40.4383862 4.86396121,41.4898629 C4.54268121,42.1885247 4.36363636,42.9659924 4.36363636,43.7852761 C4.36363636,45.3721827 5.03924942,46.8049512 6.11955443,47.8104743 C5.92458209,48.3462353 5.81818182,48.9245127 5.81818182,49.5276074 C5.81818182,51.0180405 6.46933535,52.3595579 7.50304745,53.2807443 C7.35338858,53.7575491 7.27272727,54.2650273 7.27272727,54.791411 C7.27272727,56.6469784 8.28101774,58.2717281 9.77979589,59.1419068 C9.72539471,59.4380736 9.6969697,59.7433256 9.6969697,60.0552147 C9.6969697,60.9827097 9.94936318,61.8525362 10.3893626,62.5992861 Z" id="Combined-Shape" fill="#89D9FC"></path>
                </g>
                <ellipse id="Oval-4" fill="#20292C" cx="46.817811" cy="28.9721829" rx="0.757204975" ry="0.73905408"></ellipse>
                <ellipse id="Oval-4-Copy" fill="#20292C" cx="56.9996292" cy="28.4936553" rx="0.757204975" ry="0.73905408"></ellipse>
                <mask id="mask-5" fill="white">
                    <use xlink:href="#path-4"></use>
                </mask>
                <use id="Mask" fill="#20292C" xlink:href="#path-4"></use>
                <g id="Group-3-Copy-11" transform="translate(57.573426, 56.741563) rotate(-300.000000) translate(-57.573426, -56.741563) translate(51.512820, 53.152606)">
                    <g id="Group-2" transform="translate(-0.000000, 0.000000)">
                        <path d="M7.4038283,-2.06384786 L7.4038283,6.76514765 C7.4038283,8.1660128 6.83420019,9.30163838 6.13118314,9.30163838 L6.13118314,9.30163838 C5.42832063,9.30163838 4.85853799,8.1650825 4.85853799,6.76514765 L4.85853799,-2.06384786" id="Rectangle-3-Copy-6" fill="#3B86A7" transform="translate(6.131183, 3.618895) rotate(-68.000000) translate(-6.131183, -3.618895) "></path>
                        <path d="M7.27700272,-2.82415042 L7.27700272,6.0048451 C7.27700272,7.40571024 6.70737462,8.54133582 6.00435757,8.54133582 L6.00435757,8.54133582 C5.30149505,8.54133582 4.73171241,7.40477994 4.73171241,6.0048451 L4.73171241,-2.82415042" id="Rectangle-3-Copy-2" fill="url(#linearGradient-6)" transform="translate(6.004358, 2.858593) rotate(-75.000000) translate(-6.004358, -2.858593) "></path>
                    </g>
                    <g id="Group-2-Copy-4" transform="translate(-0.000000, 1.473850)" fill="url(#linearGradient-7)">
                        <path d="M10.9992907,1.8803401 C11.43565,2.24359645 11.6594791,2.6605104 11.5601789,3.03110374 C11.3743438,3.72464956 10.1258661,3.99271722 8.77363287,3.63038742 L0.245478075,1.34527523 L0.526350628,0.29704459 L8.25360296,2.36755561 C9.53039655,2.70967142 10.7146885,2.48976611 10.9992907,1.8803401 Z" id="Combined-Shape"></path>
                    </g>
                </g>
                <g id="Group-3-Copy-8" transform="translate(57.573426, 49.563649) rotate(-300.000000) translate(-57.573426, -49.563649) translate(51.512820, 45.974692)">
                    <g id="Group-2" transform="translate(-0.000000, 0.000000)">
                        <path d="M7.4038283,-2.06384786 L7.4038283,6.76514765 C7.4038283,8.1660128 6.83420019,9.30163838 6.13118314,9.30163838 L6.13118314,9.30163838 C5.42832063,9.30163838 4.85853799,8.1650825 4.85853799,6.76514765 L4.85853799,-2.06384786" id="Rectangle-3-Copy-6" fill="#3B86A7" transform="translate(6.131183, 3.618895) rotate(-68.000000) translate(-6.131183, -3.618895) "></path>
                        <path d="M7.27700272,-2.82415042 L7.27700272,6.0048451 C7.27700272,7.40571024 6.70737462,8.54133582 6.00435757,8.54133582 L6.00435757,8.54133582 C5.30149505,8.54133582 4.73171241,7.40477994 4.73171241,6.0048451 L4.73171241,-2.82415042" id="Rectangle-3-Copy-2" fill="url(#linearGradient-6)" transform="translate(6.004358, 2.858593) rotate(-75.000000) translate(-6.004358, -2.858593) "></path>
                    </g>
                    <g id="Group-2-Copy-4" transform="translate(-0.000000, 1.473850)" fill="url(#linearGradient-7)">
                        <path d="M10.9992907,1.8803401 C11.43565,2.24359645 11.6594791,2.6605104 11.5601789,3.03110374 C11.3743438,3.72464956 10.1258661,3.99271722 8.77363287,3.63038742 L0.245478075,1.34527523 L0.526350628,0.29704459 L8.25360296,2.36755561 C9.53039655,2.70967142 10.7146885,2.48976611 10.9992907,1.8803401 Z" id="Combined-Shape"></path>
                    </g>
                </g>
                <g id="Group-3-Copy-10" transform="translate(48.846153, 56.741563) rotate(-300.000000) translate(-48.846153, -56.741563) translate(42.785547, 53.152606)">
                    <g id="Group-2" transform="translate(-0.000000, 0.000000)">
                        <path d="M7.4038283,-2.06384786 L7.4038283,6.76514765 C7.4038283,8.1660128 6.83420019,9.30163838 6.13118314,9.30163838 L6.13118314,9.30163838 C5.42832063,9.30163838 4.85853799,8.1650825 4.85853799,6.76514765 L4.85853799,-2.06384786" id="Rectangle-3-Copy-6" fill="#3B86A7" transform="translate(6.131183, 3.618895) rotate(-68.000000) translate(-6.131183, -3.618895) "></path>
                        <path d="M7.27700272,-2.82415042 L7.27700272,6.0048451 C7.27700272,7.40571024 6.70737462,8.54133582 6.00435757,8.54133582 L6.00435757,8.54133582 C5.30149505,8.54133582 4.73171241,7.40477994 4.73171241,6.0048451 L4.73171241,-2.82415042" id="Rectangle-3-Copy-2" fill="url(#linearGradient-6)" transform="translate(6.004358, 2.858593) rotate(-75.000000) translate(-6.004358, -2.858593) "></path>
                    </g>
                    <g id="Group-2-Copy-4" transform="translate(-0.000000, 1.473850)" fill="url(#linearGradient-7)">
                        <path d="M10.9992907,1.8803401 C11.43565,2.24359645 11.6594791,2.6605104 11.5601789,3.03110374 C11.3743438,3.72464956 10.1258661,3.99271722 8.77363287,3.63038742 L0.245478075,1.34527523 L0.526350628,0.29704459 L8.25360296,2.36755561 C9.53039655,2.70967142 10.7146885,2.48976611 10.9992907,1.8803401 Z" id="Combined-Shape"></path>
                    </g>
                </g>
                <g id="Group-3-Copy-9" transform="translate(47.391608, 49.563649) rotate(-300.000000) translate(-47.391608, -49.563649) translate(41.331001, 45.974692)">
                    <g id="Group-2" transform="translate(-0.000000, 0.000000)">
                        <path d="M7.4038283,-2.06384786 L7.4038283,6.76514765 C7.4038283,8.1660128 6.83420019,9.30163838 6.13118314,9.30163838 L6.13118314,9.30163838 C5.42832063,9.30163838 4.85853799,8.1650825 4.85853799,6.76514765 L4.85853799,-2.06384786" id="Rectangle-3-Copy-6" fill="#3B86A7" transform="translate(6.131183, 3.618895) rotate(-68.000000) translate(-6.131183, -3.618895) "></path>
                        <path d="M7.27700272,-2.82415042 L7.27700272,6.0048451 C7.27700272,7.40571024 6.70737462,8.54133582 6.00435757,8.54133582 L6.00435757,8.54133582 C5.30149505,8.54133582 4.73171241,7.40477994 4.73171241,6.0048451 L4.73171241,-2.82415042" id="Rectangle-3-Copy-2" fill="url(#linearGradient-6)" transform="translate(6.004358, 2.858593) rotate(-75.000000) translate(-6.004358, -2.858593) "></path>
                    </g>
                    <g id="Group-2-Copy-4" transform="translate(-0.000000, 1.473850)" fill="url(#linearGradient-7)">
                        <path d="M10.9992907,1.8803401 C11.43565,2.24359645 11.6594791,2.6605104 11.5601789,3.03110374 C11.3743438,3.72464956 10.1258661,3.99271722 8.77363287,3.63038742 L0.245478075,1.34527523 L0.526350628,0.29704459 L8.25360296,2.36755561 C9.53039655,2.70967142 10.7146885,2.48976611 10.9992907,1.8803401 Z" id="Combined-Shape"></path>
                    </g>
                </g>
                <g id="Group-3-Copy" transform="translate(46.906759, 42.385735) rotate(-300.000000) translate(-46.906759, -42.385735) translate(40.846153, 38.796778)">
                    <g id="Group-2" transform="translate(-0.000000, 0.000000)">
                        <path d="M7.4038283,-2.06384786 L7.4038283,6.76514765 C7.4038283,8.1660128 6.83420019,9.30163838 6.13118314,9.30163838 L6.13118314,9.30163838 C5.42832063,9.30163838 4.85853799,8.1650825 4.85853799,6.76514765 L4.85853799,-2.06384786" id="Rectangle-3-Copy-6" fill="#3B86A7" transform="translate(6.131183, 3.618895) rotate(-68.000000) translate(-6.131183, -3.618895) "></path>
                        <path d="M7.27700272,-2.82415042 L7.27700272,6.0048451 C7.27700272,7.40571024 6.70737462,8.54133582 6.00435757,8.54133582 L6.00435757,8.54133582 C5.30149505,8.54133582 4.73171241,7.40477994 4.73171241,6.0048451 L4.73171241,-2.82415042" id="Rectangle-3-Copy-2" fill="url(#linearGradient-6)" transform="translate(6.004358, 2.858593) rotate(-75.000000) translate(-6.004358, -2.858593) "></path>
                    </g>
                    <g id="Group-2-Copy-4" transform="translate(-0.000000, 1.473850)" fill="url(#linearGradient-7)">
                        <path d="M10.9992907,1.8803401 C11.43565,2.24359645 11.6594791,2.6605104 11.5601789,3.03110374 C11.3743438,3.72464956 10.1258661,3.99271722 8.77363287,3.63038742 L0.245478075,1.34527523 L0.526350628,0.29704459 L8.25360296,2.36755561 C9.53039655,2.70967142 10.7146885,2.48976611 10.9992907,1.8803401 Z" id="Combined-Shape"></path>
                    </g>
                </g>
                <g id="Group-3-Copy-7" transform="translate(57.088577, 42.385735) rotate(-300.000000) translate(-57.088577, -42.385735) translate(51.027971, 38.796778)">
                    <g id="Group-2" transform="translate(-0.000000, 0.000000)">
                        <path d="M7.4038283,-2.06384786 L7.4038283,6.76514765 C7.4038283,8.1660128 6.83420019,9.30163838 6.13118314,9.30163838 L6.13118314,9.30163838 C5.42832063,9.30163838 4.85853799,8.1650825 4.85853799,6.76514765 L4.85853799,-2.06384786" id="Rectangle-3-Copy-6" fill="#3B86A7" transform="translate(6.131183, 3.618895) rotate(-68.000000) translate(-6.131183, -3.618895) "></path>
                        <path d="M7.27700272,-2.82415042 L7.27700272,6.0048451 C7.27700272,7.40571024 6.70737462,8.54133582 6.00435757,8.54133582 L6.00435757,8.54133582 C5.30149505,8.54133582 4.73171241,7.40477994 4.73171241,6.0048451 L4.73171241,-2.82415042" id="Rectangle-3-Copy-2" fill="url(#linearGradient-6)" transform="translate(6.004358, 2.858593) rotate(-75.000000) translate(-6.004358, -2.858593) "></path>
                    </g>
                    <g id="Group-2-Copy-4" transform="translate(-0.000000, 1.473850)" fill="url(#linearGradient-7)">
                        <path d="M10.9992907,1.8803401 C11.43565,2.24359645 11.6594791,2.6605104 11.5601789,3.03110374 C11.3743438,3.72464956 10.1258661,3.99271722 8.77363287,3.63038742 L0.245478075,1.34527523 L0.526350628,0.29704459 L8.25360296,2.36755561 C9.53039655,2.70967142 10.7146885,2.48976611 10.9992907,1.8803401 Z" id="Combined-Shape"></path>
                    </g>
                </g>
                <g id="Group-9" transform="translate(37.818182, 12.441718)">
                    <rect id="Rectangle-3-Copy-9" fill="#59C2F1" transform="translate(2.994273, 3.816614) rotate(-15.000000) translate(-2.994273, -3.816614) " x="1.68708386" y="0.328176492" width="2.61437908" height="6.97687588" rx="1.30718954"></rect>
                    <path d="M3.46641977,0.946008432 C3.0609683,0.300782042 2.26951405,-0.0359516605 1.49611362,0.171280359 C0.53895246,0.427750919 -0.0180478925,1.40473042 0.237216807,2.35739124 L1.28418707,6.26473744 C1.47384853,6.97256365 2.06353524,7.4675966 2.74443864,7.56987117 C2.6515771,7.4220934 2.57896367,7.25813337 2.53145272,7.08082009 L1.48448246,3.1734739 C1.22921776,2.22081307 1.78621812,1.24383357 2.74337928,0.987363012 C2.9868038,0.922137607 3.23201683,0.910800117 3.46641977,0.946008432 Z" id="Combined-Shape-Copy-6" fill="url(#linearGradient-8)"></path>
                </g>
            </g>
            <g id="Group-51" transform="translate(0.000000, 98.000000)">
                <g id="Group-21">
                    <g id="Group-16-Copy">
                        <path d="M184.697085,41.9997492 C189.329164,34.215602 197.826718,29 207.545343,29 C222.218624,29 234.113669,40.8920778 234.113669,55.566747 L234.113669,85.8988248 C234.113669,92.3473899 231.816613,98.2593351 227.995656,102.86073 L227.995656,62.6391688 C227.995656,47.9695145 216.100611,36.0733535 201.427329,36.0733535 C195.085786,36.0733535 189.264145,38.2939492 184.697085,41.9997492 Z" id="Combined-Shape-Copy-2" fill="#FEE65F"></path>
                        <g id="Group-15">
                            <path d="M233.218274,176.233524 L233.218274,55.0576602 C233.218274,40.6565963 221.552678,29 207.162437,29 C192.769031,29 181.106599,40.6664119 181.106599,55.0576602 L181.106599,98.1851788 C174.926256,96.444688 168.40677,95.5136187 161.669811,95.5136187 L154.721052,95.5136187 C115.200099,95.5136187 83.1725888,127.546774 83.1725888,167.061673 L83.1725888,188.451946 C83.1725888,227.968233 115.205927,260 154.721052,260 L161.669811,260 C201.190764,260 233.218274,227.966845 233.218274,188.451946 L233.218274,176.233524 Z" id="Combined-Shape" fill="#FFD900"></path>
                            <g id="Group-14-Copy" transform="translate(0.862944, 0.354086)">
                                <g id="Group-18-Copy" filter="url(#filter-9)" transform="translate(0.000000, 0.645914)">
                                    <g id="Group-17">
                                        <rect id="Rectangle-32" fill="#FAFAFA" x="0" y="0" width="530.631308" height="57.5" rx="28.75"></rect>
                                        <rect id="Rectangle-32-Copy" fill="#36C1FF" x="0" y="0" width="383.181546" height="57.5" rx="28.75"></rect>
                                    </g>
                                </g>
                                <ellipse id="Oval-4" fill="#20292C" cx="152.840102" cy="147.741245" rx="5.84010152" ry="5.84241245"></ellipse>
                                <ellipse id="Oval-4-Copy-2" fill="#20292C" cx="192.373096" cy="146.842412" rx="5.84010152" ry="5.84241245"></ellipse>
                            </g>
                        </g>
                        <path d="M84.0998235,47.0532914 C87.6493361,36.5562327 97.5770818,29 109.273439,29 C123.946721,29 135.841766,40.8954944 135.841766,55.5734301 L135.841766,120.42657 C135.841766,126.876757 133.54471,132.79019 129.723753,137.392742 L129.723753,65.5682897 C129.723753,50.9015249 117.828708,39 103.155426,39 C95.6799576,39 88.9269396,42.0860067 84.0998235,47.0532914 Z" id="Combined-Shape" fill="#FEE65F"></path>
                        <g id="Group-14" transform="translate(61.000000, 49.000000)">
                            <circle id="Oval-8" fill="#FFD900" cx="18" cy="18" r="18"></circle>
                            <path d="M30,31.2689587 C26.813803,34.2059921 22.5573091,36 17.8816841,36 C8.00590267,36 0,27.9963525 0,18.1233531 C0,10.0410809 5.36511479,3.21154544 12.7291429,1 C9.18550483,4.26652222 6.96577468,8.94691407 6.96577468,14.1456056 C6.96577468,24.0186051 14.9716773,32.0222526 24.8474588,32.0222526 C26.6386907,32.0222526 28.3684085,31.7589539 30,31.2689587 Z" id="Combined-Shape" fill="#FFE75F"></path>
                        </g>
                        <g id="Group-14-Copy-3" transform="translate(233.000000, 62.500000) scale(-1, 1) translate(-233.000000, -62.500000) translate(215.000000, 44.000000)">
                            <ellipse id="Oval-8" fill="#FFD900" cx="17.9695431" cy="17.9766537" rx="17.9695431" ry="17.9766537"></ellipse>
                            <path d="M30.1474006,31.4382914 C26.9455488,34.3917553 22.6681412,36.1957994 17.9695431,36.1957994 C8.04523851,36.1957994 0,28.1473774 0,18.2191457 C0,10.0916591 5.39147551,3.22391742 12.7916857,1 C9.23063647,4.28479602 7,8.99137124 7,14.2191457 C7,24.1473774 15.0452385,32.1957994 24.9695431,32.1957994 C26.769576,32.1957994 28.5077926,31.9310278 30.1474006,31.4382914 Z" id="Combined-Shape" fill="#FFE75F"></path>
                        </g>
                        <g id="Group-14-Copy-2" transform="translate(63.000000, 76.000000)">
                            <ellipse id="Oval-8" fill="#FFD900" cx="17.9695431" cy="17.9766537" rx="17.9695431" ry="17.9766537"></ellipse>
                            <path d="M30.1474006,31.4382914 C26.9455488,34.3917553 22.6681412,36.1957994 17.9695431,36.1957994 C8.04523851,36.1957994 0,28.1473774 0,18.2191457 C0,10.0916591 5.39147551,3.22391742 12.7916857,1 C9.23063647,4.28479602 7,8.99137124 7,14.2191457 C7,24.1473774 15.0452385,32.1957994 24.9695431,32.1957994 C26.769576,32.1957994 28.5077926,31.9310278 30.1474006,31.4382914 Z" id="Combined-Shape" fill="#FFE75F"></path>
                        </g>
                        <g id="Group-14-Copy-4" transform="translate(235.000000, 89.500000) scale(-1, 1) translate(-235.000000, -89.500000) translate(217.000000, 71.000000)">
                            <ellipse id="Oval-8" fill="#FFD900" cx="17.9695431" cy="17.9766537" rx="17.9695431" ry="17.9766537"></ellipse>
                            <path d="M30.1474006,31.4382914 C26.9455488,34.3917553 22.6681412,36.1957994 17.9695431,36.1957994 C8.04523851,36.1957994 0,28.1473774 0,18.2191457 C0,10.0916591 5.39147551,3.22391742 12.7916857,1 C9.23063647,4.28479602 7,8.99137124 7,14.2191457 C7,24.1473774 15.0452385,32.1957994 24.9695431,32.1957994 C26.769576,32.1957994 28.5077926,31.9310278 30.1474006,31.4382914 Z" id="Combined-Shape" fill="#FFE75F"></path>
                        </g>
                    </g>
                    <g id="Group-16" transform="translate(164.000000, 167.000000)">
                        <mask id="mask-11" fill="white">
                            <use xlink:href="#path-10"></use>
                        </mask>
                        <use id="Mask" fill="#20292C" xlink:href="#path-10"></use>
                        <ellipse id="Oval-5" fill="#FF7C7C" mask="url(#mask-11)" cx="17.5" cy="47.5" rx="26.5" ry="16.5"></ellipse>
                        <g id="Group-11" mask="url(#mask-11)">
                            <g transform="translate(1.000000, -2.000000)">
                                <rect id="Rectangle-2" fill="#FFFFFF" x="0" y="0" width="6" height="9" rx="3"></rect>
                                <path d="M1.43748108,0.438988423 C0.57614548,0.965643882 0,1.91421228 0,2.99686968 L0,6.00313032 C0,7.65260907 1.34314575,9 3,9 C4.08346859,9 5.03513481,8.42389322 5.56251892,7.56101158 C5.10707745,7.83948693 4.57189991,8 4,8 C2.34314575,8 1,6.65260907 1,5.00313032 L1,1.99686968 C1,1.42628914 1.16002358,0.892951631 1.43748108,0.438988423 Z" id="Combined-Shape" fill="#E3E3E3"></path>
                            </g>
                        </g>
                        <g id="Group-11-Copy" mask="url(#mask-11)">
                            <g transform="translate(9.000000, -3.000000)">
                                <rect id="Rectangle-2" fill="#FFFFFF" x="0" y="0" width="6" height="9" rx="3"></rect>
                                <path d="M1.43748108,0.438988423 C0.57614548,0.965643882 0,1.91421228 0,2.99686968 L0,6.00313032 C0,7.65260907 1.34314575,9 3,9 C4.08346859,9 5.03513481,8.42389322 5.56251892,7.56101158 C5.10707745,7.83948693 4.57189991,8 4,8 C2.34314575,8 1,6.65260907 1,5.00313032 L1,1.99686968 C1,1.42628914 1.16002358,0.892951631 1.43748108,0.438988423 Z" id="Combined-Shape" fill="#E3E3E3"></path>
                            </g>
                        </g>
                        <g id="Group-11-Copy-2" mask="url(#mask-11)">
                            <g transform="translate(17.000000, -3.000000)">
                                <rect id="Rectangle-2" fill="#FFFFFF" x="0" y="0" width="6" height="9" rx="3"></rect>
                                <path d="M1.43748108,0.438988423 C0.57614548,0.965643882 0,1.91421228 0,2.99686968 L0,6.00313032 C0,7.65260907 1.34314575,9 3,9 C4.08346859,9 5.03513481,8.42389322 5.56251892,7.56101158 C5.10707745,7.83948693 4.57189991,8 4,8 C2.34314575,8 1,6.65260907 1,5.00313032 L1,1.99686968 C1,1.42628914 1.16002358,0.892951631 1.43748108,0.438988423 Z" id="Combined-Shape" fill="#E3E3E3"></path>
                            </g>
                        </g>
                        <g id="Group-11-Copy-3" mask="url(#mask-11)">
                            <g transform="translate(26.000000, -3.000000)">
                                <rect id="Rectangle-2" fill="#FFFFFF" x="0" y="0" width="6" height="9" rx="3"></rect>
                                <path d="M1.43748108,0.438988423 C0.57614548,0.965643882 0,1.91421228 0,2.99686968 L0,6.00313032 C0,7.65260907 1.34314575,9 3,9 C4.08346859,9 5.03513481,8.42389322 5.56251892,7.56101158 C5.10707745,7.83948693 4.57189991,8 4,8 C2.34314575,8 1,6.65260907 1,5.00313032 L1,1.99686968 C1,1.42628914 1.16002358,0.892951631 1.43748108,0.438988423 Z" id="Combined-Shape" fill="#E3E3E3"></path>
                            </g>
                        </g>
                    </g>
                </g>
                <rect id="Rectangle-4" fill="#FFD900" x="83.1725888" y="29" width="52.1116751" height="182.463035" rx="26.0558376"></rect>
                <g id="Group-25" transform="translate(345.000000, 70.000000)" font-size="32.5" font-family="Quicksand-Bold, Quicksand" fill="#31393F" font-weight="bold">
                    <text id="Daily-Goal">
                        <tspan x="0" y="31">Daily Goal</tspan>
                    </text>
                </g>
            </g>
        </g>
    </g>
</svg>