<?xml version="1.0" encoding="UTF-8"?>
<svg width="499px" height="484px" viewBox="0 0 499 484" version="1.1" xmlns="http://www.w3.org/2000/svg" xmlns:xlink="http://www.w3.org/1999/xlink">
    <!-- Generator: Sketch 41.2 (35397) - http://www.bohemiancoding.com/sketch -->
    <title>Group 40</title>
    <desc>Created with Sketch.</desc>
    <defs>
        <path d="M62.25,178.5 C72.6053391,178.5 81,170.105339 81,159.75 C81,149.394661 84,141 62.25,141 C40.5,141 43.5,149.394661 43.5,159.75 C43.5,170.105339 51.8946609,178.5 62.25,178.5 Z" id="path-1"></path>
        <path d="M170,304 C263.888407,304 340,278.256373 340,246.5 C340,214.743627 263.888407,189 170,189 C76.1115925,189 0,214.743627 0,246.5 C0,278.256373 76.1115925,304 170,304 Z" id="path-3"></path>
        <filter x="-50%" y="-50%" width="200%" height="200%" filterUnits="objectBoundingBox" id="filter-4">
            <feOffset dx="0" dy="5" in="SourceAlpha" result="shadowOffsetInner1"></feOffset>
            <feComposite in="shadowOffsetInner1" in2="SourceAlpha" operator="arithmetic" k2="-1" k3="1" result="shadowInnerInner1"></feComposite>
            <feColorMatrix values="0 0 0 0 0.435905612   0 0 0 0 0.435905612   0 0 0 0 0.435905612  0 0 0 0.5 0" type="matrix" in="shadowInnerInner1"></feColorMatrix>
        </filter>
        <path d="M181,141.475518 C181,140.371601 181.900346,139.439401 183.007461,139.393537 L213.992539,138.109931 C215.101229,138.064002 216,138.922399 216,140.02772 L216,157.501386 C216,167.165604 208.167108,175 198.5,175 L198.5,175 C188.835017,175 181,167.160284 181,157.498522 L181,141.475518 Z" id="path-5"></path>
        <linearGradient x1="37.0590477%" y1="1.70370869%" x2="37.0590478%" y2="84.5704277%" id="linearGradient-7">
            <stop stop-color="#84D7FB" offset="0%"></stop>
            <stop stop-color="#6BC5ED" offset="100%"></stop>
        </linearGradient>
        <linearGradient x1="50%" y1="0%" x2="50%" y2="100%" id="linearGradient-8">
            <stop stop-color="#82D6FB" offset="0%"></stop>
            <stop stop-color="#94DEFF" offset="100%"></stop>
        </linearGradient>
        <linearGradient x1="50%" y1="0%" x2="50%" y2="100%" id="linearGradient-9">
            <stop stop-color="#59C2F1" offset="0%"></stop>
            <stop stop-color="#94DEFF" offset="100%"></stop>
        </linearGradient>
        <linearGradient x1="0%" y1="31.68506%" x2="98.2962913%" y2="62.9409523%" id="linearGradient-10">
            <stop stop-color="#59C2F1" offset="0%"></stop>
            <stop stop-color="#7BD2F9" offset="100%"></stop>
        </linearGradient>
        <path d="M0,3.81297563 C0,2.37769444 1.16866093,1.16646684 2.59870522,1.10809541 L28.6689004,0.0439643431 C30.1041257,-0.0146185627 31.2676056,1.09618804 31.2676056,2.54617862 L31.2676056,16.8538849 C31.2676056,25.4856031 24.2700121,32.4829932 15.6338028,32.4829932 L15.6338028,32.4829932 C6.99949194,32.4829932 0,25.485127 0,16.8485812 L0,3.81297563 Z" id="path-11"></path>
        <linearGradient x1="37.0590477%" y1="1.70370869%" x2="62.9409523%" y2="98.2962913%" id="linearGradient-13">
            <stop stop-color="#67C2EB" offset="0%"></stop>
            <stop stop-color="#89D9FD" offset="100%"></stop>
        </linearGradient>
        <path d="M0,2.93459381 C0,1.82995331 0.897026226,0.897751963 2.00494659,0.852407242 L21.9950534,0.0342565447 C23.1023548,-0.0110628446 24,0.843663047 24,1.95962438 L24,13.0079782 C24,19.630989 18.6288742,25 12,25 L12,25 C5.372583,25 0,19.6291778 0,13.0024848 L0,2.93459381 Z" id="path-14"></path>
    </defs>
    <g id="Logo" stroke="none" stroke-width="1" fill="none" fill-rule="evenodd">
        <g id="Group-40" transform="translate(8.000000, 0.000000)">
            <path d="M49.2001565,251.142857 C49.2001565,251.142857 6.20719875,226.455782 0.995931142,193.972789 C-4.21533646,161.489796 12.7212833,142 12.7212833,142" id="Path" stroke="#D6DD00" stroke-width="15.6" stroke-linecap="round" transform="translate(24.600078, 196.571429) scale(1, -1) translate(-24.600078, -196.571429) "></path>
            <g id="Group-16" transform="translate(147.000000, 0.000000)">
                <g id="Group-15" transform="translate(11.000000, 0.000000)">
                    <path d="M26.142132,34.7387421 L26.142132,13.0305306 C26.142132,5.83604882 20.3093341,0 13.1142132,0 C5.91751032,0 0.0862944162,5.83396728 0.0862944162,13.0305306 L0.0862944162,73.8877655 L0.0862944162,80.2211756 C0.0862944162,99.9761002 16.1060357,116 35.867388,116 L39.3280435,116 C59.0838864,116 75.1091371,99.9812747 75.1091371,80.2211756 L75.1091371,73.8877655 L75.1091371,13.0305306 C75.1091371,5.83604882 69.2763391,0 62.0812183,0 C54.8845154,0 49.0532995,5.83396728 49.0532995,13.0305306 L49.0532995,34.7385701 C45.9610522,33.8670481 42.6989853,33.4007782 39.3280435,33.4007782 L35.867388,33.4007782 C32.4966813,33.4007782 29.2345743,33.8670925 26.142132,34.7387421 Z" id="Combined-Shape" fill="#FFD900"></path>
                    <g id="Group-14-Copy" transform="translate(32.431472, 56.420233)">
                        <ellipse id="Oval-4" fill="#20292C" cx="2.92005076" cy="3.38521401" rx="2.92005076" ry="2.93385214"></ellipse>
                        <ellipse id="Oval-4-Copy-2" fill="#20292C" cx="22.6865482" cy="2.93385214" rx="2.92005076" ry="2.93385214"></ellipse>
                        <path d="M7.18781726,21.6653696 C7.18781726,21.6653696 6.81929442,37.0116732 15.2741117,37.0116732 C23.7289289,37.0116732 23.3604061,21.6653696 23.3604061,21.6653696" id="Path-3" stroke="#20292C" stroke-width="4.05000016" stroke-linecap="round"></path>
                    </g>
                </g>
                <path d="M11.5378076,9.05777296 C13.3020099,3.7933585 18.2751909,0 24.1367197,0 C31.4733605,0 37.4208829,5.95294024 37.4208829,13.2796203 L37.4208829,45.975791 C37.4208829,49.1991625 36.2723549,52.1542999 34.3618763,54.4543473 L34.3618763,18.2959573 C34.3618763,10.9629141 28.4143539,5.02164502 21.0777131,5.02164502 C17.3337263,5.02164502 13.9521743,6.5686691 11.5378076,9.05777296 Z" id="Combined-Shape" fill="#FEE65F"></path>
                <path d="M61.8328062,6.52987264 C64.1453032,2.6210475 68.4023326,0 73.2726713,0 C80.6093121,0 86.5568345,5.93845442 86.5568345,13.2904639 L86.5568345,28.6229835 C86.5568345,31.8489871 85.4083065,34.8065375 83.4978279,37.108463 L83.4978279,16.843372 C83.4978279,9.50414928 77.5503054,3.55198706 70.2136647,3.55198706 C67.0356051,3.55198706 64.1186927,4.66810665 61.8328062,6.52987264 Z" id="Combined-Shape-Copy-2" fill="#FEE65F"></path>
                <g id="Group-14" transform="translate(0.000000, 10.043290)">
                    <ellipse id="Oval-8" fill="#FFD900" cx="8.98477157" cy="9.02723735" rx="8.98477157" ry="9.02723735"></ellipse>
                    <path d="M15.0737003,15.7871939 C13.4727744,17.2703187 11.3340706,18.1762456 8.98477157,18.1762456 C4.02261925,18.1762456 0,14.1346137 0,9.14900822 C0,5.06767298 2.69573775,1.61893689 6.39584283,0.502164502 C4.61531824,2.15167246 3.5,4.51514746 3.5,7.14035021 C3.5,12.1259557 7.52261925,16.1675876 12.4847716,16.1675876 C13.384788,16.1675876 14.2538963,16.0346287 15.0737003,15.7871939 Z" id="Combined-Shape" fill="#FFE75F"></path>
                </g>
                <g id="Group-14-Copy-3" transform="translate(86.000000, 17.032468) scale(-1, 1) translate(-86.000000, -17.032468) translate(77.000000, 7.532468)">
                    <ellipse id="Oval-8" fill="#FFD900" cx="8.98477157" cy="9.02723735" rx="8.98477157" ry="9.02723735"></ellipse>
                    <path d="M15.0737003,15.7871939 C13.4727744,17.2703187 11.3340706,18.1762456 8.98477157,18.1762456 C4.02261925,18.1762456 0,14.1346137 0,9.14900822 C0,5.06767298 2.69573775,1.61893689 6.39584283,0.502164502 C4.61531824,2.15167246 3.5,4.51514746 3.5,7.14035021 C3.5,12.1259557 7.52261925,16.1675876 12.4847716,16.1675876 C13.384788,16.1675876 14.2538963,16.0346287 15.0737003,15.7871939 Z" id="Combined-Shape" fill="#FFE75F"></path>
                </g>
                <g id="Group-14-Copy-2" transform="translate(1.000000, 23.601732)">
                    <ellipse id="Oval-8" fill="#FFD900" cx="8.98477157" cy="9.02723735" rx="8.98477157" ry="9.02723735"></ellipse>
                    <path d="M15.0737003,15.7871939 C13.4727744,17.2703187 11.3340706,18.1762456 8.98477157,18.1762456 C4.02261925,18.1762456 0,14.1346137 0,9.14900822 C0,5.06767298 2.69573775,1.61893689 6.39584283,0.502164502 C4.61531824,2.15167246 3.5,4.51514746 3.5,7.14035021 C3.5,12.1259557 7.52261925,16.1675876 12.4847716,16.1675876 C13.384788,16.1675876 14.2538963,16.0346287 15.0737003,15.7871939 Z" id="Combined-Shape" fill="#FFE75F"></path>
                </g>
                <g id="Group-14-Copy-4" transform="translate(87.000000, 30.590909) scale(-1, 1) translate(-87.000000, -30.590909) translate(78.000000, 21.090909)">
                    <ellipse id="Oval-8" fill="#FFD900" cx="8.98477157" cy="9.02723735" rx="8.98477157" ry="9.02723735"></ellipse>
                    <path d="M15.0737003,15.7871939 C13.4727744,17.2703187 11.3340706,18.1762456 8.98477157,18.1762456 C4.02261925,18.1762456 0,14.1346137 0,9.14900822 C0,5.06767298 2.69573775,1.61893689 6.39584283,0.502164502 C4.61531824,2.15167246 3.5,4.51514746 3.5,7.14035021 C3.5,12.1259557 7.52261925,16.1675876 12.4847716,16.1675876 C13.384788,16.1675876 14.2538963,16.0346287 15.0737003,15.7871939 Z" id="Combined-Shape" fill="#FFE75F"></path>
                </g>
            </g>
            <g id="Group-38" transform="translate(4.000000, 51.000000)">
                <path d="M116.040887,64.9509259 C143.230525,78.0172305 162,105.816692 162,138 C162,182.735065 125.735065,219 81,219 C36.2649353,219 0,182.735065 0,138 C0,113.632442 10.7600618,91.778032 27.7880232,76.9289309 C22.5520357,69.0775075 19.5,59.6451743 19.5,49.5 C19.5,22.1619049 41.6619049,0 69,0 C96.3380951,0 118.5,22.1619049 118.5,49.5 C118.5,54.8954519 117.636771,60.0892858 116.040887,64.9509259 Z" id="Combined-Shape" fill="#D6DD00"></path>
                <ellipse id="Oval-4" fill="#20292C" cx="38.8800761" cy="107.077821" rx="4.38007614" ry="4.40077821"></ellipse>
                <ellipse id="Oval-4-Copy-2" fill="#20292C" cx="98.5298223" cy="106.400778" rx="4.38007614" ry="4.40077821"></ellipse>
                <mask id="mask-2" fill="white">
                    <use xlink:href="#path-1"></use>
                </mask>
                <use id="Mask" fill="#24191F" xlink:href="#path-1"></use>
                <path d="M47.9922166,165 C48.8871528,156 59.6263874,156.789582 67.6808133,164 C75.7352393,171.210418 73.0504306,184 73.0504306,184 L58.7314512,184 C58.7314512,184 61.9604007,180.712701 58.7314512,175 C55.5025017,169.287299 47.0972804,174 47.9922166,165 Z" id="tongue" fill="#FF7C7C" mask="url(#mask-2)"></path>
                <g id="Group-11" mask="url(#mask-2)">
                    <g transform="translate(51.000000, 139.500000)">
                        <rect id="Rectangle-2" fill="#FFFFFF" x="0" y="0" width="6" height="9" rx="3"></rect>
                        <path d="M1.43748108,0.438988423 C0.57614548,0.965643882 0,1.91421228 0,2.99686968 L0,6.00313032 C0,7.65260907 1.34314575,9 3,9 C4.08346859,9 5.03513481,8.42389322 5.56251892,7.56101158 C5.10707745,7.83948693 4.57189991,8 4,8 C2.34314575,8 1,6.65260907 1,5.00313032 L1,1.99686968 C1,1.42628914 1.16002358,0.892951631 1.43748108,0.438988423 Z" id="Combined-Shape" fill="#E3E3E3"></path>
                    </g>
                </g>
                <g id="Group-11-Copy-4" mask="url(#mask-2)">
                    <g transform="translate(67.500000, 139.500000)">
                        <rect id="Rectangle-2" fill="#FFFFFF" x="0" y="0" width="6" height="9" rx="3"></rect>
                        <path d="M1.43748108,0.438988423 C0.57614548,0.965643882 0,1.91421228 0,2.99686968 L0,6.00313032 C0,7.65260907 1.34314575,9 3,9 C4.08346859,9 5.03513481,8.42389322 5.56251892,7.56101158 C5.10707745,7.83948693 4.57189991,8 4,8 C2.34314575,8 1,6.65260907 1,5.00313032 L1,1.99686968 C1,1.42628914 1.16002358,0.892951631 1.43748108,0.438988423 Z" id="Combined-Shape" fill="#E3E3E3"></path>
                    </g>
                </g>
                <g id="Group-11-Copy-5" mask="url(#mask-2)">
                    <g transform="translate(64.500000, 178.500000) scale(1, -1) translate(-64.500000, -178.500000) translate(61.500000, 174.000000)">
                        <rect id="Rectangle-2" fill="#FFFFFF" x="0" y="0" width="6" height="9" rx="3"></rect>
                        <path d="M1.43748108,0.438988423 C0.57614548,0.965643882 0,1.91421228 0,2.99686968 L0,6.00313032 C0,7.65260907 1.34314575,9 3,9 C4.08346859,9 5.03513481,8.42389322 5.56251892,7.56101158 C5.10707745,7.83948693 4.57189991,8 4,8 C2.34314575,8 1,6.65260907 1,5.00313032 L1,1.99686968 C1,1.42628914 1.16002358,0.892951631 1.43748108,0.438988423 Z" id="Combined-Shape" fill="#E3E3E3"></path>
                    </g>
                </g>
                <path d="M73.5,98.6400504 C71.5332081,98.8776956 69.5308869,99 67.5,99 C40.1619049,99 18,76.8380951 18,49.5 C18,22.1619049 40.1619049,0 67.5,0 C69.5308869,0 71.5332081,0.122304399 73.5,0.359949557 C48.991491,3.32128403 30,24.1927918 30,49.5 C30,74.8072082 48.991491,95.678716 73.5,98.6400504 Z" id="Combined-Shape" fill="#EFF373"></path>
                <g id="Group-39" transform="translate(122.000000, 66.000000)">
                    <circle id="Oval" fill="#D6DD00" cx="12.75" cy="13.25" r="12.75"></circle>
                    <path d="M15,25.8021003 C14.269629,25.9321433 13.5177389,26 12.75,26 C5.70836944,26 0,20.2916306 0,13.25 C0,6.20836944 5.70836944,0.5 12.75,0.5 C13.5177389,0.5 14.269629,0.567856693 15,0.69789973 C9.03147544,1.76059947 4.5,6.97610834 4.5,13.25 C4.5,19.5238917 9.03147544,24.7394005 15,25.8021003 Z" id="Combined-Shape" fill="#EEF273"></path>
                </g>
            </g>
            <g id="Group-7-Copy-5" transform="translate(42.000000, 146.000000)">
                <circle id="Oval-7" fill="#65C7F4" cx="188" cy="178" r="8"></circle>
                <g id="Group-Copy" transform="translate(0.000000, 34.000000)">
                    <g id="Oval-3">
                        <use fill="#1F282C" fill-rule="evenodd" xlink:href="#path-3"></use>
                        <use fill="black" fill-opacity="1" filter="url(#filter-4)" xlink:href="#path-3"></use>
                    </g>
                    <path d="M277.9563,244 L278,244 C278,244 291,243 291,225 C291,207 278,207.864081 278,207.864081 C278,207.864081 294,207.864081 294,188 C294,168.135919 278,167 278,167 C278,167 294,167 294,145 C294,123 278,123.335201 278,123.335201 L278,121.992124 C278,54.6127708 223.378665,0 155.999835,0 L169.000165,0 C101.615741,0 47,54.6212605 47,122 L47,244 L47.0437001,244 C48.7429708,263.41989 99.7840356,279 162.5,279 C225.215964,279 276.257029,263.41989 277.9563,244 Z" id="Combined-Shape" fill="#59C2F1"></path>
                    <circle id="Oval-4" fill="#20292C" cx="148.5" cy="121.5" r="6.5"></circle>
                    <ellipse id="Oval-4-Copy" fill="#20292C" cx="235.5" cy="115.5" rx="6.5" ry="6.5"></ellipse>
                    <mask id="mask-6" fill="white">
                        <use xlink:href="#path-5"></use>
                    </mask>
                    <use id="Mask" fill="#20292C" xlink:href="#path-5"></use>
                </g>
                <g id="Group-10" transform="translate(178.000000, 0.000000)">
                    <rect id="Rectangle-3-Copy" fill="#59C2F1" transform="translate(16.906192, 29.634114) rotate(-345.000000) translate(-16.906192, -29.634114) " x="6.90619153" y="1.63411359" width="20" height="56" rx="10"></rect>
                    <path d="M31.4614749,11.0021918 C31.4599032,6.58541999 28.514301,2.54670183 24.0484988,1.35009374 C18.7126648,-0.0796386699 13.2295814,3.08981027 11.7990693,8.42855409 L2.2063773,44.2289679 C1.23819486,47.8422739 2.37414827,51.5217857 4.86248819,53.9665389 C4.8621824,53.1072193 4.97331679,52.2335893 5.2063773,51.3637957 L14.7990693,15.5633819 C16.2295814,10.2246381 21.7126648,7.05518912 27.0484988,8.48492152 C28.7737372,8.94719776 30.2720936,9.83364421 31.4614749,11.0021918 Z" id="Combined-Shape-Copy-4" fill="url(#linearGradient-7)"></path>
                </g>
                <path d="M249.939126,78.2759745 C228.988115,50.6573109 196.967623,33 161.084361,33 C101.4349,33 46.8059997,87.6212605 46.8059997,155 C46.8059997,155 30,153 30,179 C30,205 46.8059997,205 46.8059997,205 C46.8059997,205 30,205 30,225 C30,245 46.8059997,245 46.8059997,245 C46.8059997,245 31.9932383,245 31.9932383,261 C31.9932383,277 46.8059997,277 46.8059997,277 L46.9425256,277 C46.9425256,286.693064 59.2019682,295.491384 79.1400362,301.963539 L79.1400362,179.212102 C79.1400362,115.582215 130.723776,64 194.346754,64 C214.506007,64 233.455915,69.1776723 249.939126,78.2759745 Z" id="Combined-Shape-Copy-5" fill="url(#linearGradient-8)"></path>
                <g id="Group-3-Copy" transform="translate(139.130833, 228.900635) rotate(196.000000) translate(-139.130833, -228.900635) translate(114.130833, 210.400635)">
                    <g id="Group-2" transform="translate(-0.000000, -0.000000)">
                        <path d="M35.3180725,-4.00700514 L35.3180725,30.9501265 C35.3180725,36.4966495 30.8421343,40.9929949 25.3180725,40.9929949 L25.3180725,40.9929949 C19.795225,40.9929949 15.3180725,36.4929661 15.3180725,30.9501265 L15.3180725,-4.00700514" id="Rectangle-3-Copy-6" fill="#3B86A7" transform="translate(25.318073, 18.492995) rotate(-68.000000) translate(-25.318073, -18.492995) "></path>
                        <path d="M34.3215215,-7.01731322 L34.3215215,27.9398184 C34.3215215,33.4863414 29.8455834,37.9826868 24.3215215,37.9826868 L24.3215215,37.9826868 C18.798674,37.9826868 14.3215215,33.4826581 14.3215215,27.9398184 L14.3215215,-7.01731322" id="Rectangle-3-Copy-2" fill="url(#linearGradient-9)" transform="translate(24.321522, 15.482687) rotate(-75.000000) translate(-24.321522, -15.482687) "></path>
                    </g>
                    <g id="Group-2-Copy-4" transform="translate(-0.000000, 10.000000)" fill="url(#linearGradient-10)">
                        <path d="M42.1892504,0.688604056 C45.8682406,2.97605782 47.7765383,7.53216615 46.5790597,12.0012171 C45.118833,17.4508573 39.5883915,20.7039704 34.2344195,19.2693779 L0.468423249,10.2218065 L1.44469889,6.5782962 L30.1482066,14.2693779 C35.5021786,15.7039704 41.0326202,12.4508573 42.4928468,7.00121715 C43.0753671,4.82722179 42.9229392,2.63262525 42.1892504,0.688604056 Z" id="Combined-Shape"></path>
                    </g>
                </g>
                <g id="Group-4-Copy" transform="translate(148.130833, 269.900635) rotate(-165.000000) translate(-148.130833, -269.900635) translate(123.130833, 251.400635)">
                    <g id="Group-2-Copy" transform="translate(-0.000000, 0.000000)">
                        <path d="M35.3180725,-4.00700514 L35.3180725,30.9501265 C35.3180725,36.4966495 30.8421343,40.9929949 25.3180725,40.9929949 L25.3180725,40.9929949 C19.795225,40.9929949 15.3180725,36.4929661 15.3180725,30.9501265 L15.3180725,-4.00700514" id="Rectangle-3-Copy-6" fill="#3B86A7" transform="translate(25.318073, 18.492995) rotate(-68.000000) translate(-25.318073, -18.492995) "></path>
                        <path d="M34.3215215,-7.01731322 L34.3215215,27.9398184 C34.3215215,33.4863414 29.8455834,37.9826868 24.3215215,37.9826868 L24.3215215,37.9826868 C18.798674,37.9826868 14.3215215,33.4826581 14.3215215,27.9398184 L14.3215215,-7.01731322" id="Rectangle-3-Copy-2" fill="url(#linearGradient-9)" transform="translate(24.321522, 15.482687) rotate(-75.000000) translate(-24.321522, -15.482687) "></path>
                    </g>
                    <path d="M42.1892504,10.6886041 C45.8682406,12.9760578 47.7765383,17.5321662 46.5790597,22.0012171 C45.118833,27.4508573 39.5883915,30.7039704 34.2344195,29.2693779 L0.468423249,20.2218065 L1.44469889,16.5782962 L30.1482066,24.2693779 C35.5021786,25.7039704 41.0326202,22.4508573 42.4928468,17.0012171 C43.0753671,14.8272218 42.9229392,12.6326252 42.1892504,10.6886041 Z" id="Combined-Shape-Copy" fill="url(#linearGradient-10)"></path>
                </g>
                <g id="Group-5-Copy" transform="translate(252.630833, 257.400635) rotate(-60.000000) translate(-252.630833, -257.400635) translate(228.130833, 239.400635)">
                    <g id="Group-2-Copy-3" transform="translate(-0.000000, 0.000000)">
                        <path d="M29.5760824,-0.133983919 L29.5760824,33.2633256 C29.5760824,38.5623573 26.6667226,42.8580712 23.0760824,42.8580712 L23.0760824,42.8580712 C19.4862315,42.8580712 16.5760824,38.5588383 16.5760824,33.2633256 L16.5760824,-0.133983919" id="Rectangle-3-Copy-6" fill="#3B86A7" transform="translate(23.076082, 21.362044) rotate(-68.000000) translate(-23.076082, -21.362044) "></path>
                        <path d="M34.3215215,-7.01731322 L34.3215215,27.9398184 C34.3215215,33.4863414 29.8455834,37.9826868 24.3215215,37.9826868 L24.3215215,37.9826868 C18.798674,37.9826868 14.3215215,33.4826581 14.3215215,27.9398184 L14.3215215,-7.01731322" id="Rectangle-3-Copy-2" fill="url(#linearGradient-9)" transform="translate(24.321522, 15.482687) rotate(-75.000000) translate(-24.321522, -15.482687) "></path>
                    </g>
                    <path d="M42.1892504,10.6886041 C45.8682406,12.9760578 47.7765383,17.5321662 46.5790597,22.0012171 C45.118833,27.4508573 39.5883915,30.7039704 34.2344195,29.2693779 L0.468423249,20.2218065 L1.44469889,16.5782962 L30.1482066,24.2693779 C35.5021786,25.7039704 41.0326202,22.4508573 42.4928468,17.0012171 C43.0753671,14.8272218 42.9229392,12.6326252 42.1892504,10.6886041 Z" id="Combined-Shape-Copy-2" fill="url(#linearGradient-10)"></path>
                </g>
                <g id="Group-6-Copy" transform="translate(247.130833, 216.900635) rotate(-60.000000) translate(-247.130833, -216.900635) translate(222.130833, 198.400635)">
                    <g id="Group-2-Copy-2" transform="translate(0.000000, 0.000000)">
                        <path d="M35.3180725,-4.00700514 L35.3180725,30.9501265 C35.3180725,36.4966495 30.8421343,40.9929949 25.3180725,40.9929949 L25.3180725,40.9929949 C19.795225,40.9929949 15.3180725,36.4929661 15.3180725,30.9501265 L15.3180725,-4.00700514" id="Rectangle-3-Copy-6" fill="#3B86A7" transform="translate(25.318073, 18.492995) rotate(-68.000000) translate(-25.318073, -18.492995) "></path>
                        <path d="M34.3215215,-7.01731322 L34.3215215,27.9398184 C34.3215215,33.4863414 29.8455834,37.9826868 24.3215215,37.9826868 L24.3215215,37.9826868 C18.798674,37.9826868 14.3215215,33.4826581 14.3215215,27.9398184 L14.3215215,-7.01731322" id="Rectangle-3-Copy-2" fill="url(#linearGradient-9)" transform="translate(24.321522, 15.482687) rotate(-75.000000) translate(-24.321522, -15.482687) "></path>
                    </g>
                    <path d="M43.1892504,11.6886041 C46.8682406,13.9760578 48.7765383,18.5321662 47.5790597,23.0012171 C46.118833,28.4508573 40.5883915,31.7039704 35.2344195,30.2693779 L1.46842325,21.2218065 L2.44469889,17.5782962 L31.1482066,25.2693779 C36.5021786,26.7039704 42.0326202,23.4508573 43.4928468,18.0012171 C44.0753671,15.8272218 43.9229392,13.6326252 43.1892504,11.6886041 Z" id="Combined-Shape-Copy-3" fill="url(#linearGradient-10)"></path>
                </g>
            </g>
            <path d="M179.200156,259.142857 C179.200156,259.142857 109.992064,232.193878 101.603204,196.734694 C93.2143446,161.27551 120.478139,140 120.478139,140" id="Path-Copy-2" stroke="#D6DD00" stroke-width="15.6" stroke-linecap="round" transform="translate(139.600078, 199.571429) scale(-1, -1) translate(-139.600078, -199.571429) "></path>
            <g id="Group-17" transform="translate(265.000000, 47.000000)">
                <g id="Group-14">
                    <path d="M152.362209,56.7255471 C163.81319,70.8813988 170.669014,88.8888154 170.669014,108.493197 C170.669014,154.060446 133.630036,191 87.9401408,191 C42.2502458,191 5.21126761,154.060446 5.21126761,108.493197 C5.21126761,62.9259484 42.2502458,25.9863946 87.9401408,25.9863946 C91.8351811,25.9863946 95.6673509,26.2548519 99.4190627,26.7742259 C101.144765,18.8934532 108.182545,12.9931973 116.602113,12.9931973 C126.198849,12.9931973 134.000401,20.6586599 134.186732,30.1851702 C135.243288,29.9876526 136.33314,29.8843537 137.447183,29.8843537 C147.160783,29.8843537 155.035211,37.7376447 155.035211,47.4251701 C155.035211,50.8413738 154.05599,54.029482 152.362207,56.7255451 Z" id="Combined-Shape" fill="#9D86D5"></path>
                    <g id="Group-16" transform="translate(75.563380, 68.863946)">
                        <mask id="mask-12" fill="white">
                            <use xlink:href="#path-11"></use>
                        </mask>
                        <use id="Mask" fill="#20292C" xlink:href="#path-11"></use>
                        <ellipse id="Oval-5" fill="#FF7C7C" mask="url(#mask-12)" cx="15.6338028" cy="41.5782313" rx="23.4507042" ry="14.292517"></ellipse>
                        <g id="Group-11" mask="url(#mask-12)">
                            <g transform="translate(1.302817, -1.299320)">
                                <rect id="Rectangle-2" fill="#FFFFFF" x="0" y="0" width="5.21126761" height="7.79591837" rx="2.6056338"></rect>
                                <path d="M1.24851643,0.380257546 C0.500408046,0.836453431 0,1.65811585 0,2.59592793 L0,5.19999043 C0,6.62879062 1.16658199,7.79591837 2.6056338,7.79591837 C3.54667459,7.79591837 4.37323916,7.2968871 4.83129578,6.54944767 C4.43572455,6.79066669 3.97089898,6.92970522 3.4741784,6.92970522 C2.03512659,6.92970522 0.868544601,5.76257747 0.868544601,4.33377728 L0.868544601,1.72971478 C0.868544601,1.23547041 1.00753221,0.773486447 1.24851643,0.380257546 Z" id="Combined-Shape" fill="#E3E3E3"></path>
                            </g>
                        </g>
                        <g id="Group-11-Copy" mask="url(#mask-12)">
                            <g transform="translate(7.816901, -2.598639)">
                                <rect id="Rectangle-2" fill="#FFFFFF" x="0" y="0" width="5.21126761" height="7.79591837" rx="2.6056338"></rect>
                                <path d="M1.24851643,0.380257546 C0.500408046,0.836453431 0,1.65811585 0,2.59592793 L0,5.19999043 C0,6.62879062 1.16658199,7.79591837 2.6056338,7.79591837 C3.54667459,7.79591837 4.37323916,7.2968871 4.83129578,6.54944767 C4.43572455,6.79066669 3.97089898,6.92970522 3.4741784,6.92970522 C2.03512659,6.92970522 0.868544601,5.76257747 0.868544601,4.33377728 L0.868544601,1.72971478 C0.868544601,1.23547041 1.00753221,0.773486447 1.24851643,0.380257546 Z" id="Combined-Shape" fill="#E3E3E3"></path>
                            </g>
                        </g>
                        <g id="Group-11-Copy-2" mask="url(#mask-12)">
                            <g transform="translate(15.633803, -2.598639)">
                                <rect id="Rectangle-2" fill="#FFFFFF" x="0" y="0" width="5.21126761" height="7.79591837" rx="2.6056338"></rect>
                                <path d="M1.24851643,0.380257546 C0.500408046,0.836453431 0,1.65811585 0,2.59592793 L0,5.19999043 C0,6.62879062 1.16658199,7.79591837 2.6056338,7.79591837 C3.54667459,7.79591837 4.37323916,7.2968871 4.83129578,6.54944767 C4.43572455,6.79066669 3.97089898,6.92970522 3.4741784,6.92970522 C2.03512659,6.92970522 0.868544601,5.76257747 0.868544601,4.33377728 L0.868544601,1.72971478 C0.868544601,1.23547041 1.00753221,0.773486447 1.24851643,0.380257546 Z" id="Combined-Shape" fill="#E3E3E3"></path>
                            </g>
                        </g>
                        <g id="Group-11-Copy-3" mask="url(#mask-12)">
                            <g transform="translate(23.450704, -2.598639)">
                                <rect id="Rectangle-2" fill="#FFFFFF" x="0" y="0" width="5.21126761" height="7.79591837" rx="2.6056338"></rect>
                                <path d="M1.24851643,0.380257546 C0.500408046,0.836453431 0,1.65811585 0,2.59592793 L0,5.19999043 C0,6.62879062 1.16658199,7.79591837 2.6056338,7.79591837 C3.54667459,7.79591837 4.37323916,7.2968871 4.83129578,6.54944767 C4.43572455,6.79066669 3.97089898,6.92970522 3.4741784,6.92970522 C2.03512659,6.92970522 0.868544601,5.76257747 0.868544601,4.33377728 L0.868544601,1.72971478 C0.868544601,1.23547041 1.00753221,0.773486447 1.24851643,0.380257546 Z" id="Combined-Shape" fill="#E3E3E3"></path>
                            </g>
                        </g>
                    </g>
                    <ellipse id="Oval-4" fill="#20292C" cx="59.278169" cy="57.8197279" rx="4.55985915" ry="4.54761905"></ellipse>
                    <ellipse id="Oval-4-Copy" fill="#20292C" cx="117.90493" cy="57.8197279" rx="4.55985915" ry="4.54761905"></ellipse>
                    <path d="M49.2001565,109.142857 C49.2001565,109.142857 6.20719875,84.4557823 0.995931142,51.9727891 C-4.21533646,19.4897959 12.7212833,0 12.7212833,0" id="Path" stroke="#9D86D5" stroke-width="15.6" stroke-linecap="round"></path>
                    <path d="M184.693114,141.62585 C184.693114,141.62585 141.700156,116.938776 136.488889,84.4557823 C131.277621,51.9727891 148.214241,32.4829932 148.214241,32.4829932" id="Path-Copy" stroke="#9D86D5" stroke-width="15.6" stroke-linecap="round" transform="translate(160.093036, 87.054422) scale(-1, 1) translate(-160.093036, -87.054422) "></path>
                </g>
                <path d="M92.5,190.876795 C90.9904585,190.958577 89.4701501,191 87.9401408,191 C42.2502458,191 5.21126761,154.060446 5.21126761,108.493197 C5.21126761,62.9259484 42.2502458,25.9863946 87.9401408,25.9863946 C89.4701501,25.9863946 90.9904585,26.0278174 92.5,26.1095998 C48.9308651,28.4700438 14.3309859,64.4518494 14.3309859,108.493197 C14.3309859,152.534545 48.9308651,188.516351 92.5000035,190.876795 Z" id="Combined-Shape" fill="#BEAFE3"></path>
                <g id="Group-15" transform="translate(70.352113, 5.197279)">
                    <ellipse id="Oval-9-Copy" fill="#9D86D5" cx="17.5880282" cy="17.5408163" rx="17.5880282" ry="17.5408163"></ellipse>
                    <path d="M19.5422535,34.9745776 C18.9006152,35.0453167 18.2485741,35.0816327 17.5880282,35.0816327 C7.87442843,35.0816327 0,27.2283417 0,17.5408163 C0,7.85329097 7.87442843,0 17.5880282,0 C18.2485741,0 18.9006152,0.0363159443 19.5422535,0.107055067 C10.7483362,1.07656383 3.9084507,8.5120638 3.9084507,17.5408163 C3.9084507,26.5695689 10.7483362,34.0050688 19.5422535,34.9745776 Z" id="Combined-Shape" fill="#BEAEE3"></path>
                </g>
            </g>
            <g id="Group-9" transform="translate(121.000000, 155.000000)">
                <rect id="Rectangle-3-Copy-9" fill="#59C2F1" transform="translate(22.906192, 30.634114) rotate(-15.000000) translate(-22.906192, -30.634114) " x="12.9061915" y="2.63411359" width="20" height="56" rx="10"></rect>
                <path d="M26.3611245,7.63825632 C23.3364064,2.4762972 17.135147,-0.249256271 11.0741447,1.37478439 C3.80095917,3.32362859 -0.513395246,10.7949864 1.43419334,18.0634859 L10.2045463,50.7948887 C11.6334778,56.1277336 16.0364749,59.8691403 21.1519423,60.7145804 C20.5478051,59.6835648 20.0703911,58.5553528 19.7461285,57.3451885 L10.9757756,24.6137857 C9.02818701,17.3452862 13.3425414,9.87392837 20.615727,7.92508417 C22.5526172,7.40609601 24.5038308,7.33129894 26.3611245,7.63825632 Z" id="Combined-Shape-Copy-6" fill="url(#linearGradient-13)"></path>
            </g>
            <g id="Group-18" transform="translate(366.000000, 251.000000)">
                <path d="M43.2857143,9.71245446 C38.912584,3.81919501 31.9023024,0 24,0 C10.745166,0 0,10.745166 0,24 C0,32.4998875 4.41866314,39.9677408 11.084256,44.2318267 C4.13838181,53.134054 0,64.3337416 0,76.5 C0,105.494949 23.5050506,129 52.5,129 C81.4949494,129 105,105.494949 105,76.5 C105,73.8690926 104.806479,71.2833843 104.432896,68.7563335 C116.06151,67.0908285 125,57.0892623 125,45 C125,31.745166 114.254834,21 101,21 C100.917446,21 100.83499,21.0004168 100.752633,21.0012484 C98.7849793,9.16170931 85.3190442,0 69,0 C58.4635968,0 49.1165546,3.81919501 43.2857143,9.71245446 Z" id="Combined-Shape" fill="#EF4738"></path>
                <g id="Group-16" transform="translate(33.000000, 38.000000)">
                    <mask id="mask-15" fill="white">
                        <use xlink:href="#path-14"></use>
                    </mask>
                    <use id="Mask" fill="#20292C" xlink:href="#path-14"></use>
                    <ellipse id="Oval-5" fill="#FF7C7C" mask="url(#mask-15)" cx="12" cy="32" rx="18" ry="11"></ellipse>
                    <g id="Group-11" mask="url(#mask-15)">
                        <g transform="translate(1.000000, -1.000000)">
                            <rect id="Rectangle-2" fill="#FFFFFF" x="0" y="0" width="4" height="6" rx="2"></rect>
                            <path d="M0.957231888,0.290627947 C0.381308777,0.641320426 0,1.27474764 0,1.99791312 L0,4.00208688 C0,5.10173938 0.8954305,6 2,6 C2.72797317,6 3.35976183,5.61683264 3.70943478,5.04270539 C3.4066056,5.22710485 3.04996913,5.33333333 2.66666667,5.33333333 C1.56209717,5.33333333 0.666666667,4.43507271 0.666666667,3.33542021 L0.666666667,1.33124646 C0.666666667,0.950008182 0.772639467,0.593709844 0.957231888,0.290627947 Z" id="Combined-Shape" fill="#E3E3E3"></path>
                        </g>
                    </g>
                    <g id="Group-11-Copy-2" mask="url(#mask-15)">
                        <g transform="translate(12.000000, -2.000000)">
                            <rect id="Rectangle-2" fill="#FFFFFF" x="0" y="0" width="4" height="6" rx="2"></rect>
                            <path d="M0.957231888,0.290627947 C0.381308777,0.641320426 0,1.27474764 0,1.99791312 L0,4.00208688 C0,5.10173938 0.8954305,6 2,6 C2.72797317,6 3.35976183,5.61683264 3.70943478,5.04270539 C3.4066056,5.22710485 3.04996913,5.33333333 2.66666667,5.33333333 C1.56209717,5.33333333 0.666666667,4.43507271 0.666666667,3.33542021 L0.666666667,1.33124646 C0.666666667,0.950008182 0.772639467,0.593709844 0.957231888,0.290627947 Z" id="Combined-Shape" fill="#E3E3E3"></path>
                        </g>
                    </g>
                    <g id="Group-11-Copy-3" mask="url(#mask-15)">
                        <g transform="translate(18.000000, -2.000000)">
                            <rect id="Rectangle-2" fill="#FFFFFF" x="0" y="0" width="4" height="6" rx="2"></rect>
                            <path d="M0.957231888,0.290627947 C0.381308777,0.641320426 0,1.27474764 0,1.99791312 L0,4.00208688 C0,5.10173938 0.8954305,6 2,6 C2.72797317,6 3.35976183,5.61683264 3.70943478,5.04270539 C3.4066056,5.22710485 3.04996913,5.33333333 2.66666667,5.33333333 C1.56209717,5.33333333 0.666666667,4.43507271 0.666666667,3.33542021 L0.666666667,1.33124646 C0.666666667,0.950008182 0.772639467,0.593709844 0.957231888,0.290627947 Z" id="Combined-Shape" fill="#E3E3E3"></path>
                        </g>
                    </g>
                </g>
                <ellipse id="Oval-4" fill="#20292C" cx="20.5" cy="29.5" rx="3.5" ry="3.5"></ellipse>
                <ellipse id="Oval-4-Copy" fill="#20292C" cx="65.5" cy="29.5" rx="3.5" ry="3.5"></ellipse>
                <path d="M99.4757032,51 C99.4757032,51 90.5674231,93.7232834 95.4757032,118 C100.383983,142.276717 116.968781,137.522057 116.968781,137.522057" id="Path-3" stroke="#EF4738" stroke-width="12" stroke-linecap="round"></path>
                <path d="M51.4757032,69 C51.4757032,69 42.5674231,111.723283 47.4757032,136 C52.3839833,160.276717 68.968781,155.522057 68.968781,155.522057" id="Path-3-Copy-3" stroke="#EF4738" stroke-width="12" stroke-linecap="round"></path>
                <path d="M125,68.8143187 C124.017217,68.93687 123.015981,69 122,69 C108.745166,69 98,58.254834 98,45 C98,31.745166 108.745166,21 122,21 C123.015981,21 124.017217,21.06313 125,21.1856813 C113.161065,22.6619755 104,32.761147 104,45 C104,57.238853 113.161065,67.3380245 125,68.8143187 Z" id="Combined-Shape" fill="#FF7569" transform="translate(111.500000, 45.000000) scale(-1, 1) translate(-111.500000, -45.000000) "></path>
            </g>
        </g>
    </g>
</svg>