<?xml version="1.0" encoding="UTF-8"?>
<svg width="360px" height="357px" viewBox="0 0 360 357" version="1.1" xmlns="http://www.w3.org/2000/svg" xmlns:xlink="http://www.w3.org/1999/xlink">
    <!-- Generator: Sketch 41.2 (35397) - http://www.bohemiancoding.com/sketch -->
    <title>Group 7 Copy 5</title>
    <desc>Created with Sketch.</desc>
    <defs>
        <ellipse id="path-1" cx="180" cy="261.260472" rx="180" ry="60.6968774"></ellipse>
        <filter x="-50%" y="-50%" width="200%" height="200%" filterUnits="objectBoundingBox" id="filter-2">
            <feOffset dx="0" dy="4" in="SourceAlpha" result="shadowOffsetInner1"></feOffset>
            <feComposite in="shadowOffsetInner1" in2="SourceAlpha" operator="arithmetic" k2="-1" k3="1" result="shadowInnerInner1"></feComposite>
            <feColorMatrix values="0 0 0 0 0.435905612   0 0 0 0 0.435905612   0 0 0 0 0.435905612  0 0 0 0.5 0" type="matrix" in="shadowInnerInner1"></feColorMatrix>
        </filter>
        <path d="M202.235294,150.410417 C202.235294,149.237633 203.188601,148.247532 204.360841,148.199118 L237.16857,146.844147 C238.342478,146.795664 239.294118,147.701786 239.294118,148.882439 L239.294118,167.256623 C239.294118,177.489687 231.000467,185.785225 220.764706,185.785225 L220.764706,185.785225 C210.531194,185.785225 202.235294,177.486395 202.235294,167.255777 L202.235294,150.410417 Z" id="path-3"></path>
        <linearGradient x1="37.0590477%" y1="1.70370869%" x2="37.0590478%" y2="84.5704277%" id="linearGradient-5">
            <stop stop-color="#84D7FB" offset="0%"></stop>
            <stop stop-color="#6BC5ED" offset="100%"></stop>
        </linearGradient>
        <linearGradient x1="50%" y1="0%" x2="50%" y2="100%" id="linearGradient-6">
            <stop stop-color="#82D6FB" offset="0%"></stop>
            <stop stop-color="#94DEFF" offset="100%"></stop>
        </linearGradient>
        <linearGradient x1="37.0590477%" y1="1.70370869%" x2="62.9409523%" y2="98.2962913%" id="linearGradient-7">
            <stop stop-color="#67C2EB" offset="0%"></stop>
            <stop stop-color="#89D9FD" offset="100%"></stop>
        </linearGradient>
        <linearGradient x1="50%" y1="0%" x2="50%" y2="100%" id="linearGradient-8">
            <stop stop-color="#59C2F1" offset="0%"></stop>
            <stop stop-color="#94DEFF" offset="100%"></stop>
        </linearGradient>
        <linearGradient x1="0%" y1="31.68506%" x2="98.2962913%" y2="62.9409523%" id="linearGradient-9">
            <stop stop-color="#59C2F1" offset="0%"></stop>
            <stop stop-color="#7BD2F9" offset="100%"></stop>
        </linearGradient>
    </defs>
    <g id="Landing-Page" stroke="none" stroke-width="1" fill="none" fill-rule="evenodd">
        <g id="Desktop-HD-Copy" transform="translate(-353.000000, -1765.000000)">
            <g id="Group-30" transform="translate(353.000000, 1764.000000)">
                <g id="Group-7-Copy-5">
                    <ellipse id="Oval-7" fill="#65C7F4" cx="199.058824" cy="188.500381" rx="8.47058824" ry="8.44478294"></ellipse>
                    <g id="Group-Copy" transform="translate(0.000000, 35.438690)">
                        <g id="Oval-3">
                            <use fill="#1F282C" fill-rule="evenodd" xlink:href="#path-1"></use>
                            <use fill="black" fill-opacity="1" filter="url(#filter-2)" xlink:href="#path-1"></use>
                        </g>
                        <path d="M294.204061,257.56588 L294.352941,257.56588 C294.352941,257.56588 308.117647,256.510282 308.117647,237.50952 C308.117647,218.508759 294.352941,219.420881 294.352941,219.420881 C294.352941,219.420881 311.294118,219.420881 311.294118,198.452399 C311.294118,177.483918 294.352941,176.284844 294.352941,176.284844 C294.352941,176.284844 311.294118,176.284844 311.294118,153.061691 C311.294118,129.838538 294.352941,130.192375 294.352941,130.192375 L294.352941,128.774626 C294.352941,57.6491244 236.693801,0 165.567647,0 L178.55,0 C107.418983,0 49.7647059,57.6580861 49.7647059,128.78294 L49.7647059,257.56588 L49.9135863,257.56588 C49.8147189,258.162853 49.7647059,258.763628 49.7647059,259.36786 C49.7647059,279.360315 104.517647,295.567403 172.058824,295.567403 C239.6,295.567403 294.352941,279.360315 294.352941,259.36786 C294.352941,258.763628 294.302928,258.162853 294.204061,257.56588 Z" id="Combined-Shape" fill="#59C2F1"></path>
                        <ellipse id="Oval-4" fill="#20292C" cx="167.823529" cy="129.310739" rx="6.88235294" ry="6.86138614"></ellipse>
                        <ellipse id="Oval-4-Copy" fill="#20292C" cx="259.941176" cy="122.977152" rx="6.88235294" ry="6.86138614"></ellipse>
                        <mask id="mask-4" fill="white">
                            <use xlink:href="#path-3"></use>
                        </mask>
                        <use id="Mask" fill="#20292C" xlink:href="#path-3"></use>
                    </g>
                    <g id="Group-10" transform="translate(188.470588, 0.000000)">
                        <rect id="Rectangle-3-Copy" fill="#59C2F1" transform="translate(17.900673, 31.885668) rotate(-345.000000) translate(-17.900673, -31.885668) " x="7.31243809" y="2.32892721" width="21.1764706" height="59.1134806" rx="10.5882353"></rect>
                        <path d="M33.2907526,12.2272498 C33.2813846,7.56344015 30.1635312,3.29497309 25.43929,2.02911646 C19.7895834,0.515282152 13.985706,3.86467404 12.473193,9.50944935 L2.35610333,47.2669421 C1.33355425,51.0831472 2.53634297,54.9743915 5.16991418,57.5615245 C5.16808148,56.6491236 5.2852191,55.7215919 5.53257392,54.7984511 L15.6496636,17.0409583 C17.1621766,11.396183 22.966054,8.04679115 28.6157606,9.56062546 C30.4435446,10.0503787 32.0308725,10.9895854 33.2907526,12.2272498 Z" id="Combined-Shape-Copy-4" fill="url(#linearGradient-5)"></path>
                    </g>
                    <path d="M265.560008,83.4006239 C243.30388,54.1496369 209.227166,35.43869 171.030749,35.43869 C107.280688,35.43869 49.6196587,93.0967762 49.6196587,164.22163 C49.6196587,164.22163 31.7647059,162.110434 31.7647059,189.555979 C31.7647059,217.001523 49.6196587,217.001523 49.6196587,217.001523 C49.6196587,217.001523 31.7647059,217.001523 31.7647059,238.113481 C31.7647059,259.225438 49.6196587,259.225438 49.6196587,259.225438 C49.6196587,259.225438 33.8823529,259.225438 33.8823529,276.115004 C33.8823529,293.00457 49.6196587,293.00457 49.6196587,293.00457 L49.7647059,293.00457 C49.7647059,303.236547 62.7893265,312.524035 83.9718369,319.356028 L83.9718369,190.557082 C83.9718369,122.960268 138.775196,68.1622239 206.369228,68.1622239 C227.839169,68.1622239 248.017985,73.6903124 265.560008,83.4006239 Z" id="Combined-Shape-Copy-5" fill="url(#linearGradient-6)"></path>
                    <g id="Group-9" transform="translate(84.647059, 10.104341)">
                        <rect id="Rectangle-3-Copy-9" fill="#59C2F1" transform="translate(23.253615, 32.337305) rotate(-15.000000) translate(-23.253615, -32.337305) " x="12.6653793" y="2.78056469" width="21.1764706" height="59.1134806" rx="10.5882353"></rect>
                        <path d="M26.9243981,8.05912027 C23.7175555,2.60718523 17.1606803,-0.266226364 10.7510851,1.45121947 C3.05006515,3.51470156 -1.51851785,11.4238976 0.543088269,19.1179164 L9.7802831,53.5915968 C11.2946357,59.2432377 15.9621137,63.2041896 21.3835551,64.0939884 C20.7382776,62.9969557 20.2286398,61.7955211 19.8831349,60.5060793 L10.6459401,26.0323989 C8.58433395,18.3383801 13.152917,10.429184 20.8539369,8.36570195 C22.9003513,7.81736688 24.9617788,7.73700369 26.9243981,8.05912027 Z" id="Combined-Shape-Copy-6" fill="url(#linearGradient-7)"></path>
                    </g>
                    <g id="Group-4-Copy" transform="translate(162.306026, 300.904822) rotate(-300.000000) translate(-162.306026, -300.904822) translate(135.806026, 281.404822)">
                        <g id="Group-2-Copy" transform="translate(-0.000000, 0.000000)">
                            <path d="M37.3956062,-3.62582569 L37.3956062,33.2748479 C37.3956062,39.1297458 32.6563775,43.8760784 26.8073709,43.8760784 L26.8073709,43.8760784 C20.95965,43.8760784 16.2191356,39.1258576 16.2191356,33.2748479 L16.2191356,-3.62582569" id="Rectangle-3-Copy-6" fill="#3B86A7" transform="translate(26.807371, 20.125126) rotate(-68.000000) translate(-26.807371, -20.125126) "></path>
                            <path d="M36.3404346,-6.80350048 L36.3404346,30.0971731 C36.3404346,35.952071 31.6012059,40.6984036 25.7521993,40.6984036 L25.7521993,40.6984036 C19.9044784,40.6984036 15.163964,35.9481828 15.163964,30.0971731 L15.163964,-6.80350048" id="Rectangle-3-Copy-2" fill="url(#linearGradient-8)" transform="translate(25.752199, 16.947452) rotate(-75.000000) translate(-25.752199, -16.947452) "></path>
                        </g>
                        <path d="M44.5960829,11.839487 C48.4963134,14.2524438 50.5197672,19.0854573 49.2489,23.8283983 C47.7027777,29.5986055 41.861037,33.0468351 36.2093955,31.5324824 L0.566081936,21.9818853 L1.59575348,18.1390987 L31.8828172,26.254493 C37.5344586,27.7688458 43.3761993,24.3206162 44.9223217,18.550409 C45.5419664,16.2378634 45.3784501,13.9039049 44.5960829,11.839487 Z" id="Combined-Shape-Copy" fill="url(#linearGradient-9)"></path>
                    </g>
                    <g id="Group-3-Copy" transform="translate(153.031637, 256.296159) rotate(-300.000000) translate(-153.031637, -256.296159) translate(126.531637, 236.796159)">
                        <g id="Group-2" transform="translate(-0.000000, 0.000000)">
                            <path d="M37.3956062,-3.62582569 L37.3956062,33.2748479 C37.3956062,39.1297458 32.6563775,43.8760784 26.8073709,43.8760784 L26.8073709,43.8760784 C20.95965,43.8760784 16.2191356,39.1258576 16.2191356,33.2748479 L16.2191356,-3.62582569" id="Rectangle-3-Copy-6" fill="#3B86A7" transform="translate(26.807371, 20.125126) rotate(-68.000000) translate(-26.807371, -20.125126) "></path>
                            <path d="M36.3404346,-6.80350048 L36.3404346,30.0971731 C36.3404346,35.952071 31.6012059,40.6984036 25.7521993,40.6984036 L25.7521993,40.6984036 C19.9044784,40.6984036 15.163964,35.9481828 15.163964,30.0971731 L15.163964,-6.80350048" id="Rectangle-3-Copy-2" fill="url(#linearGradient-8)" transform="translate(25.752199, 16.947452) rotate(-75.000000) translate(-25.752199, -16.947452) "></path>
                        </g>
                        <g id="Group-2-Copy-4" transform="translate(-0.000000, 11.159939)" fill="url(#linearGradient-9)">
                            <path d="M44.5960829,0.679547887 C48.4963134,3.09250468 50.5197672,7.9255182 49.2489,12.6684592 C47.7027777,18.4386664 41.861037,21.886896 36.2093955,20.3725433 L0.566081936,10.8219462 L1.59575348,6.97915968 L31.8828172,15.0945539 C37.5344586,16.6089067 43.3761993,13.1606771 44.9223217,7.39046989 C45.5419664,5.07792433 45.3784501,2.74396579 44.5960829,0.679547887 Z" id="Combined-Shape"></path>
                        </g>
                    </g>
                    <g id="Group-4-Copy-2" transform="translate(270.306026, 286.126452) rotate(-300.000000) translate(-270.306026, -286.126452) translate(243.806026, 266.626452)">
                        <g id="Group-2-Copy" transform="translate(-0.000000, 0.000000)">
                            <path d="M37.3956062,-3.62582569 L37.3956062,33.2748479 C37.3956062,39.1297458 32.6563775,43.8760784 26.8073709,43.8760784 L26.8073709,43.8760784 C20.95965,43.8760784 16.2191356,39.1258576 16.2191356,33.2748479 L16.2191356,-3.62582569" id="Rectangle-3-Copy-6" fill="#3B86A7" transform="translate(26.807371, 20.125126) rotate(-68.000000) translate(-26.807371, -20.125126) "></path>
                            <path d="M36.3404346,-6.80350048 L36.3404346,30.0971731 C36.3404346,35.952071 31.6012059,40.6984036 25.7521993,40.6984036 L25.7521993,40.6984036 C19.9044784,40.6984036 15.163964,35.9481828 15.163964,30.0971731 L15.163964,-6.80350048" id="Rectangle-3-Copy-2" fill="url(#linearGradient-8)" transform="translate(25.752199, 16.947452) rotate(-75.000000) translate(-25.752199, -16.947452) "></path>
                        </g>
                        <path d="M44.5960829,11.839487 C48.4963134,14.2524438 50.5197672,19.0854573 49.2489,23.8283983 C47.7027777,29.5986055 41.861037,33.0468351 36.2093955,31.5324824 L0.566081936,21.9818853 L1.59575348,18.1390987 L31.8828172,26.254493 C37.5344586,27.7688458 43.3761993,24.3206162 44.9223217,18.550409 C45.5419664,16.2378634 45.3784501,13.9039049 44.5960829,11.839487 Z" id="Combined-Shape-Copy" fill="url(#linearGradient-9)"></path>
                    </g>
                    <g id="Group-6-Copy" transform="translate(279.662907, 242.628438) rotate(-395.000000) translate(-279.662907, -242.628438) translate(253.162907, 223.128438)">
                        <g id="Group-2-Copy-2" transform="translate(-0.000000, 0.000000)">
                            <path d="M37.3956062,-3.62582569 L37.3956062,33.2748479 C37.3956062,39.1297458 32.6563775,43.8760784 26.8073709,43.8760784 L26.8073709,43.8760784 C20.95965,43.8760784 16.2191356,39.1258576 16.2191356,33.2748479 L16.2191356,-3.62582569" id="Rectangle-3-Copy-6" fill="#3B86A7" transform="translate(26.807371, 20.125126) rotate(-68.000000) translate(-26.807371, -20.125126) "></path>
                            <path d="M36.3404346,-6.80350048 L36.3404346,30.0971731 C36.3404346,35.952071 31.6012059,40.6984036 25.7521993,40.6984036 L25.7521993,40.6984036 C19.9044784,40.6984036 15.163964,35.9481828 15.163964,30.0971731 L15.163964,-6.80350048" id="Rectangle-3-Copy-2" fill="url(#linearGradient-8)" transform="translate(25.752199, 16.947452) rotate(-75.000000) translate(-25.752199, -16.947452) "></path>
                        </g>
                        <path d="M45.6549064,12.8950848 C49.5551369,15.3080416 51.5785908,20.1410551 50.3077236,24.8839962 C48.7616012,30.6542034 42.9198605,34.102433 37.2682191,32.5880802 L1.62490547,23.0374831 L2.65457701,19.1946966 L32.9416407,27.3100909 C38.5932822,28.8244436 44.4350229,25.3762141 45.9811452,19.6060068 C46.6007899,17.2934613 46.4372736,14.9595027 45.6549064,12.8950848 Z" id="Combined-Shape-Copy-3" fill="url(#linearGradient-9)"></path>
                    </g>
                </g>
            </g>
        </g>
    </g>
</svg>