<?xml version="1.0" encoding="UTF-8"?>
<svg width="100px" height="99px" viewBox="0 0 100 99" version="1.1" xmlns="http://www.w3.org/2000/svg" xmlns:xlink="http://www.w3.org/1999/xlink">
    <!-- Generator: Sketch 41.2 (35397) - http://www.bohemiancoding.com/sketch -->
    <title>Group 7 Copy 5</title>
    <desc>Created with Sketch.</desc>
    <defs>
        <ellipse id="path-1" cx="50" cy="72.4926036" rx="50" ry="16.841716"></ellipse>
        <filter x="-50%" y="-50%" width="200%" height="200%" filterUnits="objectBoundingBox" id="filter-2">
            <feOffset dx="0" dy="1" in="SourceAlpha" result="shadowOffsetInner1"></feOffset>
            <feComposite in="shadowOffsetInner1" in2="SourceAlpha" operator="arithmetic" k2="-1" k3="1" result="shadowInnerInner1"></feComposite>
            <feColorMatrix values="0 0 0 0 0.435905612   0 0 0 0 0.435905612   0 0 0 0 0.435905612  0 0 0 0.5 0" type="matrix" in="shadowInnerInner1"></feColorMatrix>
        </filter>
        <path d="M56.1764706,41.7347585 C56.1764706,41.4093433 56.4309333,41.1350443 56.7594217,41.1214925 L65.8876371,40.744908 C66.2095921,40.7316257 66.4705882,40.9885538 66.4705882,41.3030959 L66.4705882,46.4051564 C66.4705882,49.2467384 64.1603873,51.5502959 61.3235294,51.5502959 L61.3235294,51.5502959 C58.4808873,51.5502959 56.1764706,49.2411438 56.1764706,46.4088831 L56.1764706,41.7347585 Z" id="path-3"></path>
        <linearGradient x1="37.0590477%" y1="1.70370869%" x2="37.0590478%" y2="84.5704277%" id="linearGradient-5">
            <stop stop-color="#84D7FB" offset="0%"></stop>
            <stop stop-color="#6BC5ED" offset="100%"></stop>
        </linearGradient>
        <linearGradient x1="50%" y1="0%" x2="50%" y2="100%" id="linearGradient-6">
            <stop stop-color="#82D6FB" offset="0%"></stop>
            <stop stop-color="#94DEFF" offset="100%"></stop>
        </linearGradient>
        <linearGradient x1="37.0590477%" y1="1.70370869%" x2="62.9409523%" y2="98.2962913%" id="linearGradient-7">
            <stop stop-color="#67C2EB" offset="0%"></stop>
            <stop stop-color="#89D9FD" offset="100%"></stop>
        </linearGradient>
        <linearGradient x1="50%" y1="0%" x2="50%" y2="100%" id="linearGradient-8">
            <stop stop-color="#59C2F1" offset="0%"></stop>
            <stop stop-color="#94DEFF" offset="100%"></stop>
        </linearGradient>
        <linearGradient x1="0%" y1="31.68506%" x2="98.2962913%" y2="62.9409523%" id="linearGradient-9">
            <stop stop-color="#59C2F1" offset="0%"></stop>
            <stop stop-color="#7BD2F9" offset="100%"></stop>
        </linearGradient>
    </defs>
    <g id="Landing-Page" stroke="none" stroke-width="1" fill="none" fill-rule="evenodd">
        <g id="Desktop-HD-Copy" transform="translate(-77.000000, -42.000000)">
            <g id="Group-7-Copy-5" transform="translate(77.000000, 41.000000)">
                <ellipse id="Oval-7" fill="#65C7F4" cx="55.2941176" cy="53.1360947" rx="2.35294118" ry="2.34319527"></ellipse>
                <g id="Group-Copy" transform="translate(0.000000, 10.665680)">
                    <g id="Oval-3">
                        <use fill="#1F282C" fill-rule="evenodd" xlink:href="#path-1"></use>
                        <use fill="black" fill-opacity="1" filter="url(#filter-2)" xlink:href="#path-1"></use>
                    </g>
                    <path d="M81.7233502,71.4674556 L81.7647059,71.4674556 C81.7647059,71.4674556 85.5882353,71.1745562 85.5882353,65.9023669 C85.5882353,60.6301775 81.7647059,60.8832663 81.7647059,60.8832663 C81.7647059,60.8832663 86.4705882,60.8832663 86.4705882,55.0650888 C86.4705882,49.2469112 81.7647059,48.9142012 81.7647059,48.9142012 C81.7647059,48.9142012 86.4705882,48.9142012 86.4705882,42.4704142 C86.4705882,36.0266272 81.7647059,36.1248074 81.7647059,36.1248074 L81.7647059,35.7435515 C81.7647059,16.0026244 65.7649668,0 46.0282884,0 L49.5599469,0 C29.8171206,0 13.8235294,15.9985349 13.8235294,35.7337278 L13.8235294,71.4674556 L13.8648851,71.4674556 C13.8374219,71.6330994 13.8235294,71.7997978 13.8235294,71.9674556 C13.8235294,77.5148128 29.0326798,82.0118343 47.7941176,82.0118343 C66.5555555,82.0118343 81.7647059,77.5148128 81.7647059,71.9674556 C81.7647059,71.7997978 81.7508134,71.6330994 81.7233502,71.4674556 Z" id="Combined-Shape" fill="#59C2F1"></path>
                    <ellipse id="Oval-4" fill="#20292C" cx="46.6176471" cy="35.8801775" rx="1.91176471" ry="1.90384615"></ellipse>
                    <ellipse id="Oval-4-Copy" fill="#20292C" cx="72.2058824" cy="34.1227811" rx="1.91176471" ry="1.90384615"></ellipse>
                    <mask id="mask-4" fill="white">
                        <use xlink:href="#path-3"></use>
                    </mask>
                    <use id="Mask" fill="#20292C" xlink:href="#path-3"></use>
                </g>
                <g id="Group-10" transform="translate(52.352941, 0.000000)">
                    <rect id="Rectangle-3-Copy" fill="#59C2F1" transform="translate(4.972409, 9.679814) rotate(-345.000000) translate(-4.972409, -9.679814) " x="2.0312328" y="1.4786309" width="5.88235294" height="16.4023669" rx="2.94117647"></rect>
                    <path d="M9.2437834,4.22389563 C9.23933581,2.92396302 8.37334807,1.74625647 7.06408934,1.39544166 C5.49826403,0.975880028 3.88124551,1.91014328 3.45950836,3.48408777 L0.659740629,13.9329632 C0.372693946,15.004236 0.707101526,16.0870762 1.43973515,16.8054071 C1.43885274,16.5474982 1.47188336,16.2847781 1.54209357,16.02275 L4.3418613,5.57387461 C4.76359845,3.99993012 6.38061697,3.06566686 7.94644228,3.48522849 C8.4534634,3.62108439 8.89400767,3.88094832 9.2437834,4.22389563 Z" id="Combined-Shape-Copy-4" fill="url(#linearGradient-5)"></path>
                </g>
                <path d="M73.776127,23.9838922 C67.5940677,15.8609462 58.1240693,10.6656805 47.5085415,10.6656805 C29.7816864,10.6656805 13.7832385,26.6642154 13.7832385,46.3994083 C13.7832385,46.3994083 8.82352941,45.8136095 8.82352941,53.4289941 C8.82352941,61.0443787 13.7832385,61.0443787 13.7832385,61.0443787 C13.7832385,61.0443787 8.82352941,61.0443787 8.82352941,66.9023669 C8.82352941,72.760355 13.7832385,72.760355 13.7832385,72.760355 C13.7832385,72.760355 9.41176471,72.760355 9.41176471,77.4467456 C9.41176471,82.1331361 13.7832385,82.1331361 13.7832385,82.1331361 L13.8235294,82.1331361 C13.8235294,84.9722287 17.4414796,87.5492515 23.3255102,89.4449418 L23.3255102,53.7525251 C23.3255102,34.9709981 38.5433756,19.7455621 57.3247854,19.7455621 C63.2925171,19.7455621 68.9011385,21.2830981 73.776127,23.9838922 Z" id="Combined-Shape-Copy-5" fill="url(#linearGradient-6)"></path>
                <g id="Group-9" transform="translate(23.235294, 3.636095)">
                    <rect id="Rectangle-3-Copy-9" fill="#59C2F1" transform="translate(6.737115, 8.972714) rotate(-15.000000) translate(-6.737115, -8.972714) " x="3.79593868" y="0.771530311" width="5.88235294" height="16.4023669" rx="2.94117647"></rect>
                    <path d="M7.75548181,2.23657535 C6.86117278,0.724258715 5.04303359,-0.0732830029 3.2667396,0.402673536 C1.13238945,0.974570934 -0.140056176,3.17818856 0.434372824,5.32198677 L2.98878589,14.8551861 C3.41097113,16.4308029 4.71067587,17.5360653 6.21894961,17.7839301 C6.0364884,17.47538 5.89248266,17.1370766 5.79513361,16.773765 L3.24072055,7.2405657 C2.66629155,5.09676749 3.93873718,2.89314986 6.07308733,2.32125247 C6.64009121,2.16932423 7.21135882,2.14715597 7.75548181,2.23657535 Z" id="Combined-Shape-Copy-6" fill="url(#linearGradient-7)"></path>
                </g>
                <g id="Group-4-Copy" transform="translate(45.365242, 84.323822) rotate(-300.000000) translate(-45.365242, -84.323822) translate(37.865242, 78.323822)">
                    <g id="Group-2-Copy" transform="translate(-0.000000, 0.000000)">
                        <path d="M10.3876684,-0.173649435 L10.3876684,10.0652737 C10.3876684,11.689847 9.07121598,13.0068239 7.44649191,13.0068239 L7.44649191,13.0068239 C5.822125,13.0068239 4.50531544,11.6887682 4.50531544,10.0652737 L4.50531544,-0.173649435" id="Rectangle-3-Copy-6" fill="#3B86A7" transform="translate(7.446492, 6.416587) rotate(-68.000000) translate(-7.446492, -6.416587) "></path>
                        <path d="M10.0945652,-1.05536689 L10.0945652,9.18355627 C10.0945652,10.8081296 8.77811275,12.1251065 7.15338869,12.1251065 L7.15338869,12.1251065 C5.52902178,12.1251065 4.21221222,10.8070507 4.21221222,9.18355627 L4.21221222,-1.05536689" id="Rectangle-3-Copy-2" fill="url(#linearGradient-8)" transform="translate(7.153389, 5.534870) rotate(-75.000000) translate(-7.153389, -5.534870) "></path>
                    </g>
                    <path d="M12.380322,4.11281124 C13.4642012,4.78216434 14.026561,6.12555808 13.6732471,7.44414348 C13.2437686,9.04697882 11.6224635,10.0051957 10.0542882,9.58500438 L0.16424793,6.93497606 L0.449865026,5.86903855 L8.85246093,8.12050734 C10.4206362,8.54069862 12.0419413,7.58248178 12.4714197,5.97964644 C12.6438288,5.33620721 12.5981962,4.68686058 12.380322,4.11281124 Z" id="Combined-Shape-Copy" fill="url(#linearGradient-9)"></path>
                </g>
                <g id="Group-3-Copy" transform="translate(42.789023, 71.946144) rotate(-300.000000) translate(-42.789023, -71.946144) translate(35.289023, 65.946144)">
                    <g id="Group-2" transform="translate(-0.000000, 0.000000)">
                        <path d="M10.3876684,-0.173649435 L10.3876684,10.0652737 C10.3876684,11.689847 9.07121598,13.0068239 7.44649191,13.0068239 L7.44649191,13.0068239 C5.822125,13.0068239 4.50531544,11.6887682 4.50531544,10.0652737 L4.50531544,-0.173649435" id="Rectangle-3-Copy-6" fill="#3B86A7" transform="translate(7.446492, 6.416587) rotate(-68.000000) translate(-7.446492, -6.416587) "></path>
                        <path d="M10.0945652,-1.05536689 L10.0945652,9.18355627 C10.0945652,10.8081296 8.77811275,12.1251065 7.15338869,12.1251065 L7.15338869,12.1251065 C5.52902178,12.1251065 4.21221222,10.8070507 4.21221222,9.18355627 L4.21221222,-1.05536689" id="Rectangle-3-Copy-2" fill="url(#linearGradient-8)" transform="translate(7.153389, 5.534870) rotate(-75.000000) translate(-7.153389, -5.534870) "></path>
                    </g>
                    <g id="Group-2-Copy-4" transform="translate(-0.000000, 3.928994)" fill="url(#linearGradient-9)">
                        <path d="M12.380322,0.183817161 C13.4642012,0.853170258 14.026561,2.196564 13.6732471,3.5151494 C13.2437686,5.11798474 11.6224635,6.07620158 10.0542882,5.65601029 L0.16424793,3.00598198 L0.449865026,1.94004447 L8.85246093,4.19151325 C10.4206362,4.61170454 12.0419413,3.6534877 12.4714197,2.05065236 C12.6438288,1.40721313 12.5981962,0.757866492 12.380322,0.183817161 Z" id="Combined-Shape"></path>
                    </g>
                </g>
                <g id="Group-4-Copy-2" transform="translate(75.365242, 80.223231) rotate(-300.000000) translate(-75.365242, -80.223231) translate(67.865242, 74.223231)">
                    <g id="Group-2-Copy" transform="translate(-0.000000, 0.000000)">
                        <path d="M10.3876684,-0.173649435 L10.3876684,10.0652737 C10.3876684,11.689847 9.07121598,13.0068239 7.44649191,13.0068239 L7.44649191,13.0068239 C5.822125,13.0068239 4.50531544,11.6887682 4.50531544,10.0652737 L4.50531544,-0.173649435" id="Rectangle-3-Copy-6" fill="#3B86A7" transform="translate(7.446492, 6.416587) rotate(-68.000000) translate(-7.446492, -6.416587) "></path>
                        <path d="M10.0945652,-1.05536689 L10.0945652,9.18355627 C10.0945652,10.8081296 8.77811275,12.1251065 7.15338869,12.1251065 L7.15338869,12.1251065 C5.52902178,12.1251065 4.21221222,10.8070507 4.21221222,9.18355627 L4.21221222,-1.05536689" id="Rectangle-3-Copy-2" fill="url(#linearGradient-8)" transform="translate(7.153389, 5.534870) rotate(-75.000000) translate(-7.153389, -5.534870) "></path>
                    </g>
                    <path d="M12.380322,4.11281124 C13.4642012,4.78216434 14.026561,6.12555808 13.6732471,7.44414348 C13.2437686,9.04697882 11.6224635,10.0051957 10.0542882,9.58500438 L0.16424793,6.93497606 L0.449865026,5.86903855 L8.85246093,8.12050734 C10.4206362,8.54069862 12.0419413,7.58248178 12.4714197,5.97964644 C12.6438288,5.33620721 12.5981962,4.68686058 12.380322,4.11281124 Z" id="Combined-Shape-Copy" fill="url(#linearGradient-9)"></path>
                </g>
                <g id="Group-6-Copy" transform="translate(75.436081, 68.431351) rotate(-300.000000) translate(-75.436081, -68.431351) translate(67.936081, 62.431351)">
                    <g id="Group-2-Copy-2" transform="translate(-0.000000, 0.000000)">
                        <path d="M10.3876684,-0.173649435 L10.3876684,10.0652737 C10.3876684,11.689847 9.07121598,13.0068239 7.44649191,13.0068239 L7.44649191,13.0068239 C5.822125,13.0068239 4.50531544,11.6887682 4.50531544,10.0652737 L4.50531544,-0.173649435" id="Rectangle-3-Copy-6" fill="#3B86A7" transform="translate(7.446492, 6.416587) rotate(-68.000000) translate(-7.446492, -6.416587) "></path>
                        <path d="M10.0945652,-1.05536689 L10.0945652,9.18355627 C10.0945652,10.8081296 8.77811275,12.1251065 7.15338869,12.1251065 L7.15338869,12.1251065 C5.52902178,12.1251065 4.21221222,10.8070507 4.21221222,9.18355627 L4.21221222,-1.05536689" id="Rectangle-3-Copy-2" fill="url(#linearGradient-8)" transform="translate(7.153389, 5.534870) rotate(-75.000000) translate(-7.153389, -5.534870) "></path>
                    </g>
                    <path d="M12.6744396,4.40571065 C13.7583188,5.07506375 14.3206786,6.41845749 13.9673647,7.73704289 C13.5378863,9.33987823 11.9165811,10.2980951 10.3484059,9.87790379 L0.458365577,7.22787547 L0.743982673,6.16193796 L9.14657858,8.41340674 C10.7147538,8.83359803 12.336059,7.87538119 12.7655374,6.27254585 C12.9379464,5.62910662 12.8923139,4.97975998 12.6744396,4.40571065 Z" id="Combined-Shape-Copy-3" fill="url(#linearGradient-9)"></path>
                </g>
            </g>
        </g>
    </g>
</svg>