<?xml version="1.0" encoding="UTF-8"?>
<svg width="1391px" height="1380px" viewBox="0 0 1391 1380" version="1.1" xmlns="http://www.w3.org/2000/svg" xmlns:xlink="http://www.w3.org/1999/xlink">
    <!-- Generator: Sketch 41.2 (35397) - http://www.bohemiancoding.com/sketch -->
    <title>mountain copy</title>
    <desc>Created with Sketch.</desc>
    <defs>
        <polygon id="path-1" points="478.5 80 657 296 593 320 529 280 465 312 385 296"></polygon>
        <filter x="-50%" y="-50%" width="200%" height="200%" filterUnits="objectBoundingBox" id="filter-2">
            <feOffset dx="0" dy="6" in="SourceAlpha" result="shadowOffsetOuter1"></feOffset>
            <feColorMatrix values="0 0 0 0 0.521568627   0 0 0 0 0.521568627   0 0 0 0 0.521568627  0 0 0 1 0" type="matrix" in="shadowOffsetOuter1"></feColorMatrix>
        </filter>
        <polygon id="path-3" points="477.75 79 609 230.2 561.941176 247 514.882353 219 467.823529 241.4 409 230.2"></polygon>
        <filter x="-50%" y="-50%" width="200%" height="200%" filterUnits="objectBoundingBox" id="filter-4">
            <feOffset dx="0" dy="4" in="SourceAlpha" result="shadowOffsetOuter1"></feOffset>
            <feColorMatrix values="0 0 0 0 0.850980392   0 0 0 0 0.890196078   0 0 0 0 0.905882353  0 0 0 1 0" type="matrix" in="shadowOffsetOuter1"></feColorMatrix>
        </filter>
        <ellipse id="path-5" cx="128" cy="222.098503" rx="128" ry="43.5903237"></ellipse>
        <filter x="-50%" y="-50%" width="200%" height="200%" filterUnits="objectBoundingBox" id="filter-6">
            <feOffset dx="0" dy="0" in="SourceAlpha" result="shadowOffsetInner1"></feOffset>
            <feComposite in="shadowOffsetInner1" in2="SourceAlpha" operator="arithmetic" k2="-1" k3="1" result="shadowInnerInner1"></feComposite>
            <feColorMatrix values="0 0 0 0 0.435905612   0 0 0 0 0.435905612   0 0 0 0 0.435905612  0 0 0 0.5 0" type="matrix" in="shadowInnerInner1"></feColorMatrix>
        </filter>
        <path d="M0.451764706,4.47050833 C0.451764706,3.63900183 1.12967192,2.9366571 1.96326493,2.90188792 L25.2932057,1.92879566 C26.1279842,1.89397703 26.8047059,2.53096399 26.8047059,3.37271885 L26.8047059,16.7215625 C26.8047059,23.9969868 20.9069991,29.8948834 13.6282353,29.8948834 L13.6282353,29.8948834 C6.35107153,29.8948834 0.451764706,24.0016377 0.451764706,16.7257481 L0.451764706,4.47050833 Z" id="path-7"></path>
        <linearGradient x1="37.0590477%" y1="1.70370869%" x2="37.0590478%" y2="84.5704277%" id="linearGradient-9">
            <stop stop-color="#84D7FB" offset="0%"></stop>
            <stop stop-color="#6BC5ED" offset="100%"></stop>
        </linearGradient>
        <linearGradient x1="50%" y1="0%" x2="50%" y2="100%" id="linearGradient-10">
            <stop stop-color="#82D6FB" offset="0%"></stop>
            <stop stop-color="#94DEFF" offset="100%"></stop>
        </linearGradient>
        <linearGradient x1="37.0590477%" y1="1.70370869%" x2="62.9409523%" y2="98.2962913%" id="linearGradient-11">
            <stop stop-color="#67C2EB" offset="0%"></stop>
            <stop stop-color="#89D9FD" offset="100%"></stop>
        </linearGradient>
        <linearGradient x1="50%" y1="0%" x2="50%" y2="100%" id="linearGradient-12">
            <stop stop-color="#59C2F1" offset="0%"></stop>
            <stop stop-color="#94DEFF" offset="100%"></stop>
        </linearGradient>
        <linearGradient x1="0%" y1="31.68506%" x2="98.2962913%" y2="62.9409523%" id="linearGradient-13">
            <stop stop-color="#59C2F1" offset="0%"></stop>
            <stop stop-color="#7BD2F9" offset="100%"></stop>
        </linearGradient>
        <polygon id="path-14" points="806.59375 744 991 960 924.882353 984 858.764706 944 792.647059 976 710 960"></polygon>
        <filter x="-50%" y="-50%" width="200%" height="200%" filterUnits="objectBoundingBox" id="filter-15">
            <feOffset dx="0" dy="6" in="SourceAlpha" result="shadowOffsetOuter1"></feOffset>
            <feColorMatrix values="0 0 0 0 0.521568627   0 0 0 0 0.521568627   0 0 0 0 0.521568627  0 0 0 1 0" type="matrix" in="shadowOffsetOuter1"></feColorMatrix>
        </filter>
        <polygon id="path-16" points="806.4375 744 939 895.2 891.470588 912 843.941176 884 796.411765 906.4 737 895.2"></polygon>
        <filter x="-50%" y="-50%" width="200%" height="200%" filterUnits="objectBoundingBox" id="filter-17">
            <feOffset dx="0" dy="4" in="SourceAlpha" result="shadowOffsetOuter1"></feOffset>
            <feColorMatrix values="0 0 0 0 0.850980392   0 0 0 0 0.890196078   0 0 0 0 0.905882353  0 0 0 1 0" type="matrix" in="shadowOffsetOuter1"></feColorMatrix>
        </filter>
        <path d="M0,3.47551796 C0,2.37160098 0.900345519,1.43940121 2.00746124,1.39353718 L32.9925388,0.109931095 C34.101229,0.0640018401 35,0.92239901 35,2.02771975 L35,19.5013859 C35,29.1656036 27.1671082,37 17.5,37 L17.5,37 C7.83501688,37 0,29.1602845 0,19.4985219 L0,3.47551796 Z" id="path-18"></path>
    </defs>
    <g id="Logo" stroke="none" stroke-width="1" fill="none" fill-rule="evenodd">
        <g id="mountain-copy" transform="translate(0.000000, -1.000000)">
            <g id="Group-23" transform="translate(0.000000, 130.000000)">
                <polygon id="Path-10-Copy" fill="#DB5263" points="497 8 585 8 570 40 585 72 497 72"></polygon>
                <g id="Group-22-Copy-2" transform="translate(0.000000, 88.000000)">
                    <polygon id="Path-7" fill="#D1DCE0" points="0 1104 480 1131 480 0"></polygon>
                    <polygon id="Path-7-Copy" fill="#C5CCD0" transform="translate(935.000000, 565.500000) scale(-1, 1) translate(-935.000000, -565.500000) " points="479 1104 1391 1131 1391 0"></polygon>
                </g>
                <g id="Path-11">
                    <use fill="black" fill-opacity="1" filter="url(#filter-2)" xlink:href="#path-1"></use>
                    <use fill="#F1FBFF" fill-rule="evenodd" xlink:href="#path-1"></use>
                </g>
                <g id="Path-11-Copy">
                    <use fill="black" fill-opacity="1" filter="url(#filter-4)" xlink:href="#path-3"></use>
                    <use fill="#F6FCFF" fill-rule="evenodd" xlink:href="#path-3"></use>
                </g>
                <polyline id="Path-8" stroke="#DA5263" stroke-width="8" stroke-dasharray="32" points="17 1184 553 920 393 712 601 568 529 392 433 312 481 88"></polyline>
                <path d="M477,104 L477,12" id="Path-9" stroke="#676767" stroke-width="8"></path>
                <polygon id="Path-10" fill="#FF566B" points="473 0 545 0 545 27.4285714 545 64 473 64"></polygon>
                <polygon id="Path-12" fill="#632E2E" points="497 72 545 64 497 64"></polygon>
                <g id="Group-22-Copy" transform="translate(601.000000, 744.000000)">
                    <polygon id="Path-7" fill="#E3ECF0" points="0 472 208 507 208 0"></polygon>
                    <polygon id="Path-7-Copy" fill="#D9E3E8" transform="translate(400.000000, 253.500000) scale(-1, 1) translate(-400.000000, -253.500000) " points="208 472 592 507 592 0"></polygon>
                </g>
                <polygon id="Path-14" fill="#858585" points="616.058824 473.230769 643.588235 559.384615 680.294118 537.846154 726.176471 580.923077 790.411765 591.692308 817.941176 624 836.294118 591.692308 873 591.692308 845.470588 570.153846 845.470588 527.076923 817.941176 494.769231 717 430.153846 717 400 625.235294 344 597.705882 365.538462 561 365.538462 570.176471 397.846154 597.705882 408.615385 588.529412 430.153846"></polygon>
                <g id="favicon-copy" transform="translate(771.181524, 421.646968) rotate(-325.000000) translate(-771.181524, -421.646968) translate(643.181524, 288.646968)">
                    <g id="Oval-3">
                        <use fill="#1F282C" fill-rule="evenodd" xlink:href="#path-5"></use>
                        <use fill="black" fill-opacity="1" filter="url(#filter-6)" xlink:href="#path-5"></use>
                    </g>
                    <g id="caterpillar-body" transform="translate(116.052715, 132.544244) rotate(-7.000000) translate(-116.052715, -132.544244) translate(16.552715, 11.544244)">
                        <path d="M186.731777,213.445179 L186.837647,213.445179 C186.837647,213.445179 196.625882,212.687087 196.625882,199.04142 C196.625882,185.395754 186.837647,186.050807 186.837647,186.050807 C186.837647,186.050807 198.884706,186.050807 198.884706,170.991994 C198.884706,155.933182 186.837647,155.07205 186.837647,155.07205 C186.837647,155.07205 198.884706,155.07205 198.884706,138.394013 C198.884706,121.715976 186.837647,121.97009 186.837647,121.97009 L186.837647,120.951913 C186.837647,69.8721249 145.429838,28.4705882 94.3507174,28.4705882 L105.395165,28.4705882 C54.3200925,28.4705882 12.9082353,69.8785609 12.9082353,120.957884 L12.9082353,213.445179 L13.0141058,213.445179 C12.9438001,213.873904 12.9082353,214.305359 12.9082353,214.739297 C12.9082353,229.097163 51.8436603,240.736512 99.8729412,240.736512 C147.902222,240.736512 186.837647,229.097163 186.837647,214.739297 C186.837647,214.305359 186.802082,213.873904 186.731777,213.445179 Z" id="Combined-Shape" fill="#59C2F1"></path>
                        <g id="eyes" transform="translate(67.532583, 111.294118)" fill="#20292C">
                            <ellipse id="Oval-4" cx="6.70117647" cy="10.0428124" rx="4.89411765" ry="4.92760181"></ellipse>
                            <ellipse id="Oval-4-Copy" cx="72.2070588" cy="5.49425687" rx="4.89411765" ry="4.92760181"></ellipse>
                        </g>
                        <g id="mouth" transform="translate(98.252583, 132.000000)">
                            <mask id="mask-8" fill="white">
                                <use xlink:href="#path-7"></use>
                            </mask>
                            <use id="Mask" fill="#20292C" xlink:href="#path-7"></use>
                        </g>
                        <g id="Group-10" transform="translate(111.543529, 0.865298)">
                            <rect id="Rectangle-3-Copy" fill="#59C2F1" transform="translate(12.729368, 25.053637) rotate(-345.000000) translate(-12.729368, -25.053637) " x="5.19995597" y="3.82704469" width="15.0588235" height="42.4531848" rx="7.52941176"></rect>
                            <path d="M23.7258684,10.9165314 C23.7399148,7.57812813 21.5192731,4.51582332 18.145156,3.61173135 C14.1366431,2.53765358 9.99891138,4.92251686 8.92152862,8.94336405 L1.62374878,36.1790492 C0.895223332,38.8979432 1.75033049,41.6702604 3.62393913,43.5122523 C3.62661415,42.8764849 3.71033596,42.2307041 3.88257231,41.5879092 L11.1803522,14.3522241 C12.2577349,10.3313769 16.3954667,7.94651362 20.4039795,9.02059139 C21.7027276,9.36858989 22.8305773,10.0363481 23.7258684,10.9165314 Z" id="Combined-Shape-Copy-4" fill="url(#linearGradient-9)"></path>
                        </g>
                        <path d="M166.224712,62.7324861 C150.395462,41.8302633 126.22496,28.4705882 99.1418662,28.4705882 C54.2033413,28.4705882 12.8050906,69.8785609 12.8050906,120.957884 C12.8050906,120.957884 0.108235294,119.441699 0.108235294,139.152106 C0.108235294,158.862513 12.8050906,158.862513 12.8050906,158.862513 C12.8050906,158.862513 0.108235294,158.862513 0.108235294,174.024365 C0.108235294,189.186216 12.8050906,189.186216 12.8050906,189.186216 C12.8050906,189.186216 1.61411765,189.186216 1.61411765,201.315698 C1.61411765,213.445179 12.8050906,213.445179 12.8050906,213.445179 L12.9082353,213.445179 C12.9082353,220.793419 22.1701878,227.46336 37.2333062,232.369853 L37.2333062,139.008515 C37.2333062,90.9392759 76.2045841,51.9714584 124.271451,51.9714584 C139.482712,51.9714584 153.782592,55.8741232 166.224712,62.7324861 Z" id="Combined-Shape-Copy-5" fill="url(#linearGradient-10)"></path>
                        <g id="Group-9" transform="translate(37.002353, 10.276366)">
                            <rect id="Rectangle-3-Copy-9" fill="#59C2F1" transform="translate(17.247015, 23.223494) rotate(-15.000000) translate(-17.247015, -23.223494) " x="9.71760303" y="1.99690198" width="15.0588235" height="42.4531848" rx="7.52941176"></rect>
                            <path d="M19.8297433,5.79555007 C17.5608572,1.88476203 12.8760411,-0.184622982 8.29742368,1.04221386 C2.82114279,2.5095789 -0.427514206,8.1343183 1.03865638,13.6061414 L7.72462993,38.5585344 C8.79824637,42.5653255 12.1026607,45.3787571 15.9448012,46.0222287 C15.50057,45.2565251 15.1489528,44.4202318 14.9088801,43.5242681 L8.22290655,18.5718751 C6.75673597,13.100052 10.005393,7.4753126 15.4816738,6.00794756 C16.9477418,5.61511583 18.424698,5.56023681 19.8297433,5.79555007 Z" id="Combined-Shape-Copy-6" fill="url(#linearGradient-11)"></path>
                        </g>
                        <g id="hand" transform="translate(87.059898, 187.078846) rotate(-497.000000) translate(-87.059898, -187.078846) translate(67.859898, 171.549434)">
                            <g id="Group-2" transform="translate(-0.000000, 0.000000)">
                                <path d="M26.5924311,-0.449445596 L26.5924311,26.0512967 C26.5924311,30.2560747 23.2223129,33.6647208 19.0630193,33.6647208 L19.0630193,33.6647208 C14.90464,33.6647208 11.5336075,30.2532824 11.5336075,26.0512967 L11.5336075,-0.449445596" id="Rectangle-3-Copy-6" fill="#3B86A7" transform="translate(19.063019, 16.607638) rotate(-68.000000) translate(-19.063019, -16.607638) "></path>
                                <path d="M25.8420868,-2.73153783 L25.8420868,23.7692045 C25.8420868,27.9739825 22.4719686,31.3826285 18.312675,31.3826285 L18.312675,31.3826285 C14.1542958,31.3826285 10.7832633,27.9711901 10.7832633,23.7692045 L10.7832633,-2.73153783" id="Rectangle-3-Copy-2" fill="url(#linearGradient-12)" transform="translate(18.312675, 14.325545) rotate(-75.000000) translate(-18.312675, -14.325545) "></path>
                            </g>
                            <g id="Group-2-Copy-4" transform="translate(-0.000000, 10.169161)" fill="url(#linearGradient-13)">
                                <path d="M31.8856928,0.597807733 C34.6480247,2.33426856 36.0801968,5.75058011 35.1832493,9.09803375 C34.0837845,13.2012922 29.8972957,15.6446952 25.8384893,14.5571413 L0.24073786,7.69824446 L0.982255251,4.93086388 L22.7618113,10.7666783 C26.8206178,11.8542323 31.0071066,9.41082928 32.1065714,5.30757082 C32.5406082,3.6877235 32.4292504,2.05175218 31.8856928,0.597807733 Z" id="Combined-Shape"></path>
                            </g>
                        </g>
                        <g id="Group-4-Copy-2" transform="translate(170.455019, 208.501894) rotate(-300.000000) translate(-170.455019, -208.501894) translate(151.255019, 192.972482)">
                            <g id="Group-2-Copy" transform="translate(-0.000000, 0.000000)">
                                <path d="M26.5924311,-0.449445596 L26.5924311,26.0512967 C26.5924311,30.2560747 23.2223129,33.6647208 19.0630193,33.6647208 L19.0630193,33.6647208 C14.90464,33.6647208 11.5336075,30.2532824 11.5336075,26.0512967 L11.5336075,-0.449445596" id="Rectangle-3-Copy-6" fill="#3B86A7" transform="translate(19.063019, 16.607638) rotate(-68.000000) translate(-19.063019, -16.607638) "></path>
                                <path d="M25.8420868,-2.73153783 L25.8420868,23.7692045 C25.8420868,27.9739825 22.4719686,31.3826285 18.312675,31.3826285 L18.312675,31.3826285 C14.1542958,31.3826285 10.7832633,27.9711901 10.7832633,23.7692045 L10.7832633,-2.73153783" id="Rectangle-3-Copy-2" fill="url(#linearGradient-12)" transform="translate(18.312675, 14.325545) rotate(-75.000000) translate(-18.312675, -14.325545) "></path>
                            </g>
                            <path d="M31.8856928,10.7669689 C34.6480247,12.5034297 36.0801968,15.9197413 35.1832493,19.2671949 C34.0837845,23.3704534 29.8972957,25.8138564 25.8384893,24.7263024 L0.24073786,17.8674056 L0.982255251,15.100025 L22.7618113,20.9358395 C26.8206178,22.0233934 31.0071066,19.5799904 32.1065714,15.476732 C32.5406082,13.8568847 32.4292504,12.2209133 31.8856928,10.7669689 Z" id="Combined-Shape-Copy" fill="url(#linearGradient-13)"></path>
                        </g>
                        <g id="Group-4-Copy" transform="translate(93.655019, 219.115190) rotate(-156.000000) translate(-93.655019, -219.115190) translate(74.455019, 203.585779)">
                            <g id="Group-2-Copy" transform="translate(-0.000000, 0.000000)">
                                <path d="M26.5924311,-0.449445596 L26.5924311,26.0512967 C26.5924311,30.2560747 23.2223129,33.6647208 19.0630193,33.6647208 L19.0630193,33.6647208 C14.90464,33.6647208 11.5336075,30.2532824 11.5336075,26.0512967 L11.5336075,-0.449445596" id="Rectangle-3-Copy-6" fill="#3B86A7" transform="translate(19.063019, 16.607638) rotate(-68.000000) translate(-19.063019, -16.607638) "></path>
                                <path d="M25.8420868,-2.73153783 L25.8420868,23.7692045 C25.8420868,27.9739825 22.4719686,31.3826285 18.312675,31.3826285 L18.312675,31.3826285 C14.1542958,31.3826285 10.7832633,27.9711901 10.7832633,23.7692045 L10.7832633,-2.73153783" id="Rectangle-3-Copy-2" fill="url(#linearGradient-12)" transform="translate(18.312675, 14.325545) rotate(-75.000000) translate(-18.312675, -14.325545) "></path>
                            </g>
                            <path d="M31.8856928,10.7669689 C34.6480247,12.5034297 36.0801968,15.9197413 35.1832493,19.2671949 C34.0837845,23.3704534 29.8972957,25.8138564 25.8384893,24.7263024 L0.24073786,17.8674056 L0.982255251,15.100025 L22.7618113,20.9358395 C26.8206178,22.0233934 31.0071066,19.5799904 32.1065714,15.476732 C32.5406082,13.8568847 32.4292504,12.2209133 31.8856928,10.7669689 Z" id="Combined-Shape-Copy" fill="url(#linearGradient-13)"></path>
                        </g>
                        <g id="Group-6-Copy" transform="translate(170.636369, 177.981735) rotate(-300.000000) translate(-170.636369, -177.981735) translate(151.436369, 162.452323)">
                            <g id="Group-2-Copy-2" transform="translate(-0.000000, 0.000000)">
                                <path d="M26.5924311,-0.449445596 L26.5924311,26.0512967 C26.5924311,30.2560747 23.2223129,33.6647208 19.0630193,33.6647208 L19.0630193,33.6647208 C14.90464,33.6647208 11.5336075,30.2532824 11.5336075,26.0512967 L11.5336075,-0.449445596" id="Rectangle-3-Copy-6" fill="#3B86A7" transform="translate(19.063019, 16.607638) rotate(-68.000000) translate(-19.063019, -16.607638) "></path>
                                <path d="M25.8420868,-2.73153783 L25.8420868,23.7692045 C25.8420868,27.9739825 22.4719686,31.3826285 18.312675,31.3826285 L18.312675,31.3826285 C14.1542958,31.3826285 10.7832633,27.9711901 10.7832633,23.7692045 L10.7832633,-2.73153783" id="Rectangle-3-Copy-2" fill="url(#linearGradient-12)" transform="translate(18.312675, 14.325545) rotate(-75.000000) translate(-18.312675, -14.325545) "></path>
                            </g>
                            <path d="M32.638634,11.5250615 C35.4009658,13.2615223 36.833138,16.6778338 35.9361905,20.0252875 C34.8367257,24.128546 30.6502369,26.5719489 26.5914304,25.484395 L0.993679036,18.6254982 L1.73519643,15.8581176 L23.5147525,21.6939321 C27.573559,22.781486 31.7600478,20.338083 32.8595126,16.2348246 C33.2935493,14.6149772 33.1821915,12.9790059 32.638634,11.5250615 Z" id="Combined-Shape-Copy-3" fill="url(#linearGradient-13)"></path>
                        </g>
                    </g>
                </g>
                <g id="Path-11-Copy-2">
                    <use fill="black" fill-opacity="1" filter="url(#filter-15)" xlink:href="#path-14"></use>
                    <use fill="#F1FBFF" fill-rule="evenodd" xlink:href="#path-14"></use>
                </g>
                <g id="Path-11-Copy-3">
                    <use fill="black" fill-opacity="1" filter="url(#filter-17)" xlink:href="#path-16"></use>
                    <use fill="#F6FCFF" fill-rule="evenodd" xlink:href="#path-16"></use>
                </g>
                <g id="Group-22" transform="translate(193.000000, 1012.000000)">
                    <path d="M52,72 L52,200" id="Path-13-Copy" stroke="#8B572A" stroke-width="8"></path>
                    <polygon id="Path-7" fill="#7DBF34" points="0 128 56 128 56 0"></polygon>
                    <polygon id="Path-7" fill="#7ED321" transform="translate(84.000000, 64.000000) scale(-1, 1) translate(-84.000000, -64.000000) " points="56 128 112 128 112 0"></polygon>
                </g>
                <g id="Group-24" transform="translate(417.000000, 520.000000)">
                    <g id="Group-22-Copy-3" transform="translate(0.000000, 24.000000)">
                        <path d="M44,56 L44,160" id="Path-13-Copy" stroke="#8B572A" stroke-width="8"></path>
                        <polygon id="Path-7" fill="#7DBF34" points="0 104 48 104 48 0"></polygon>
                        <polygon id="Path-7" fill="#7ED321" transform="translate(72.000000, 52.000000) scale(-1, 1) translate(-72.000000, -52.000000) " points="48 104 96 104 96 0"></polygon>
                    </g>
                    <polygon id="Path-11-Copy-4" fill="#F1FBFF" points="43.6305494 16 65.8343254 57.2684349 57.8733077 61.8538166 49.9122899 54.2115138 41.9512722 60.325356 32 57.2684349"></polygon>
                    <polygon id="Path-11-Copy-5" fill="#F6FDFF" points="40.5518745 0 56.8781805 40.4079044 51.0244909 44.8976716 45.1708014 37.4147263 39.3171119 43.4010825 32 40.4079044"></polygon>
                </g>
            </g>
            <g id="Group-51" transform="translate(190.000000, 0.000000)">
                <g id="Group-21">
                    <g id="Group-16-Copy">
                        <path d="M184.697085,41.9997492 C189.329164,34.215602 197.826718,29 207.545343,29 C222.218624,29 234.113669,40.8920778 234.113669,55.566747 L234.113669,85.8988248 C234.113669,92.3473899 231.816613,98.2593351 227.995656,102.86073 L227.995656,62.6391688 C227.995656,47.9695145 216.100611,36.0733535 201.427329,36.0733535 C195.085786,36.0733535 189.264145,38.2939492 184.697085,41.9997492 Z" id="Combined-Shape-Copy-2" fill="#FEE65F"></path>
                        <g id="Group-15">
                            <path d="M233.218274,176.233524 L233.218274,55.0576602 C233.218274,40.6565963 221.552678,29 207.162437,29 C192.769031,29 181.106599,40.6664119 181.106599,55.0576602 L181.106599,98.1851788 C174.926256,96.444688 168.40677,95.5136187 161.669811,95.5136187 L154.721052,95.5136187 C115.200099,95.5136187 83.1725888,127.546774 83.1725888,167.061673 L83.1725888,188.451946 C83.1725888,227.968233 115.205927,260 154.721052,260 L161.669811,260 C201.190764,260 233.218274,227.966845 233.218274,188.451946 L233.218274,176.233524 Z" id="Combined-Shape" fill="#FFD900"></path>
                            <g id="Group-14-Copy" transform="translate(0.862944, 0.354086)">
                                <g id="Group-18-Copy" transform="translate(0.000000, 0.645914)" fill="#FAFAFA">
                                    <g id="Group-17">
                                        <rect id="Rectangle-32" x="0" y="0" width="530.631308" height="57.5" rx="28.75"></rect>
                                    </g>
                                </g>
                                <ellipse id="Oval-4" fill="#20292C" cx="152.840102" cy="147.741245" rx="5.84010152" ry="5.84241245"></ellipse>
                                <ellipse id="Oval-4-Copy-2" fill="#20292C" cx="192.373096" cy="146.842412" rx="5.84010152" ry="5.84241245"></ellipse>
                            </g>
                        </g>
                        <path d="M84.0998235,47.0532914 C87.6493361,36.5562327 97.5770818,29 109.273439,29 C123.946721,29 135.841766,40.8954944 135.841766,55.5734301 L135.841766,120.42657 C135.841766,126.876757 133.54471,132.79019 129.723753,137.392742 L129.723753,65.5682897 C129.723753,50.9015249 117.828708,39 103.155426,39 C95.6799576,39 88.9269396,42.0860067 84.0998235,47.0532914 Z" id="Combined-Shape" fill="#FEE65F"></path>
                        <g id="Group-14" transform="translate(61.000000, 49.000000)">
                            <circle id="Oval-8" fill="#FFD900" cx="18" cy="18" r="18"></circle>
                            <path d="M30,31.2689587 C26.813803,34.2059921 22.5573091,36 17.8816841,36 C8.00590267,36 0,27.9963525 0,18.1233531 C0,10.0410809 5.36511479,3.21154544 12.7291429,1 C9.18550483,4.26652222 6.96577468,8.94691407 6.96577468,14.1456056 C6.96577468,24.0186051 14.9716773,32.0222526 24.8474588,32.0222526 C26.6386907,32.0222526 28.3684085,31.7589539 30,31.2689587 Z" id="Combined-Shape" fill="#FFE75F"></path>
                        </g>
                        <g id="Group-14-Copy-2" transform="translate(63.000000, 76.000000)">
                            <ellipse id="Oval-8" fill="#FFD900" cx="17.9695431" cy="17.9766537" rx="17.9695431" ry="17.9766537"></ellipse>
                            <path d="M30.1474006,31.4382914 C26.9455488,34.3917553 22.6681412,36.1957994 17.9695431,36.1957994 C8.04523851,36.1957994 0,28.1473774 0,18.2191457 C0,10.0916591 5.39147551,3.22391742 12.7916857,1 C9.23063647,4.28479602 7,8.99137124 7,14.2191457 C7,24.1473774 15.0452385,32.1957994 24.9695431,32.1957994 C26.769576,32.1957994 28.5077926,31.9310278 30.1474006,31.4382914 Z" id="Combined-Shape" fill="#FFE75F"></path>
                        </g>
                        <g id="Group-14-Copy-4" transform="translate(235.000000, 89.500000) scale(-1, 1) translate(-235.000000, -89.500000) translate(217.000000, 71.000000)">
                            <ellipse id="Oval-8" fill="#FFD900" cx="17.9695431" cy="17.9766537" rx="17.9695431" ry="17.9766537"></ellipse>
                            <path d="M30.1474006,31.4382914 C26.9455488,34.3917553 22.6681412,36.1957994 17.9695431,36.1957994 C8.04523851,36.1957994 0,28.1473774 0,18.2191457 C0,10.0916591 5.39147551,3.22391742 12.7916857,1 C9.23063647,4.28479602 7,8.99137124 7,14.2191457 C7,24.1473774 15.0452385,32.1957994 24.9695431,32.1957994 C26.769576,32.1957994 28.5077926,31.9310278 30.1474006,31.4382914 Z" id="Combined-Shape" fill="#FFE75F"></path>
                        </g>
                    </g>
                    <g id="Group-16" transform="translate(164.000000, 167.000000)">
                        <mask id="mask-19" fill="white">
                            <use xlink:href="#path-18"></use>
                        </mask>
                        <use id="Mask" fill="#20292C" xlink:href="#path-18"></use>
                        <ellipse id="Oval-5" fill="#FF7C7C" mask="url(#mask-19)" cx="17.5" cy="47.5" rx="26.5" ry="16.5"></ellipse>
                        <g id="Group-11" mask="url(#mask-19)">
                            <g transform="translate(1.000000, -2.000000)">
                                <rect id="Rectangle-2" fill="#FFFFFF" x="0" y="0" width="6" height="9" rx="3"></rect>
                                <path d="M1.43748108,0.438988423 C0.57614548,0.965643882 0,1.91421228 0,2.99686968 L0,6.00313032 C0,7.65260907 1.34314575,9 3,9 C4.08346859,9 5.03513481,8.42389322 5.56251892,7.56101158 C5.10707745,7.83948693 4.57189991,8 4,8 C2.34314575,8 1,6.65260907 1,5.00313032 L1,1.99686968 C1,1.42628914 1.16002358,0.892951631 1.43748108,0.438988423 Z" id="Combined-Shape" fill="#E3E3E3"></path>
                            </g>
                        </g>
                        <g id="Group-11-Copy" mask="url(#mask-19)">
                            <g transform="translate(9.000000, -3.000000)">
                                <rect id="Rectangle-2" fill="#FFFFFF" x="0" y="0" width="6" height="9" rx="3"></rect>
                                <path d="M1.43748108,0.438988423 C0.57614548,0.965643882 0,1.91421228 0,2.99686968 L0,6.00313032 C0,7.65260907 1.34314575,9 3,9 C4.08346859,9 5.03513481,8.42389322 5.56251892,7.56101158 C5.10707745,7.83948693 4.57189991,8 4,8 C2.34314575,8 1,6.65260907 1,5.00313032 L1,1.99686968 C1,1.42628914 1.16002358,0.892951631 1.43748108,0.438988423 Z" id="Combined-Shape" fill="#E3E3E3"></path>
                            </g>
                        </g>
                        <g id="Group-11-Copy-2" mask="url(#mask-19)">
                            <g transform="translate(17.000000, -3.000000)">
                                <rect id="Rectangle-2" fill="#FFFFFF" x="0" y="0" width="6" height="9" rx="3"></rect>
                                <path d="M1.43748108,0.438988423 C0.57614548,0.965643882 0,1.91421228 0,2.99686968 L0,6.00313032 C0,7.65260907 1.34314575,9 3,9 C4.08346859,9 5.03513481,8.42389322 5.56251892,7.56101158 C5.10707745,7.83948693 4.57189991,8 4,8 C2.34314575,8 1,6.65260907 1,5.00313032 L1,1.99686968 C1,1.42628914 1.16002358,0.892951631 1.43748108,0.438988423 Z" id="Combined-Shape" fill="#E3E3E3"></path>
                            </g>
                        </g>
                        <g id="Group-11-Copy-3" mask="url(#mask-19)">
                            <g transform="translate(26.000000, -3.000000)">
                                <rect id="Rectangle-2" fill="#FFFFFF" x="0" y="0" width="6" height="9" rx="3"></rect>
                                <path d="M1.43748108,0.438988423 C0.57614548,0.965643882 0,1.91421228 0,2.99686968 L0,6.00313032 C0,7.65260907 1.34314575,9 3,9 C4.08346859,9 5.03513481,8.42389322 5.56251892,7.56101158 C5.10707745,7.83948693 4.57189991,8 4,8 C2.34314575,8 1,6.65260907 1,5.00313032 L1,1.99686968 C1,1.42628914 1.16002358,0.892951631 1.43748108,0.438988423 Z" id="Combined-Shape" fill="#E3E3E3"></path>
                            </g>
                        </g>
                    </g>
                </g>
                <rect id="Rectangle-32-Copy-2" fill="#36C1FF" x="1" y="1" width="378.631308" height="57.5" rx="28.75"></rect>
                <rect id="Rectangle-4" fill="#FFD900" x="83.1725888" y="29" width="52.1116751" height="182.463035" rx="26.0558376"></rect>
            </g>
            <g id="Group-14-Copy-3" transform="translate(423.000000, 62.500000) scale(-1, 1) translate(-423.000000, -62.500000) translate(405.000000, 44.000000)">
                <ellipse id="Oval-8" fill="#FFD900" cx="17.9695431" cy="17.9766537" rx="17.9695431" ry="17.9766537"></ellipse>
                <path d="M30.1474006,31.4382914 C26.9455488,34.3917553 22.6681412,36.1957994 17.9695431,36.1957994 C8.04523851,36.1957994 0,28.1473774 0,18.2191457 C0,10.0916591 5.39147551,3.22391742 12.7916857,1 C9.23063647,4.28479602 7,8.99137124 7,14.2191457 C7,24.1473774 15.0452385,32.1957994 24.9695431,32.1957994 C26.769576,32.1957994 28.5077926,31.9310278 30.1474006,31.4382914 Z" id="Combined-Shape" fill="#FFE75F"></path>
            </g>
        </g>
    </g>
</svg>