<?xml version="1.0" encoding="UTF-8"?>
<svg width="228px" height="44px" viewBox="0 0 228 44" version="1.1" xmlns="http://www.w3.org/2000/svg" xmlns:xlink="http://www.w3.org/1999/xlink">
    <!-- Generator: Sketch 41.2 (35397) - http://www.bohemiancoding.com/sketch -->
    <title>paypal-button</title>
    <desc>Created with Sketch.</desc>
    <defs>
        <rect id="path-1" x="0" y="0" width="228" height="44" rx="3"></rect>
        <mask id="mask-2" maskContentUnits="userSpaceOnUse" maskUnits="objectBoundingBox" x="0" y="0" width="228" height="44" fill="white">
            <use xlink:href="#path-1"></use>
        </mask>
    </defs>
    <g id="Logo" stroke="none" stroke-width="1" fill="none" fill-rule="evenodd">
        <g id="paypal-button">
            <use id="Rectangle-9-Copy" stroke="#DE9200" mask="url(#mask-2)" stroke-width="2" fill="#FFC520" xlink:href="#path-1"></use>
            <path d="M28,23.704 C28,24.3226698 27.8773346,24.8426646 27.632,25.264 C27.3866654,25.6853354 27.0613354,26.0239987 26.656,26.28 C26.2506646,26.5360013 25.7893359,26.7199994 25.272,26.832 C24.7546641,26.9440006 24.2240027,27 23.68,27 L19.168,27 L19.168,15.672 L23.68,15.672 C24.1173355,15.672 24.565331,15.7173329 25.024,15.808 C25.482669,15.8986671 25.8986648,16.0533322 26.272,16.272 C26.6453352,16.4906678 26.9493322,16.7866648 27.184,17.16 C27.4186678,17.5333352 27.536,18.0079971 27.536,18.584 C27.536,19.2133365 27.365335,19.7333313 27.024,20.144 C26.682665,20.5546687 26.2346694,20.8506658 25.68,21.032 L25.68,21.064 C26.0000016,21.1173336 26.3013319,21.2159993 26.584,21.36 C26.8666681,21.5040007 27.111999,21.6879989 27.32,21.912 C27.528001,22.1360011 27.6933327,22.3973318 27.816,22.696 C27.9386673,22.9946682 28,23.3306648 28,23.704 Z M24.896,18.952 C24.896,18.5679981 24.7493348,18.2880009 24.456,18.112 C24.1626652,17.9359991 23.7280029,17.848 23.152,17.848 L21.808,17.848 L21.808,20.184 L23.28,20.184 C23.7920026,20.184 24.1893319,20.080001 24.472,19.872 C24.7546681,19.663999 24.896,19.3573354 24.896,18.952 Z M25.264,23.448 C25.264,22.9786643 25.0880018,22.6533342 24.736,22.472 C24.3839982,22.2906658 23.9146696,22.2 23.328,22.2 L21.808,22.2 L21.808,24.792 L23.344,24.792 C23.5573344,24.792 23.7786655,24.7733335 24.008,24.736 C24.2373345,24.6986665 24.4453324,24.6320005 24.632,24.536 C24.8186676,24.4399995 24.9706661,24.3040009 25.088,24.128 C25.2053339,23.9519991 25.264,23.7253347 25.264,23.448 Z M34.112,27 L34.112,25.896 L34.08,25.896 C33.9839996,26.0773342 33.8586675,26.2479992 33.704,26.408 C33.5493326,26.5680008 33.3680011,26.7066661 33.16,26.824 C32.951999,26.9413339 32.722668,27.037333 32.472,27.112 C32.2213321,27.186667 31.9573348,27.224 31.68,27.224 C31.146664,27.224 30.6960019,27.128001 30.328,26.936 C29.9599982,26.743999 29.6613345,26.4960015 29.432,26.192 C29.2026656,25.8879985 29.0373339,25.5413353 28.936,25.152 C28.8346662,24.7626647 28.784,24.3653354 28.784,23.96 L28.784,19.032 L31.424,19.032 L31.424,23.352 C31.424,23.5760011 31.4399999,23.7893323 31.472,23.992 C31.5040002,24.1946677 31.5653329,24.3759992 31.656,24.536 C31.7466672,24.6960008 31.866666,24.8213329 32.016,24.912 C32.1653341,25.0026671 32.3626655,25.048 32.608,25.048 C33.066669,25.048 33.4159988,24.877335 33.656,24.536 C33.8960012,24.194665 34.016,23.794669 34.016,23.336 L34.016,19.032 L36.64,19.032 L36.64,27 L34.112,27 Z M42.3840001,28.2 C42.2239993,28.6160021 42.0453344,28.986665 41.8480001,29.312 C41.6506658,29.637335 41.4160015,29.9146655 41.1440001,30.144 C40.8719987,30.3733345 40.5520019,30.5466661 40.1840001,30.664 C39.8159983,30.7813339 39.3813359,30.84 38.8800001,30.84 C38.6346655,30.84 38.3813347,30.8240002 38.1200001,30.792 C37.8586655,30.7599998 37.6320011,30.7173336 37.4400001,30.664 L37.7280001,28.456 C37.8560007,28.4986669 37.9973327,28.5333332 38.1520001,28.56 C38.3066675,28.5866668 38.4479995,28.6 38.5760001,28.6 C38.9813355,28.6 39.2746659,28.5066676 39.4560001,28.32 C39.6373343,28.1333324 39.7919995,27.869335 39.9200001,27.528 L40.1760001,26.872 L36.8480001,19.032 L39.7600001,19.032 L41.5360001,24.152 L41.5840001,24.152 L43.1680001,19.032 L45.9520001,19.032 L42.3840001,28.2 Z M54.5920002,27 L54.5920002,22.648 C54.5920002,22.4239989 54.5733337,22.2106677 54.5360002,22.008 C54.4986667,21.8053323 54.437334,21.6266674 54.3520002,21.472 C54.2666664,21.3173326 54.1466676,21.1946671 53.9920002,21.104 C53.8373328,21.0133329 53.642668,20.968 53.4080002,20.968 C53.1733324,20.968 52.9680011,21.0133329 52.7920002,21.104 C52.6159993,21.1946671 52.4693341,21.3199992 52.3520002,21.48 C52.2346663,21.6400008 52.1466672,21.823999 52.0880002,22.032 C52.0293332,22.240001 52.0000002,22.4559989 52.0000002,22.68 L52.0000002,27 L49.3600002,27 L49.3600002,19.032 L51.9040002,19.032 L51.9040002,20.136 L51.9360002,20.136 C52.0320007,19.9653325 52.1573328,19.7973342 52.3120002,19.632 C52.4666676,19.4666658 52.6479992,19.3253339 52.8560002,19.208 C53.0640012,19.0906661 53.2906656,18.994667 53.5360002,18.92 C53.7813348,18.845333 54.0426655,18.808 54.3200002,18.808 C54.8533362,18.808 55.306665,18.903999 55.6800002,19.096 C56.0533354,19.288001 56.3546657,19.5359985 56.5840002,19.84 C56.8133347,20.1440015 56.9786664,20.4933314 57.0800002,20.888 C57.181334,21.2826686 57.2320002,21.6773314 57.2320002,22.072 L57.2320002,27 L54.5920002,27 Z M66.8640002,22.984 C66.8640002,23.6346699 66.7466681,24.2239974 66.5120002,24.752 C66.2773324,25.2800026 65.9573356,25.7279982 65.5520002,26.096 C65.1466649,26.4640018 64.6773362,26.7493323 64.1440002,26.952 C63.6106642,27.1546677 63.0400033,27.256 62.4320002,27.256 C61.8346639,27.256 61.2666696,27.1546677 60.7280002,26.952 C60.1893309,26.7493323 59.7200022,26.4640018 59.3200002,26.096 C58.9199982,25.7279982 58.6026681,25.2800026 58.3680002,24.752 C58.1333324,24.2239974 58.0160002,23.6346699 58.0160002,22.984 C58.0160002,22.3333301 58.1333324,21.7466693 58.3680002,21.224 C58.6026681,20.7013307 58.9199982,20.2586685 59.3200002,19.896 C59.7200022,19.5333315 60.1893309,19.256001 60.7280002,19.064 C61.2666696,18.871999 61.8346639,18.776 62.4320002,18.776 C63.0400033,18.776 63.6106642,18.871999 64.1440002,19.064 C64.6773362,19.256001 65.1466649,19.5333315 65.5520002,19.896 C65.9573356,20.2586685 66.2773324,20.7013307 66.5120002,21.224 C66.7466681,21.7466693 66.8640002,22.3333301 66.8640002,22.984 Z M64.3360002,22.984 C64.3360002,22.7279987 64.293334,22.4773346 64.2080002,22.232 C64.1226665,21.9866654 64.000001,21.7706676 63.8400002,21.584 C63.6799994,21.3973324 63.4826681,21.2453339 63.2480002,21.128 C63.0133324,21.0106661 62.7413351,20.952 62.4320002,20.952 C62.1226654,20.952 61.8506681,21.0106661 61.6160002,21.128 C61.3813324,21.2453339 61.1866677,21.3973324 61.0320002,21.584 C60.8773328,21.7706676 60.7600006,21.9866654 60.6800002,22.232 C60.5999998,22.4773346 60.5600002,22.7279987 60.5600002,22.984 C60.5600002,23.2400013 60.5999998,23.4906654 60.6800002,23.736 C60.7600006,23.9813346 60.8799994,24.2026657 61.0400002,24.4 C61.200001,24.5973343 61.3973324,24.7546661 61.6320002,24.872 C61.8666681,24.9893339 62.1386654,25.048 62.4480002,25.048 C62.7573351,25.048 63.0293324,24.9893339 63.2640002,24.872 C63.4986681,24.7546661 63.6959994,24.5973343 63.8560002,24.4 C64.016001,24.2026657 64.1359998,23.9813346 64.2160002,23.736 C64.2960006,23.4906654 64.3360002,23.2400013 64.3360002,22.984 Z M77.8720003,27 L75.2320003,27 L73.6640003,22.04 L73.6320003,22.04 L72.0960003,27 L69.4560003,27 L66.7040003,19.032 L69.5360003,19.032 L70.9120003,24.072 L70.9600003,24.072 L72.3840003,19.032 L75.0240003,19.032 L76.4960003,24.072 L76.5280003,24.072 L77.9200003,19.032 L80.6400003,19.032 L77.8720003,27 Z M94.2080004,27 L91.5680004,27 L90.0000004,22.04 L89.9680004,22.04 L88.4320004,27 L85.7920004,27 L83.0400004,19.032 L85.8720004,19.032 L87.2480004,24.072 L87.2960004,24.072 L88.7200004,19.032 L91.3600004,19.032 L92.8320004,24.072 L92.8640004,24.072 L94.2560004,19.032 L96.9760004,19.032 L94.2080004,27 Z M100.048,16.488 C100.048,16.6906677 100.008001,16.8799991 99.9280004,17.056 C99.848,17.2320009 99.7413344,17.3839994 99.6080004,17.512 C99.4746664,17.6400006 99.314668,17.741333 99.1280004,17.816 C98.9413328,17.890667 98.7466681,17.928 98.5440004,17.928 C98.1173316,17.928 97.7600019,17.7866681 97.4720004,17.504 C97.183999,17.2213319 97.0400004,16.8826686 97.0400004,16.488 C97.0400004,16.295999 97.0773334,16.1120009 97.1520004,15.936 C97.2266675,15.7599991 97.3333331,15.6080006 97.4720004,15.48 C97.6106678,15.3519994 97.7706662,15.2480004 97.9520004,15.168 C98.1333347,15.0879996 98.330666,15.048 98.5440004,15.048 C98.7466681,15.048 98.9413328,15.085333 99.1280004,15.16 C99.314668,15.234667 99.4746664,15.3359994 99.6080004,15.464 C99.7413344,15.5920006 99.848,15.7439991 99.9280004,15.92 C100.008001,16.0960009 100.048,16.2853323 100.048,16.488 Z M97.2320004,27 L97.2320004,19.032 L99.8560004,19.032 L99.8560004,27 L97.2320004,27 Z M103.984,21 L103.984,24.04 C103.984,24.4133352 104.056,24.6933324 104.2,24.88 C104.344001,25.0666676 104.602665,25.16 104.976,25.16 C105.104001,25.16 105.24,25.1493334 105.384,25.128 C105.528001,25.1066666 105.648,25.0746669 105.744,25.032 L105.776,26.952 C105.594666,27.0160003 105.365335,27.0719998 105.088,27.12 C104.810666,27.1680002 104.533335,27.192 104.256,27.192 C103.722664,27.192 103.274669,27.125334 102.912,26.992 C102.549332,26.858666 102.258668,26.6666679 102.04,26.416 C101.821333,26.1653321 101.664001,25.8666684 101.568,25.52 C101.472,25.1733316 101.424,24.7866688 101.424,24.36 L101.424,21 L100.144,21 L100.144,19.032 L101.408,19.032 L101.408,16.936 L103.984,16.936 L103.984,19.032 L105.856,19.032 L105.856,21 L103.984,21 Z M111.536001,27 L111.536001,22.68 C111.536001,22.4559989 111.520001,22.2426677 111.488001,22.04 C111.456,21.8373323 111.394668,21.6586674 111.304001,21.504 C111.213333,21.3493326 111.093335,21.2266671 110.944001,21.136 C110.794666,21.0453329 110.602668,21 110.368001,21 C109.909332,21 109.557335,21.162665 109.312001,21.488 C109.066666,21.813335 108.944001,22.2159976 108.944001,22.696 L108.944001,27 L106.320001,27 L106.320001,14.904 L108.944001,14.904 L108.944001,20.04 L108.976001,20.04 C109.157335,19.7199984 109.445332,19.4346679 109.840001,19.184 C110.234669,18.9333321 110.709331,18.808 111.264001,18.808 C111.808003,18.808 112.263999,18.903999 112.632001,19.096 C113.000002,19.288001 113.298666,19.5359985 113.528001,19.84 C113.757335,20.1440015 113.922667,20.4933314 114.024001,20.888 C114.125334,21.2826686 114.176001,21.6773314 114.176001,22.072 L114.176001,27 L111.536001,27 Z" id="Buy-now-with" fill="#333333"></path>
            <g id="Group-31-Copy" transform="translate(127.000000, 12.000000)">
                <path d="M15.0686077,5.10760692 C14.6736891,9.42939643 12.3947846,11.8361427 8.81065089,11.8460428 L5.68399315,11.8460428 C5.23317649,11.8460428 5.01664727,12.2203889 4.89819186,12.9915624 L4.29481593,16.9249808 C4.20380504,17.5187782 3.90615304,17.8120676 3.46461908,17.8120676 L0.552876177,17.8120676 C0.0883372504,17.8120676 -0.0735047213,17.5086719 0.0300176372,16.8305177 L2.43706382,1.0636379 C2.55531743,0.288339302 2.84570471,0 3.35988593,0 L10.3299878,0 C12.9682945,0 15.4017762,1.46190914 15.0686077,5.10760692 Z M5.58692833,8.43980275 L7.95886166,8.44021525 C9.44147135,8.38308364 10.427658,7.33347083 10.5267408,5.4396715 C10.5878856,4.27002044 9.81540299,3.43346521 8.58504076,3.43924025 L6.35214623,3.44955281 L5.58692833,8.43980275 L5.58692833,8.43980275 Z M22.9841331,16.603435 C23.2501028,16.3567585 23.5215211,16.2276452 23.4821705,16.5326908 L23.387729,17.2632329 C23.3384903,17.6439728 23.4868118,17.8475428 23.8345097,17.8475428 L26.4213579,17.8475428 C26.8564343,17.8475428 27.0691294,17.6672792 27.1764859,16.9790186 L28.7706899,6.7526672 C28.8506019,6.23889524 28.7291195,5.98685617 28.3471159,5.98685617 L25.5031771,5.98685617 C25.2464901,5.98685617 25.1223844,6.13411959 25.0551857,6.53445334 L24.9496453,7.16393227 C24.8945545,7.49249058 24.7476455,7.54941593 24.6108265,7.21879512 C24.1277222,6.05058782 22.8969564,5.52691579 21.1709783,5.56321602 C17.1806253,5.64695404 14.4906583,8.74299214 14.2028944,12.7114732 C13.9803113,15.7813174 16.133092,18.1919824 18.9691607,18.1917762 C21.0268946,18.1917762 21.9474969,17.5647723 22.9841331,16.603435 L22.9841331,16.603435 L22.9841331,16.603435 Z M20.8194463,15.032419 C19.1019438,15.032419 17.9046764,13.6323852 18.1545023,11.9157557 C18.40453,10.1991262 20.0090256,8.79909249 21.7265281,8.79909249 C23.4440307,8.79909249 24.641298,10.1991262 24.3914721,11.9157557 C24.1416462,13.6323852 22.5371506,15.032419 20.8194463,15.032419 L20.8194463,15.032419 L20.8194463,15.032419 Z M33.8362225,5.95406221 L31.222737,5.95406221 C30.6811113,5.95406221 30.4609497,6.35913974 30.6330833,6.87435546 L33.889699,16.6226164 L30.6805059,21.2591454 C30.41272,21.6460728 30.6191593,22 30.9971269,22 L33.9460006,22 C34.386122,22 34.600835,21.8853243 34.8224092,21.5602723 L44.8388532,6.87435546 C45.1474023,6.42184014 45.001906,5.94849343 44.4962003,5.94808093 L41.7083613,5.94519341 C41.2298983,5.94457465 41.0375849,6.13824461 40.7631396,6.54538466 L36.5851145,12.7407609 L34.7263534,6.53465959 C34.6119339,6.1518572 34.3386995,5.95406221 33.8362225,5.95406221 L33.8362225,5.95406221 Z" id="Shape" fill="#113984"></path>
                <path d="M55.0767353,0 C57.6504346,0 60.0243248,1.44649781 59.6995119,5.05376295 C59.3142641,9.32999252 57.0911659,11.7113671 53.594801,11.7211628 L50.5447094,11.7211628 C50.1049324,11.7211628 49.8935087,12.0915625 49.7783478,12.8546065 L49.1897474,16.746559 C49.1009653,17.3340967 48.8106022,17.6242942 48.3798806,17.6242942 L45.539441,17.6242942 C45.0862777,17.6242942 44.928399,17.324097 45.0291894,16.6530918 L47.3772914,1.05242512 C47.4926492,0.285299653 47.7759255,0 48.2777122,0 L55.0767353,0 L55.0767353,0 Z M50.4498247,8.35083105 L52.7636737,8.3512392 C54.2101738,8.29470987 55.1720137,7.25616199 55.2686702,5.38232693 C55.3283176,4.22500624 54.5745548,3.3972699 53.3745188,3.40298406 L51.1963038,3.41318791 L50.4498247,8.35083105 L50.4498247,8.35083105 Z M67.4210037,16.428403 C67.6804603,16.1843269 67.9454289,16.0565747 67.906845,16.3584046 L67.8145194,17.0812453 C67.7664865,17.4579715 67.9111759,17.6593955 68.2503593,17.6593955 L70.7738603,17.6593955 C71.1982825,17.6593955 71.405769,17.4810322 71.5104966,16.8000272 L73.0656614,6.68148115 C73.1438133,6.17312533 73.025109,5.92374323 72.6526568,5.92374323 L69.8783609,5.92374323 C69.6279597,5.92374323 69.5068931,6.06945421 69.4413399,6.46556767 L69.3383841,7.08841069 C69.2846423,7.41350536 69.1411341,7.46983062 69.0078623,7.14269518 C68.5365883,5.98680302 67.3361586,5.4686515 65.6522498,5.50456906 C61.7596132,5.58742432 59.1355186,8.65082424 58.8548015,12.5774699 C58.637669,15.614952 60.7377321,18.0002041 63.5043506,18 C65.5118912,18 66.4099497,17.3796059 67.4210037,16.428403 L67.4210037,16.428403 L67.4210037,16.428403 Z M65.3093261,14.8739484 C63.633882,14.8739484 62.4659336,13.4886737 62.7096417,11.7901408 C62.9533498,10.0916079 64.5187511,8.70633319 66.1941952,8.70633319 C67.8696392,8.70633319 69.0375876,10.0916079 68.7936827,11.7901408 C68.5501714,13.4886737 66.9849669,14.8739484 65.3093261,14.8739484 L65.3093261,14.8739484 L65.3093261,14.8739484 Z M76.9494394,17.6777624 L74.0367535,17.6777624 C73.8054474,17.6777624 73.6446158,17.4898075 73.6796562,17.2600168 L76.2411505,0.453255028 C76.2761909,0.223464321 76.4941108,0.0355093989 76.7256138,0.0355093989 L79.6381029,0.0355093989 C79.8696059,0.0355093989 80.0302406,0.223464321 79.9952002,0.453255028 L77.433706,17.2600168 C77.3988624,17.4898075 77.1809425,17.6777624 76.9494394,17.6777624 L76.9494394,17.6777624 Z" id="Shape" fill="#009EE3"></path>
            </g>
        </g>
    </g>
</svg>