<?xml version="1.0" encoding="UTF-8"?>
<svg width="1726px" height="1232px" viewBox="0 0 1726 1232" version="1.1" xmlns="http://www.w3.org/2000/svg" xmlns:xlink="http://www.w3.org/1999/xlink">
    <!-- Generator: Sketch 41.2 (35397) - http://www.bohemiancoding.com/sketch -->
    <title>speak</title>
    <desc>Created with Sketch.</desc>
    <defs>
        <ellipse id="path-1" cx="555" cy="844" rx="555" ry="189"></ellipse>
        <filter x="-50%" y="-50%" width="200%" height="200%" filterUnits="objectBoundingBox" id="filter-2">
            <feOffset dx="0" dy="30" in="SourceAlpha" result="shadowOffsetInner1"></feOffset>
            <feComposite in="shadowOffsetInner1" in2="SourceAlpha" operator="arithmetic" k2="-1" k3="1" result="shadowInnerInner1"></feComposite>
            <feColorMatrix values="0 0 0 0 0.435905612   0 0 0 0 0.435905612   0 0 0 0 0.435905612  0 0 0 0.5 0" type="matrix" in="shadowInnerInner1"></feColorMatrix>
        </filter>
        <linearGradient x1="37.0590477%" y1="1.70370869%" x2="37.0590478%" y2="84.5704277%" id="linearGradient-3">
            <stop stop-color="#84D7FB" offset="0%"></stop>
            <stop stop-color="#6BC5ED" offset="100%"></stop>
        </linearGradient>
        <linearGradient x1="50%" y1="0%" x2="50%" y2="100%" id="linearGradient-4">
            <stop stop-color="#82D6FB" offset="0%"></stop>
            <stop stop-color="#94DEFF" offset="100%"></stop>
        </linearGradient>
        <linearGradient x1="37.0590477%" y1="1.70370869%" x2="62.9409523%" y2="98.2962913%" id="linearGradient-5">
            <stop stop-color="#67C2EB" offset="0%"></stop>
            <stop stop-color="#89D9FD" offset="100%"></stop>
        </linearGradient>
        <linearGradient x1="50%" y1="0%" x2="50%" y2="100%" id="linearGradient-6">
            <stop stop-color="#59C2F1" offset="0%"></stop>
            <stop stop-color="#94DEFF" offset="100%"></stop>
        </linearGradient>
        <linearGradient x1="0%" y1="31.68506%" x2="98.2962913%" y2="62.9409523%" id="linearGradient-7">
            <stop stop-color="#59C2F1" offset="0%"></stop>
            <stop stop-color="#7BD2F9" offset="100%"></stop>
        </linearGradient>
        <path d="M309,414 C479.655988,414 618,321.322943 618,207 C618,92.6770568 479.655988,0 309,0 C138.344012,0 0,92.6770568 0,207 C0,252.273055 21.6956754,294.151513 58.5020182,328.224059 C67.572417,336.620752 47.6948126,394.071988 58.5020182,401.454545 C69.3092237,408.837103 110.812596,366.157666 123.166238,372.3965 C174.884171,398.515082 239.242667,414 309,414 Z" id="path-8"></path>
        <filter x="-50%" y="-50%" width="200%" height="200%" filterUnits="objectBoundingBox" id="filter-9">
            <feMorphology radius="3" operator="dilate" in="SourceAlpha" result="shadowSpreadOuter1"></feMorphology>
            <feOffset dx="0" dy="6" in="shadowSpreadOuter1" result="shadowOffsetOuter1"></feOffset>
            <feGaussianBlur stdDeviation="24" in="shadowOffsetOuter1" result="shadowBlurOuter1"></feGaussianBlur>
            <feColorMatrix values="0 0 0 0 0.576025723   0 0 0 0 0.576025723   0 0 0 0 0.576025723  0 0 0 0.5 0" type="matrix" in="shadowBlurOuter1"></feColorMatrix>
        </filter>
        <path d="M0,18.4600638 C0,11.8356762 5.36067138,6.23867303 11.9900313,5.95810328 L138.009969,0.624649731 C144.63188,0.344395211 150,5.48025735 150,12.1195028 L150,86.997001 C150,128.420014 116.430464,162 75,162 L75,162 C33.5786438,162 0,128.418911 0,86.9947413 L0,18.4600638 Z" id="path-10"></path>
        <path d="M919.172509,1047.96813 C887.853633,1026.44662 865.795939,1006.36831 869.900995,1003.12532 L1491,902 C1495.10697,898.755505 1718.83302,1092.47152 1710.0013,1094.28485 L1168.9987,1205.36333 C1160.16286,1207.17751 1127.59848,1191.19293 1096.29216,1169.68006 L919.172509,1047.96813 Z" id="path-12"></path>
        <filter x="-50%" y="-50%" width="200%" height="200%" filterUnits="objectBoundingBox" id="filter-13">
            <feOffset dx="-1" dy="5" in="SourceAlpha" result="shadowOffsetOuter1"></feOffset>
            <feColorMatrix values="0 0 0 0 0   0 0 0 0 0   0 0 0 0 0  0 0 0 0.5 0" type="matrix" in="shadowOffsetOuter1"></feColorMatrix>
        </filter>
    </defs>
    <g id="Logo" stroke="none" stroke-width="1" fill="none" fill-rule="evenodd">
        <g id="speak" transform="translate(0.000000, 18.000000)">
            <g>
                <path d="M354,157 C354,157 354,7 504,1 C654,-5 678,139 678,139" id="Path-6" stroke="#2A2A2A" stroke-width="36"></path>
                <g id="Oval-3">
                    <use fill="#1F282C" fill-rule="evenodd" xlink:href="#path-1"></use>
                    <use fill="black" fill-opacity="1" filter="url(#filter-2)" xlink:href="#path-1"></use>
                </g>
                <g id="Group-20" transform="translate(648.000000, 91.000000)">
                    <g id="Group-19-Copy" fill="#4A4A4A">
                        <path d="M71.8119535,184.955411 C111.055349,184.955411 111.055349,1.04458915 71.8119535,1.04458915 C32.5685577,1.04458915 0.755499643,42.2144289 0.755499643,93 C0.755499643,143.785571 32.5685577,184.955411 71.8119535,184.955411 Z" id="Oval-10-Copy" transform="translate(51.000000, 93.000000) scale(-1, 1) translate(-51.000000, -93.000000) "></path>
                    </g>
                    <ellipse id="Oval-11" stroke="#000000" stroke-width="12" fill="#414141" cx="36" cy="90" rx="24" ry="72"></ellipse>
                </g>
                <g id="caterpillar-body-copy" transform="translate(552.000000, 541.000000) rotate(-360.000000) translate(-552.000000, -541.000000) translate(198.000000, 109.000000)">
                    <path d="M665.861293,756.912167 C670.51101,756.271042 699.983806,750.438359 699.983806,705.590459 C699.983806,656.901935 665.246964,659.239203 665.246964,659.239203 C665.246964,659.239203 708,659.239203 708,605.508492 C708,551.777781 665.246964,548.705213 665.246964,548.705213 C665.246964,548.705213 708,548.705213 708,489.197017 C708,429.68882 665.246964,430.595511 665.246964,430.595511 L665.246964,426.990761 C665.246964,244.737335 517.502032,96.9839018 335.249422,96.9839018 L377.997541,96.9839018 C195.747932,96.9839018 48,244.729934 48,426.983902 L48,756.983902 L48.131716,756.983902 C48.0441069,757.894613 48,758.808617 48,759.725722 C48,811.088204 186.344012,852.725722 357,852.725722 C527.655988,852.725722 666,811.088204 666,759.725722 C666,758.78454 665.953547,757.846623 665.861293,756.912167 Z" id="Combined-Shape" fill="#59C2F1"></path>
                    <g id="eyes" transform="translate(322.320000, 390.485294)" fill="#20292C">
                        <ellipse id="Oval-4" cx="23.8729412" cy="35.7775191" rx="17.4352941" ry="17.5545814"></ellipse>
                        <ellipse id="Oval-4-Copy" cx="257.237647" cy="19.5732901" rx="17.4352941" ry="17.5545814"></ellipse>
                    </g>
                    <g id="Group-10" transform="translate(398.498824, 3.082623)">
                        <rect id="Rectangle-3-Copy" fill="#59C2F1" transform="translate(49.883210, 83.253582) rotate(-345.000000) translate(-49.883210, -83.253582) " x="20.3773275" y="7.63384671" width="59.0117647" height="151.239471" rx="29.5058824"></rect>
                        <path d="M90.9301686,33.508056 C90.1556206,21.2116941 81.6704537,10.2319679 69.1114496,6.86679292 C53.3676006,2.6482413 37.191928,11.990094 32.9743435,27.7303336 L8.34996229,119.629776 C5.48921964,130.306212 8.86622743,141.184065 16.2468895,148.394486 C16.0506848,145.279633 16.3492589,142.080294 17.201727,138.898839 L41.8261083,46.9993975 C46.0436927,31.2591579 62.2193653,21.9173052 77.9632143,26.1358568 C83.0274011,27.4928016 87.4291995,30.0878396 90.9301686,33.508056 Z" id="Combined-Shape-Copy-4" fill="url(#linearGradient-3)"></path>
                    </g>
                    <path d="M590.351103,216.341084 C534.22836,142.829168 449.190052,95.9558824 354,95.9558824 C195.748079,95.9558824 48,243.701915 48,425.955882 C48,425.955882 1.70592707e-13,420.546046 0,491.955882 C-1.63723202e-13,561.201784 48,563.955882 48,563.955882 C48,563.955882 4.57966998e-15,561.201784 0,617.955882 C0,669.398505 48,671.955882 48,671.955882 C48,671.955882 5.36160206,669.398505 6,713.955882 C5.36160206,755.955882 48,755.955882 48,755.955882 C48,781.290037 79.8933939,804.33216 132,821.48835 L132,491.957233 C132,319.643645 271.685679,179.955882 444,179.955882 C496.88936,179.955882 546.705023,193.116362 590.351103,216.341084 Z" id="Combined-Shape-Copy-5" fill="url(#linearGradient-4)"></path>
                    <g id="Group-9" transform="translate(132.945882, 30.609554)">
                        <rect id="Rectangle-3-Copy-9" fill="#59C2F1" transform="translate(61.442490, 82.733699) rotate(-15.000000) translate(-61.442490, -82.733699) " x="34.6189608" y="7.11396331" width="53.6470588" height="151.239471" rx="26.8235294"></rect>
                        <path d="M70.6383399,20.6489984 C62.5492915,6.72078264 45.863716,-0.655795386 29.5595718,3.71288686 C10.0503212,8.94037482 -1.52005298,28.9895796 3.70683893,48.4966058 L27.5123685,137.340052 C31.3389435,151.621024 43.1167806,161.655804 56.8084746,163.951838 C55.2204384,161.217461 53.9637232,158.230575 53.1062598,155.030478 L29.3007302,66.1870321 C24.0738383,46.6800059 35.6442124,26.6308011 55.1534631,21.4033132 C60.3742362,20.0044112 65.6341196,19.8098137 70.6383399,20.6489984 Z" id="Combined-Shape-Copy-6" fill="url(#linearGradient-5)"></path>
                    </g>
                    <g id="Group-4-Copy" transform="translate(332.266773, 773.938443) rotate(-300.000000) translate(-332.266773, -773.938443) translate(263.866773, 718.614913)">
                        <g id="Group-2-Copy" transform="translate(-0.000000, 0.000000)">
                            <path d="M94.7355357,-1.60114994 L94.7355357,92.8077445 C94.7355357,107.787266 82.7294897,119.930568 67.9120063,119.930568 L67.9120063,119.930568 C53.09778,119.930568 41.0884768,107.777318 41.0884768,92.8077445 L41.0884768,-1.60114994" id="Rectangle-3-Copy-6" fill="#3B86A7" transform="translate(67.912006, 59.164709) rotate(-68.000000) translate(-67.912006, -59.164709) "></path>
                            <path d="M92.0624343,-9.73110353 L92.0624343,84.6777909 C92.0624343,99.6573126 80.0563883,111.800614 65.2389048,111.800614 L65.2389048,111.800614 C50.4246786,111.800614 38.4153754,99.6473648 38.4153754,84.6777909 L38.4153754,-9.73110353" id="Rectangle-3-Copy-2" fill="url(#linearGradient-6)" transform="translate(65.238905, 51.034755) rotate(-75.000000) translate(-65.238905, -51.034755) "></path>
                        </g>
                        <path d="M113.592781,38.3573267 C123.433588,44.5434684 128.535701,56.7140783 125.340326,68.6393818 C121.423482,83.2572401 106.509116,91.9618632 92.049618,88.0874524 L0.857628625,63.6526325 L3.49928433,53.7938392 L81.0889529,74.5839282 C95.5484509,78.4583391 110.462817,69.7537159 114.379661,55.1358576 C115.925917,49.3651516 115.529204,43.5370038 113.592781,38.3573267 Z" id="Combined-Shape-Copy" fill="url(#linearGradient-7)"></path>
                    </g>
                    <g id="hand" transform="translate(308.642177, 659.304084) rotate(-300.000000) translate(-308.642177, -659.304084) translate(240.242177, 603.980554)">
                        <g id="Group-2" transform="translate(-0.000000, 0.000000)">
                            <path d="M94.7355357,-1.60114994 L94.7355357,92.8077445 C94.7355357,107.787266 82.7294897,119.930568 67.9120063,119.930568 L67.9120063,119.930568 C53.09778,119.930568 41.0884768,107.777318 41.0884768,92.8077445 L41.0884768,-1.60114994" id="Rectangle-3-Copy-6" fill="#3B86A7" transform="translate(67.912006, 59.164709) rotate(-68.000000) translate(-67.912006, -59.164709) "></path>
                            <path d="M92.0624343,-9.73110353 L92.0624343,84.6777909 C92.0624343,99.6573126 80.0563883,111.800614 65.2389048,111.800614 L65.2389048,111.800614 C50.4246786,111.800614 38.4153754,99.6473648 38.4153754,84.6777909 L38.4153754,-9.73110353" id="Rectangle-3-Copy-2" fill="url(#linearGradient-6)" transform="translate(65.238905, 51.034755) rotate(-75.000000) translate(-65.238905, -51.034755) "></path>
                        </g>
                        <g id="Group-2-Copy-4" transform="translate(-0.000000, 36.227637)" fill="url(#linearGradient-7)">
                            <path d="M113.592781,2.12969005 C123.433588,8.31583174 128.535701,20.4864416 125.340326,32.4117452 C121.423482,47.0296035 106.509116,55.7342266 92.049618,51.8598158 L0.857628625,27.4249959 L3.49928433,17.5662026 L81.0889529,38.3562916 C95.5484509,42.2307024 110.462817,33.5260793 114.379661,18.908221 C115.925917,13.137515 115.529204,7.30936715 113.592781,2.12969005 Z" id="Combined-Shape"></path>
                        </g>
                    </g>
                    <g id="Group-4-Copy-2" transform="translate(610.056905, 738.528575) rotate(-300.000000) translate(-610.056905, -738.528575) translate(541.656905, 683.205046)">
                        <g id="Group-2-Copy" transform="translate(-0.000000, 0.000000)">
                            <path d="M94.7355357,-1.60114994 L94.7355357,92.8077445 C94.7355357,107.787266 82.7294897,119.930568 67.9120063,119.930568 L67.9120063,119.930568 C53.09778,119.930568 41.0884768,107.777318 41.0884768,92.8077445 L41.0884768,-1.60114994" id="Rectangle-3-Copy-6" fill="#3B86A7" transform="translate(67.912006, 59.164709) rotate(-68.000000) translate(-67.912006, -59.164709) "></path>
                            <path d="M92.0624343,-9.73110353 L92.0624343,84.6777909 C92.0624343,99.6573126 80.0563883,111.800614 65.2389048,111.800614 L65.2389048,111.800614 C50.4246786,111.800614 38.4153754,99.6473648 38.4153754,84.6777909 L38.4153754,-9.73110353" id="Rectangle-3-Copy-2" fill="url(#linearGradient-6)" transform="translate(65.238905, 51.034755) rotate(-75.000000) translate(-65.238905, -51.034755) "></path>
                        </g>
                        <path d="M113.592781,38.3573267 C123.433588,44.5434684 128.535701,56.7140783 125.340326,68.6393818 C121.423482,83.2572401 106.509116,91.9618632 92.049618,88.0874524 L0.857628625,63.6526325 L3.49928433,53.7938392 L81.0889529,74.5839282 C95.5484509,78.4583391 110.462817,69.7537159 114.379661,55.1358576 C115.925917,49.3651516 115.529204,43.5370038 113.592781,38.3573267 Z" id="Combined-Shape-Copy" fill="url(#linearGradient-7)"></path>
                    </g>
                    <g id="Group-6-Copy" transform="translate(609.974896, 629.154449) rotate(-300.000000) translate(-609.974896, -629.154449) translate(541.574896, 573.830920)">
                        <g id="Group-2-Copy-2" transform="translate(-0.000000, 0.000000)">
                            <path d="M94.7355357,-1.60114994 L94.7355357,92.8077445 C94.7355357,107.787266 82.7294897,119.930568 67.9120063,119.930568 L67.9120063,119.930568 C53.09778,119.930568 41.0884768,107.777318 41.0884768,92.8077445 L41.0884768,-1.60114994" id="Rectangle-3-Copy-6" fill="#3B86A7" transform="translate(67.912006, 59.164709) rotate(-68.000000) translate(-67.912006, -59.164709) "></path>
                            <path d="M92.0624343,-9.73110353 L92.0624343,84.6777909 C92.0624343,99.6573126 80.0563883,111.800614 65.2389048,111.800614 L65.2389048,111.800614 C50.4246786,111.800614 38.4153754,99.6473648 38.4153754,84.6777909 L38.4153754,-9.73110353" id="Rectangle-3-Copy-2" fill="url(#linearGradient-6)" transform="translate(65.238905, 51.034755) rotate(-75.000000) translate(-65.238905, -51.034755) "></path>
                        </g>
                        <path d="M116.275134,41.0580315 C126.115941,47.2441732 131.218054,59.4147831 128.022679,71.3400867 C124.105835,85.957945 109.191469,94.6625681 94.7319709,90.7881573 L3.53998157,66.3533373 L6.18163727,56.494544 L83.7713058,77.2846331 C98.2308039,81.1590439 113.14517,72.4544208 117.062013,57.8365625 C118.60827,52.0658564 118.211557,46.2377086 116.275134,41.0580315 Z" id="Combined-Shape-Copy-3" fill="url(#linearGradient-7)"></path>
                    </g>
                </g>
                <g id="Group-19" transform="translate(264.000000, 115.000000)">
                    <path d="M94.0294373,222 C145.960461,222 145.960461,0 94.0294373,0 C42.098413,0 0,49.6963928 0,111 C0,172.303607 42.098413,222 94.0294373,222 Z" id="Oval-10-Copy" fill="#4A4A4A"></path>
                    <path d="M25.002666,43.6510688 C41.1703134,21.9431476 64.8275183,8.25127329 91.1838028,8.25127329 C139.913605,8.25127329 139.913605,217.331009 91.1838028,217.331009 C91.154901,217.331009 91.1260025,217.330992 91.0971073,217.330959 C114.033987,163.248923 106.113957,30.8544879 67.3370155,30.8544879 C51.9962794,30.8544879 37.5699506,35.493088 25.002666,43.6510688 Z" id="Combined-Shape" fill="#000000"></path>
                </g>
                <g id="Group-21" transform="translate(822.000000, 91.000000)">
                    <g id="Oval-12">
                        <use fill="black" fill-opacity="1" filter="url(#filter-9)" xlink:href="#path-8"></use>
                        <use fill="#FFFFFF" fill-rule="evenodd" xlink:href="#path-8"></use>
                    </g>
                    <text id="C’est-genial!" font-family="AvenirNext-Bold, Avenir Next" font-size="96" font-weight="bold" letter-spacing="-1.20000002" fill="#20292C">
                        <tspan x="30" y="240">C’est genial!</tspan>
                    </text>
                </g>
                <g id="Group-16" transform="translate(600.000000, 601.000000)">
                    <mask id="mask-11" fill="white">
                        <use xlink:href="#path-10"></use>
                    </mask>
                    <use id="Mask" fill="#20292C" xlink:href="#path-10"></use>
                    <ellipse id="Oval-5" fill="#FF7C7C" mask="url(#mask-11)" cx="75" cy="189.972973" rx="113.571429" ry="72.2432432"></ellipse>
                </g>
            </g>
            <path d="M329,308 C329,308 321.554064,528.884404 341,771 C360.445936,1013.1156 282,1179 400,1192 C518,1205 526.135816,1072 639,1132 C751.864184,1192 987,1083 987,1083" id="Path-15" stroke="#DD6DB1" stroke-width="17"></path>
            <g id="Rectangle-14">
                <use fill="black" fill-opacity="1" filter="url(#filter-13)" xlink:href="#path-12"></use>
                <use fill="#858585" fill-rule="evenodd" xlink:href="#path-12"></use>
            </g>
            <path d="M1153,767.351407 C1153,757.197044 1160.16698,747.912742 1168.9987,746.615687 L1710.0013,667.162365 C1718.83714,665.864706 1726,672.487748 1726,681.936916 L1726,1083.23459 C1726,1092.69201 1718.83302,1101.81278 1710.0013,1103.60455 L1168.9987,1213.36217 C1160.16286,1215.15477 1153,1208.36736 1153,1198.22186 L1153,767.351407 Z" id="Rectangle-7" fill="#C5CCCF"></path>
            <path d="M1480,997.341746 C1496.96147,992.836042 1510,965.745811 1510,933 C1510,897.101491 1475,868 1475,868 C1475,868 1440,897.101491 1440,933 C1440,965.745811 1453.03853,992.836042 1470,997.341746 L1470,1015.49695 C1470,1017.42905 1471.56589,1019 1473.49751,1019 L1476.50249,1019 C1478.4375,1019 1480,1017.43163 1480,1015.49695 L1480,997.341746 Z" id="Combined-Shape" fill="#FFFFFF"></path>
        </g>
    </g>
</svg>