<?xml version="1.0" encoding="UTF-8"?>
<svg width="1556px" height="1282px" viewBox="0 0 1556 1282" version="1.1" xmlns="http://www.w3.org/2000/svg" xmlns:xlink="http://www.w3.org/1999/xlink">
    <!-- Generator: Sketch 41.2 (35397) - http://www.bohemiancoding.com/sketch -->
    <title>speak</title>
    <desc>Created with Sketch.</desc>
    <defs>
        <ellipse id="path-1" cx="555" cy="844" rx="555" ry="189"></ellipse>
        <filter x="-50%" y="-50%" width="200%" height="200%" filterUnits="objectBoundingBox" id="filter-2">
            <feOffset dx="0" dy="30" in="SourceAlpha" result="shadowOffsetInner1"></feOffset>
            <feComposite in="shadowOffsetInner1" in2="SourceAlpha" operator="arithmetic" k2="-1" k3="1" result="shadowInnerInner1"></feComposite>
            <feColorMatrix values="0 0 0 0 0.435905612   0 0 0 0 0.435905612   0 0 0 0 0.435905612  0 0 0 0.5 0" type="matrix" in="shadowInnerInner1"></feColorMatrix>
        </filter>
        <linearGradient x1="37.0590477%" y1="1.70370869%" x2="37.0590478%" y2="84.5704277%" id="linearGradient-3">
            <stop stop-color="#84D7FB" offset="0%"></stop>
            <stop stop-color="#6BC5ED" offset="100%"></stop>
        </linearGradient>
        <linearGradient x1="50%" y1="0%" x2="50%" y2="100%" id="linearGradient-4">
            <stop stop-color="#82D6FB" offset="0%"></stop>
            <stop stop-color="#94DEFF" offset="100%"></stop>
        </linearGradient>
        <linearGradient x1="37.0590477%" y1="1.70370869%" x2="62.9409523%" y2="98.2962913%" id="linearGradient-5">
            <stop stop-color="#67C2EB" offset="0%"></stop>
            <stop stop-color="#89D9FD" offset="100%"></stop>
        </linearGradient>
        <linearGradient x1="50%" y1="0%" x2="50%" y2="100%" id="linearGradient-6">
            <stop stop-color="#59C2F1" offset="0%"></stop>
            <stop stop-color="#94DEFF" offset="100%"></stop>
        </linearGradient>
        <linearGradient x1="0%" y1="31.68506%" x2="98.2962913%" y2="62.9409523%" id="linearGradient-7">
            <stop stop-color="#59C2F1" offset="0%"></stop>
            <stop stop-color="#7BD2F9" offset="100%"></stop>
        </linearGradient>
        <path d="M309,414 C479.655988,414 618,321.322943 618,207 C618,92.6770568 479.655988,0 309,0 C138.344012,0 0,92.6770568 0,207 C0,252.273055 21.6956754,294.151513 58.5020182,328.224059 C67.572417,336.620752 47.6948126,394.071988 58.5020182,401.454545 C69.3092237,408.837103 110.812596,366.157666 123.166238,372.3965 C174.884171,398.515082 239.242667,414 309,414 Z" id="path-8"></path>
        <filter x="-50%" y="-50%" width="200%" height="200%" filterUnits="objectBoundingBox" id="filter-9">
            <feMorphology radius="3" operator="dilate" in="SourceAlpha" result="shadowSpreadOuter1"></feMorphology>
            <feOffset dx="0" dy="6" in="shadowSpreadOuter1" result="shadowOffsetOuter1"></feOffset>
            <feGaussianBlur stdDeviation="24" in="shadowOffsetOuter1" result="shadowBlurOuter1"></feGaussianBlur>
            <feColorMatrix values="0 0 0 0 0.576025723   0 0 0 0 0.576025723   0 0 0 0 0.576025723  0 0 0 0.5 0" type="matrix" in="shadowBlurOuter1"></feColorMatrix>
        </filter>
        <path d="M0,18.4600638 C0,11.8356762 5.36067138,6.23867303 11.9900313,5.95810328 L138.009969,0.624649731 C144.63188,0.344395211 150,5.48025735 150,12.1195028 L150,86.997001 C150,128.420014 116.430464,162 75,162 L75,162 C33.5786438,162 0,128.418911 0,86.9947413 L0,18.4600638 Z" id="path-10"></path>
    </defs>
    <g id="Logo" stroke="none" stroke-width="1" fill="none" fill-rule="evenodd">
        <g id="speak" transform="translate(0.000000, 18.000000)">
            <g>
                <path d="M354,157 C354,157 354,7 504,1 C654,-5 678,139 678,139" id="Path-6" stroke="#9D86D5" stroke-width="36"></path>
                <g id="Oval-3">
                    <use fill="#1F282C" fill-rule="evenodd" xlink:href="#path-1"></use>
                    <use fill="black" fill-opacity="1" filter="url(#filter-2)" xlink:href="#path-1"></use>
                </g>
                <g id="Group-20" transform="translate(648.000000, 91.000000)">
                    <g id="Group-19-Copy" fill="#4A4A4A">
                        <path d="M71.8119535,184.955411 C111.055349,184.955411 111.055349,1.04458915 71.8119535,1.04458915 C32.5685577,1.04458915 0.755499643,42.2144289 0.755499643,93 C0.755499643,143.785571 32.5685577,184.955411 71.8119535,184.955411 Z" id="Oval-10-Copy" transform="translate(51.000000, 93.000000) scale(-1, 1) translate(-51.000000, -93.000000) "></path>
                    </g>
                    <ellipse id="Oval-11" stroke="#000000" stroke-width="12" fill="#414141" cx="36" cy="90" rx="24" ry="72"></ellipse>
                </g>
                <g id="caterpillar-body-copy" transform="translate(552.000000, 541.000000) rotate(-360.000000) translate(-552.000000, -541.000000) translate(198.000000, 109.000000)">
                    <path d="M665.861293,756.912167 C670.51101,756.271042 699.983806,750.438359 699.983806,705.590459 C699.983806,656.901935 665.246964,659.239203 665.246964,659.239203 C665.246964,659.239203 708,659.239203 708,605.508492 C708,551.777781 665.246964,548.705213 665.246964,548.705213 C665.246964,548.705213 708,548.705213 708,489.197017 C708,429.68882 665.246964,430.595511 665.246964,430.595511 L665.246964,426.990761 C665.246964,244.737335 517.502032,96.9839018 335.249422,96.9839018 L377.997541,96.9839018 C195.747932,96.9839018 48,244.729934 48,426.983902 L48,756.983902 L48.131716,756.983902 C48.0441069,757.894613 48,758.808617 48,759.725722 C48,811.088204 186.344012,852.725722 357,852.725722 C527.655988,852.725722 666,811.088204 666,759.725722 C666,758.78454 665.953547,757.846623 665.861293,756.912167 Z" id="Combined-Shape" fill="#59C2F1"></path>
                    <g id="eyes" transform="translate(322.320000, 390.485294)" fill="#20292C">
                        <ellipse id="Oval-4" cx="23.8729412" cy="35.7775191" rx="17.4352941" ry="17.5545814"></ellipse>
                        <ellipse id="Oval-4-Copy" cx="257.237647" cy="19.5732901" rx="17.4352941" ry="17.5545814"></ellipse>
                    </g>
                    <g id="Group-10" transform="translate(398.498824, 3.082623)">
                        <rect id="Rectangle-3-Copy" fill="#59C2F1" transform="translate(49.883210, 83.253582) rotate(-345.000000) translate(-49.883210, -83.253582) " x="20.3773275" y="7.63384671" width="59.0117647" height="151.239471" rx="29.5058824"></rect>
                        <path d="M90.9301686,33.508056 C90.1556206,21.2116941 81.6704537,10.2319679 69.1114496,6.86679292 C53.3676006,2.6482413 37.191928,11.990094 32.9743435,27.7303336 L8.34996229,119.629776 C5.48921964,130.306212 8.86622743,141.184065 16.2468895,148.394486 C16.0506848,145.279633 16.3492589,142.080294 17.201727,138.898839 L41.8261083,46.9993975 C46.0436927,31.2591579 62.2193653,21.9173052 77.9632143,26.1358568 C83.0274011,27.4928016 87.4291995,30.0878396 90.9301686,33.508056 Z" id="Combined-Shape-Copy-4" fill="url(#linearGradient-3)"></path>
                    </g>
                    <path d="M590.351103,216.341084 C534.22836,142.829168 449.190052,95.9558824 354,95.9558824 C195.748079,95.9558824 48,243.701915 48,425.955882 C48,425.955882 1.70592707e-13,420.546046 0,491.955882 C-1.63723202e-13,561.201784 48,563.955882 48,563.955882 C48,563.955882 4.57966998e-15,561.201784 0,617.955882 C0,669.398505 48,671.955882 48,671.955882 C48,671.955882 5.36160206,669.398505 6,713.955882 C5.36160206,755.955882 48,755.955882 48,755.955882 C48,781.290037 79.8933939,804.33216 132,821.48835 L132,491.957233 C132,319.643645 271.685679,179.955882 444,179.955882 C496.88936,179.955882 546.705023,193.116362 590.351103,216.341084 Z" id="Combined-Shape-Copy-5" fill="url(#linearGradient-4)"></path>
                    <g id="Group-9" transform="translate(132.945882, 30.609554)">
                        <rect id="Rectangle-3-Copy-9" fill="#59C2F1" transform="translate(61.442490, 82.733699) rotate(-15.000000) translate(-61.442490, -82.733699) " x="34.6189608" y="7.11396331" width="53.6470588" height="151.239471" rx="26.8235294"></rect>
                        <path d="M70.6383399,20.6489984 C62.5492915,6.72078264 45.863716,-0.655795386 29.5595718,3.71288686 C10.0503212,8.94037482 -1.52005298,28.9895796 3.70683893,48.4966058 L27.5123685,137.340052 C31.3389435,151.621024 43.1167806,161.655804 56.8084746,163.951838 C55.2204384,161.217461 53.9637232,158.230575 53.1062598,155.030478 L29.3007302,66.1870321 C24.0738383,46.6800059 35.6442124,26.6308011 55.1534631,21.4033132 C60.3742362,20.0044112 65.6341196,19.8098137 70.6383399,20.6489984 Z" id="Combined-Shape-Copy-6" fill="url(#linearGradient-5)"></path>
                    </g>
                    <g id="Group-4-Copy" transform="translate(332.266773, 773.938443) rotate(-300.000000) translate(-332.266773, -773.938443) translate(263.866773, 718.614913)">
                        <g id="Group-2-Copy" transform="translate(-0.000000, 0.000000)">
                            <path d="M94.7355357,-1.60114994 L94.7355357,92.8077445 C94.7355357,107.787266 82.7294897,119.930568 67.9120063,119.930568 L67.9120063,119.930568 C53.09778,119.930568 41.0884768,107.777318 41.0884768,92.8077445 L41.0884768,-1.60114994" id="Rectangle-3-Copy-6" fill="#3B86A7" transform="translate(67.912006, 59.164709) rotate(-68.000000) translate(-67.912006, -59.164709) "></path>
                            <path d="M92.0624343,-9.73110353 L92.0624343,84.6777909 C92.0624343,99.6573126 80.0563883,111.800614 65.2389048,111.800614 L65.2389048,111.800614 C50.4246786,111.800614 38.4153754,99.6473648 38.4153754,84.6777909 L38.4153754,-9.73110353" id="Rectangle-3-Copy-2" fill="url(#linearGradient-6)" transform="translate(65.238905, 51.034755) rotate(-75.000000) translate(-65.238905, -51.034755) "></path>
                        </g>
                        <path d="M113.592781,38.3573267 C123.433588,44.5434684 128.535701,56.7140783 125.340326,68.6393818 C121.423482,83.2572401 106.509116,91.9618632 92.049618,88.0874524 L0.857628625,63.6526325 L3.49928433,53.7938392 L81.0889529,74.5839282 C95.5484509,78.4583391 110.462817,69.7537159 114.379661,55.1358576 C115.925917,49.3651516 115.529204,43.5370038 113.592781,38.3573267 Z" id="Combined-Shape-Copy" fill="url(#linearGradient-7)"></path>
                    </g>
                    <g id="hand" transform="translate(308.642177, 659.304084) rotate(-300.000000) translate(-308.642177, -659.304084) translate(240.242177, 603.980554)">
                        <g id="Group-2" transform="translate(-0.000000, 0.000000)">
                            <path d="M94.7355357,-1.60114994 L94.7355357,92.8077445 C94.7355357,107.787266 82.7294897,119.930568 67.9120063,119.930568 L67.9120063,119.930568 C53.09778,119.930568 41.0884768,107.777318 41.0884768,92.8077445 L41.0884768,-1.60114994" id="Rectangle-3-Copy-6" fill="#3B86A7" transform="translate(67.912006, 59.164709) rotate(-68.000000) translate(-67.912006, -59.164709) "></path>
                            <path d="M92.0624343,-9.73110353 L92.0624343,84.6777909 C92.0624343,99.6573126 80.0563883,111.800614 65.2389048,111.800614 L65.2389048,111.800614 C50.4246786,111.800614 38.4153754,99.6473648 38.4153754,84.6777909 L38.4153754,-9.73110353" id="Rectangle-3-Copy-2" fill="url(#linearGradient-6)" transform="translate(65.238905, 51.034755) rotate(-75.000000) translate(-65.238905, -51.034755) "></path>
                        </g>
                        <g id="Group-2-Copy-4" transform="translate(-0.000000, 36.227637)" fill="url(#linearGradient-7)">
                            <path d="M113.592781,2.12969005 C123.433588,8.31583174 128.535701,20.4864416 125.340326,32.4117452 C121.423482,47.0296035 106.509116,55.7342266 92.049618,51.8598158 L0.857628625,27.4249959 L3.49928433,17.5662026 L81.0889529,38.3562916 C95.5484509,42.2307024 110.462817,33.5260793 114.379661,18.908221 C115.925917,13.137515 115.529204,7.30936715 113.592781,2.12969005 Z" id="Combined-Shape"></path>
                        </g>
                    </g>
                    <g id="Group-4-Copy-2" transform="translate(610.056905, 738.528575) rotate(-300.000000) translate(-610.056905, -738.528575) translate(541.656905, 683.205046)">
                        <g id="Group-2-Copy" transform="translate(-0.000000, 0.000000)">
                            <path d="M94.7355357,-1.60114994 L94.7355357,92.8077445 C94.7355357,107.787266 82.7294897,119.930568 67.9120063,119.930568 L67.9120063,119.930568 C53.09778,119.930568 41.0884768,107.777318 41.0884768,92.8077445 L41.0884768,-1.60114994" id="Rectangle-3-Copy-6" fill="#3B86A7" transform="translate(67.912006, 59.164709) rotate(-68.000000) translate(-67.912006, -59.164709) "></path>
                            <path d="M92.0624343,-9.73110353 L92.0624343,84.6777909 C92.0624343,99.6573126 80.0563883,111.800614 65.2389048,111.800614 L65.2389048,111.800614 C50.4246786,111.800614 38.4153754,99.6473648 38.4153754,84.6777909 L38.4153754,-9.73110353" id="Rectangle-3-Copy-2" fill="url(#linearGradient-6)" transform="translate(65.238905, 51.034755) rotate(-75.000000) translate(-65.238905, -51.034755) "></path>
                        </g>
                        <path d="M113.592781,38.3573267 C123.433588,44.5434684 128.535701,56.7140783 125.340326,68.6393818 C121.423482,83.2572401 106.509116,91.9618632 92.049618,88.0874524 L0.857628625,63.6526325 L3.49928433,53.7938392 L81.0889529,74.5839282 C95.5484509,78.4583391 110.462817,69.7537159 114.379661,55.1358576 C115.925917,49.3651516 115.529204,43.5370038 113.592781,38.3573267 Z" id="Combined-Shape-Copy" fill="url(#linearGradient-7)"></path>
                    </g>
                    <g id="Group-6-Copy" transform="translate(609.974896, 629.154449) rotate(-300.000000) translate(-609.974896, -629.154449) translate(541.574896, 573.830920)">
                        <g id="Group-2-Copy-2" transform="translate(-0.000000, 0.000000)">
                            <path d="M94.7355357,-1.60114994 L94.7355357,92.8077445 C94.7355357,107.787266 82.7294897,119.930568 67.9120063,119.930568 L67.9120063,119.930568 C53.09778,119.930568 41.0884768,107.777318 41.0884768,92.8077445 L41.0884768,-1.60114994" id="Rectangle-3-Copy-6" fill="#3B86A7" transform="translate(67.912006, 59.164709) rotate(-68.000000) translate(-67.912006, -59.164709) "></path>
                            <path d="M92.0624343,-9.73110353 L92.0624343,84.6777909 C92.0624343,99.6573126 80.0563883,111.800614 65.2389048,111.800614 L65.2389048,111.800614 C50.4246786,111.800614 38.4153754,99.6473648 38.4153754,84.6777909 L38.4153754,-9.73110353" id="Rectangle-3-Copy-2" fill="url(#linearGradient-6)" transform="translate(65.238905, 51.034755) rotate(-75.000000) translate(-65.238905, -51.034755) "></path>
                        </g>
                        <path d="M116.275134,41.0580315 C126.115941,47.2441732 131.218054,59.4147831 128.022679,71.3400867 C124.105835,85.957945 109.191469,94.6625681 94.7319709,90.7881573 L3.53998157,66.3533373 L6.18163727,56.494544 L83.7713058,77.2846331 C98.2308039,81.1590439 113.14517,72.4544208 117.062013,57.8365625 C118.60827,52.0658564 118.211557,46.2377086 116.275134,41.0580315 Z" id="Combined-Shape-Copy-3" fill="url(#linearGradient-7)"></path>
                    </g>
                </g>
                <path d="M329.400467,308 C329.400467,308 321.954531,528.884404 341.400467,771 C360.846402,1013.1156 282.400467,1179 400.400467,1192 C518.400467,1205 525.135816,1080 638,1140 C750.864184,1200 828,1113 828,1113" id="Path-15" stroke="#9D86D5" stroke-width="17"></path>
                <g id="Group-19" transform="translate(264.000000, 115.000000)">
                    <path d="M94.0294373,222 C145.960461,222 145.960461,0 94.0294373,0 C42.098413,0 0,49.6963928 0,111 C0,172.303607 42.098413,222 94.0294373,222 Z" id="Oval-10-Copy" fill="#4A4A4A"></path>
                    <path d="M25.002666,43.6510688 C41.1703134,21.9431476 64.8275183,8.25127329 91.1838028,8.25127329 C139.913605,8.25127329 139.913605,217.331009 91.1838028,217.331009 C91.154901,217.331009 91.1260025,217.330992 91.0971073,217.330959 C114.033987,163.248923 106.113957,30.8544879 67.3370155,30.8544879 C51.9962794,30.8544879 37.5699506,35.493088 25.002666,43.6510688 Z" id="Combined-Shape" fill="#000000"></path>
                </g>
                <g id="Group-21" transform="translate(822.000000, 91.000000)">
                    <g id="Oval-12">
                        <use fill="black" fill-opacity="1" filter="url(#filter-9)" xlink:href="#path-8"></use>
                        <use fill="#FFFFFF" fill-rule="evenodd" xlink:href="#path-8"></use>
                    </g>
                    <path d="M96.816,230.592 C93.807985,234.048017 90.0960221,236.78399 85.68,238.8 C81.2639779,240.81601 76.1760288,241.824 70.416,241.824 C65.1679738,241.824 60.3200222,240.960009 55.872,239.232 C51.4239778,237.503991 47.5680163,235.056016 44.304,231.888 C41.0399837,228.719984 38.4800093,224.928022 36.624,220.512 C34.7679907,216.095978 33.84,211.232027 33.84,205.92 C33.84,200.479973 34.7839906,195.552022 36.672,191.136 C38.5600094,186.719978 41.1679834,182.960016 44.496,179.856 C47.8240166,176.751984 51.7279776,174.368008 56.208,172.704 C60.6880224,171.039992 65.5199741,170.208 70.704,170.208 C75.504024,170.208 80.2239768,171.055992 84.864,172.752 C89.5040232,174.448008 93.2639856,176.927984 96.144,180.192 L85.008,191.328 C83.4719923,189.215989 81.4560125,187.648005 78.96,186.624 C76.4639875,185.599995 73.9040131,185.088 71.28,185.088 C68.3999856,185.088 65.760012,185.615995 63.36,186.672 C60.959988,187.728005 58.8960086,189.183991 57.168,191.04 C55.4399914,192.896009 54.0960048,195.087987 53.136,197.616 C52.1759952,200.144013 51.696,202.911985 51.696,205.92 C51.696,208.992015 52.1759952,211.807987 53.136,214.368 C54.0960048,216.928013 55.4239915,219.119991 57.12,220.944 C58.8160085,222.768009 60.8479882,224.191995 63.216,225.216 C65.5840118,226.240005 68.1759859,226.752 70.992,226.752 C74.2560163,226.752 77.1039878,226.112006 79.536,224.832 C81.9680122,223.551994 83.9199926,221.88801 85.392,219.84 L96.816,230.592 Z M111.648,198.048 L99.552,198.048 L106.464,172.032 L120.384,172.032 L111.648,198.048 Z M156.528,210.624 C156.528,208.127988 155.744008,205.984009 154.176,204.192 C152.607992,202.399991 150.256016,201.504 147.12,201.504 C145.583992,201.504 144.176006,201.743998 142.896,202.224 C141.615994,202.704002 140.496005,203.359996 139.536,204.192 C138.575995,205.024004 137.808003,205.999994 137.232,207.12 C136.655997,208.240006 136.336,209.407994 136.272,210.624 L156.528,210.624 Z M171.024,216.672 L171.024,218.592 C171.024,219.232003 170.992,219.839997 170.928,220.416 L136.272,220.416 C136.400001,221.760007 136.799997,222.975995 137.472,224.064 C138.144003,225.152005 139.007995,226.095996 140.064,226.896 C141.120005,227.696004 142.303993,228.319998 143.616,228.768 C144.928007,229.216002 146.287993,229.44 147.696,229.44 C150.192012,229.44 152.303991,228.976005 154.032,228.048 C155.760009,227.119995 157.167995,225.920007 158.256,224.448 L169.2,231.36 C166.959989,234.624016 164.000018,237.135991 160.32,238.896 C156.639982,240.656009 152.368024,241.536 147.504,241.536 C143.919982,241.536 140.528016,240.976006 137.328,239.856 C134.127984,238.735994 131.328012,237.104011 128.928,234.96 C126.527988,232.815989 124.640007,230.176016 123.264,227.04 C121.887993,223.903984 121.2,220.32002 121.2,216.288 C121.2,212.38398 121.871993,208.848016 123.216,205.68 C124.560007,202.511984 126.383988,199.824011 128.688,197.616 C130.992011,195.407989 133.711984,193.696006 136.848,192.48 C139.984016,191.263994 143.375982,190.656 147.024,190.656 C150.544018,190.656 153.775985,191.247994 156.72,192.432 C159.664015,193.616006 162.191989,195.327989 164.304,197.568 C166.416011,199.808011 168.063994,202.527984 169.248,205.728 C170.432006,208.928016 171.024,212.57598 171.024,216.672 Z M207.744,206.304 C206.463994,205.087994 204.960009,204.064004 203.232,203.232 C201.503991,202.399996 199.68001,201.984 197.76,201.984 C196.287993,201.984 194.928006,202.271997 193.68,202.848 C192.431994,203.424003 191.808,204.415993 191.808,205.824 C191.808,207.168007 192.495993,208.127997 193.872,208.704 C195.248007,209.280003 197.471985,209.919996 200.544,210.624 C202.336009,211.008002 204.143991,211.551996 205.968,212.256 C207.792009,212.960004 209.439993,213.887994 210.912,215.04 C212.384007,216.192006 213.567995,217.599992 214.464,219.264 C215.360004,220.928008 215.808,222.911988 215.808,225.216 C215.808,228.224015 215.200006,230.76799 213.984,232.848 C212.767994,234.92801 211.18401,236.607994 209.232,237.888 C207.27999,239.168006 205.088012,240.095997 202.656,240.672 C200.223988,241.248003 197.792012,241.536 195.36,241.536 C191.45598,241.536 187.632019,240.912006 183.888,239.664 C180.143981,238.415994 177.024012,236.576012 174.528,234.144 L183.36,224.832 C184.768007,226.368008 186.49599,227.647995 188.544,228.672 C190.59201,229.696005 192.767988,230.208 195.072,230.208 C196.352006,230.208 197.615994,229.904003 198.864,229.296 C200.112006,228.687997 200.736,227.616008 200.736,226.08 C200.736,224.607993 199.968008,223.520004 198.432,222.816 C196.895992,222.111996 194.496016,221.376004 191.232,220.608 C189.567992,220.223998 187.904008,219.712003 186.24,219.072 C184.575992,218.431997 183.088007,217.568005 181.776,216.48 C180.463993,215.391995 179.392004,214.048008 178.56,212.448 C177.727996,210.847992 177.312,208.928011 177.312,206.688 C177.312,203.807986 177.919994,201.36001 179.136,199.344 C180.352006,197.32799 181.91999,195.680006 183.84,194.4 C185.76001,193.119994 187.887988,192.176003 190.224,191.568 C192.560012,190.959997 194.879988,190.656 197.184,190.656 C200.768018,190.656 204.271983,191.215994 207.696,192.336 C211.120017,193.456006 214.015988,195.135989 216.384,197.376 L207.744,206.304 Z M240.816,204 L240.816,222.24 C240.816,224.480011 241.247996,226.159994 242.112,227.28 C242.976004,228.400006 244.527989,228.96 246.768,228.96 C247.536004,228.96 248.351996,228.896001 249.216,228.768 C250.080004,228.639999 250.799997,228.448001 251.376,228.192 L251.568,239.712 C250.479994,240.096002 249.104008,240.431999 247.44,240.72 C245.775992,241.008001 244.112008,241.152 242.448,241.152 C239.247984,241.152 236.560011,240.752004 234.384,239.952 C232.207989,239.151996 230.464006,238.000008 229.152,236.496 C227.839993,234.991992 226.896003,233.20001 226.32,231.12 C225.743997,229.03999 225.456,226.720013 225.456,224.16 L225.456,204 L217.776,204 L217.776,192.192 L225.36,192.192 L225.36,179.616 L240.816,179.616 L240.816,192.192 L252.048,192.192 L252.048,204 L240.816,204 Z M331.728,235.488 C331.728,240.160023 331.056007,244.223983 329.712,247.68 C328.367993,251.136017 326.480012,253.999989 324.048,256.272 C321.615988,258.544011 318.656017,260.239994 315.168,261.36 C311.679982,262.480006 307.824021,263.04 303.6,263.04 C299.375979,263.04 295.040022,262.400006 290.592,261.12 C286.143978,259.839994 282.288016,257.984012 279.024,255.552 L286.896,244.32 C289.200011,246.36801 291.743986,247.887995 294.528,248.88 C297.312014,249.872005 300.047986,250.368 302.736,250.368 C307.344023,250.368 310.751989,249.152012 312.96,246.72 C315.168011,244.287988 316.272,241.05602 316.272,237.024 L316.272,234.144 L315.984,234.144 C314.511993,236.06401 312.528012,237.599994 310.032,238.752 C307.535987,239.904006 304.688016,240.48 301.488,240.48 C297.839982,240.48 294.608014,239.824007 291.792,238.512 C288.975986,237.199993 286.59201,235.424011 284.64,233.184 C282.68799,230.943989 281.200005,228.336015 280.176,225.36 C279.151995,222.383985 278.64,219.232017 278.64,215.904 C278.64,212.575983 279.151995,209.408015 280.176,206.4 C281.200005,203.391985 282.68799,200.736012 284.64,198.432 C286.59201,196.127988 288.975986,194.288007 291.792,192.912 C294.608014,191.535993 297.807982,190.848 301.392,190.848 C304.400015,190.848 307.279986,191.455994 310.032,192.672 C312.784014,193.888006 314.991992,195.775987 316.656,198.336 L316.848,198.336 L316.848,192.192 L331.728,192.192 L331.728,235.488 Z M316.752,215.808 C316.752,214.207992 316.480003,212.672007 315.936,211.2 C315.391997,209.727993 314.608005,208.432006 313.584,207.312 C312.559995,206.191994 311.344007,205.312003 309.936,204.672 C308.527993,204.031997 306.928009,203.712 305.136,203.712 C303.343991,203.712 301.760007,204.031997 300.384,204.672 C299.007993,205.312003 297.840005,206.175995 296.88,207.264 C295.919995,208.352005 295.184002,209.631993 294.672,211.104 C294.159997,212.576007 293.904,214.143992 293.904,215.808 C293.904,217.408008 294.159997,218.943993 294.672,220.416 C295.184002,221.888007 295.919995,223.183994 296.88,224.304 C297.840005,225.424006 299.007993,226.319997 300.384,226.992 C301.760007,227.664003 303.343991,228 305.136,228 C306.928009,228 308.543993,227.664003 309.984,226.992 C311.424007,226.319997 312.639995,225.440005 313.632,224.352 C314.624005,223.263995 315.391997,221.984007 315.936,220.512 C316.480003,219.039993 316.752,217.472008 316.752,215.808 Z M375.936,210.624 C375.936,208.127988 375.152008,205.984009 373.584,204.192 C372.015992,202.399991 369.664016,201.504 366.528,201.504 C364.991992,201.504 363.584006,201.743998 362.304,202.224 C361.023993,202.704002 359.904005,203.359996 358.944,204.192 C357.983995,205.024004 357.216003,205.999994 356.64,207.12 C356.063997,208.240006 355.744,209.407994 355.68,210.624 L375.936,210.624 Z M390.432,216.672 L390.432,218.592 C390.432,219.232003 390.4,219.839997 390.336,220.416 L355.68,220.416 C355.808001,221.760007 356.207997,222.975995 356.88,224.064 C357.552003,225.152005 358.415995,226.095996 359.472,226.896 C360.528005,227.696004 361.711993,228.319998 363.024,228.768 C364.336006,229.216002 365.695993,229.44 367.104,229.44 C369.600012,229.44 371.711991,228.976005 373.44,228.048 C375.168009,227.119995 376.575994,225.920007 377.664,224.448 L388.608,231.36 C386.367989,234.624016 383.408018,237.135991 379.728,238.896 C376.047981,240.656009 371.776024,241.536 366.912,241.536 C363.327982,241.536 359.936016,240.976006 356.736,239.856 C353.535984,238.735994 350.736012,237.104011 348.336,234.96 C345.935988,232.815989 344.048007,230.176016 342.672,227.04 C341.295993,223.903984 340.608,220.32002 340.608,216.288 C340.608,212.38398 341.279993,208.848016 342.624,205.68 C343.968007,202.511984 345.791988,199.824011 348.096,197.616 C350.400011,195.407989 353.119984,193.696006 356.256,192.48 C359.392016,191.263994 362.783982,190.656 366.432,190.656 C369.952017,190.656 373.183985,191.247994 376.128,192.432 C379.072015,193.616006 381.599989,195.327989 383.712,197.568 C385.82401,199.808011 387.471994,202.527984 388.656,205.728 C389.840006,208.928016 390.432,212.57598 390.432,216.672 Z M430.416,240 L430.416,213.888 C430.416,212.543993 430.304001,211.264006 430.08,210.048 C429.855999,208.831994 429.488002,207.760005 428.976,206.832 C428.463997,205.903995 427.744004,205.168003 426.816,204.624 C425.887995,204.079997 424.720007,203.808 423.312,203.808 C421.903993,203.808 420.672005,204.079997 419.616,204.624 C418.559995,205.168003 417.680003,205.919995 416.976,206.88 C416.271996,207.840005 415.744002,208.943994 415.392,210.192 C415.039998,211.440006 414.864,212.735993 414.864,214.08 L414.864,240 L399.024,240 L399.024,192.192 L414.288,192.192 L414.288,198.816 L414.48,198.816 C415.056003,197.791995 415.807995,196.784005 416.736,195.792 C417.664004,194.799995 418.751994,193.952004 420,193.248 C421.248006,192.543996 422.607992,191.968002 424.08,191.52 C425.552007,191.071998 427.119992,190.848 428.784,190.848 C431.984016,190.848 434.703989,191.423994 436.944,192.576 C439.184011,193.728006 440.991993,195.215991 442.368,197.04 C443.744007,198.864009 444.735997,200.959988 445.344,203.328 C445.952003,205.696012 446.256,208.063988 446.256,210.432 L446.256,240 L430.416,240 Z M474.048,176.928 C474.048,178.144006 473.808002,179.279995 473.328,180.336 C472.847997,181.392005 472.208004,182.303996 471.408,183.072 C470.607996,183.840004 469.648005,184.447998 468.528,184.896 C467.407994,185.344002 466.240006,185.568 465.024,185.568 C462.463987,185.568 460.320008,184.720008 458.592,183.024 C456.863991,181.327992 456,179.296012 456,176.928 C456,175.775994 456.223998,174.672005 456.672,173.616 C457.120002,172.559995 457.759996,171.648004 458.592,170.88 C459.424004,170.111996 460.383994,169.488002 461.472,169.008 C462.560005,168.527998 463.743993,168.288 465.024,168.288 C466.240006,168.288 467.407994,168.511998 468.528,168.96 C469.648005,169.408002 470.607996,170.015996 471.408,170.784 C472.208004,171.552004 472.847997,172.463995 473.328,173.52 C473.808002,174.576005 474.048,175.711994 474.048,176.928 Z M457.152,240 L457.152,192.192 L472.896,192.192 L472.896,240 L457.152,240 Z M512.4,219.168 L510.384,219.168 C508.655991,219.168 506.912009,219.247999 505.152,219.408 C503.391991,219.568001 501.824007,219.871998 500.448,220.32 C499.071993,220.768002 497.936004,221.423996 497.04,222.288 C496.143995,223.152004 495.696,224.287993 495.696,225.696 C495.696,226.592004 495.903998,227.359997 496.32,228 C496.736002,228.640003 497.263997,229.151998 497.904,229.536 C498.544003,229.920002 499.279996,230.191999 500.112,230.352 C500.944004,230.512001 501.743996,230.592 502.512,230.592 C505.712016,230.592 508.159991,229.712009 509.856,227.952 C511.552008,226.191991 512.4,223.808015 512.4,220.8 L512.4,219.168 Z M483.504,198.72 C486.320014,196.031987 489.599981,194.016007 493.344,192.672 C497.088019,191.327993 500.91198,190.656 504.816,190.656 C508.84802,190.656 512.255986,191.151995 515.04,192.144 C517.824014,193.136005 520.079991,194.67199 521.808,196.752 C523.536008,198.83201 524.799996,201.455984 525.6,204.624 C526.400004,207.792016 526.8,211.551978 526.8,215.904 L526.8,240 L512.4,240 L512.4,234.912 L512.112,234.912 C510.895994,236.89601 509.056012,238.431995 506.592,239.52 C504.127988,240.608005 501.456014,241.152 498.576,241.152 C496.65599,241.152 494.67201,240.896003 492.624,240.384 C490.57599,239.871997 488.704008,239.040006 487.008,237.888 C485.311991,236.735994 483.920005,235.20001 482.832,233.28 C481.743994,231.35999 481.2,228.992014 481.2,226.176 C481.2,222.719983 482.14399,219.936011 484.032,217.824 C485.920009,215.711989 488.351985,214.080006 491.328,212.928 C494.304015,211.775994 497.615982,211.008002 501.264,210.624 C504.912018,210.239998 508.463983,210.048 511.92,210.048 L511.92,209.28 C511.92,206.911988 511.088008,205.168006 509.424,204.048 C507.759992,202.927994 505.712012,202.368 503.28,202.368 C501.039989,202.368 498.88001,202.847995 496.8,203.808 C494.719989,204.768005 492.944007,205.919993 491.472,207.264 L483.504,198.72 Z M537.504,240 L537.504,167.424 L553.44,167.424 L553.44,240 L537.504,240 Z M567.6,217.248 L567.6,172.032 L583.728,172.032 L583.728,217.248 L567.6,217.248 Z M585.072,231.84 C585.072,233.120006 584.832002,234.319994 584.352,235.44 C583.871997,236.560006 583.200004,237.519996 582.336,238.32 C581.471995,239.120004 580.464006,239.759998 579.312,240.24 C578.159994,240.720002 576.944006,240.96 575.664,240.96 C574.383993,240.96 573.184005,240.736002 572.064,240.288 C570.943994,239.839998 569.968004,239.200004 569.136,238.368 C568.303996,237.535996 567.632002,236.576005 567.12,235.488 C566.607997,234.399995 566.352,233.216006 566.352,231.936 C566.352,230.719994 566.591997,229.552006 567.072,228.432 C567.552002,227.311994 568.207996,226.336004 569.04,225.504 C569.872004,224.671996 570.863994,224.016002 572.016,223.536 C573.168006,223.055998 574.383993,222.816 575.664,222.816 C576.944006,222.816 578.159994,223.055998 579.312,223.536 C580.464006,224.016002 581.471995,224.655996 582.336,225.456 C583.200004,226.256004 583.871997,227.215994 584.352,228.336 C584.832002,229.456006 585.072,230.623994 585.072,231.84 Z" id="C’est-genial!" fill="#20292C"></path>
                </g>
                <g id="Group-16" transform="translate(600.000000, 601.000000)">
                    <mask id="mask-11" fill="white">
                        <use xlink:href="#path-10"></use>
                    </mask>
                    <use id="Mask" fill="#20292C" xlink:href="#path-10"></use>
                    <ellipse id="Oval-5" fill="#FF7C7C" mask="url(#mask-11)" cx="75" cy="189.972973" rx="113.571429" ry="72.2432432"></ellipse>
                </g>
            </g>
            <polygon id="Rectangle-26" fill="#20292C" points="744.032174 1146.39465 802.893842 1121.51001 822.465593 1139.6967 763.603926 1164.58134"></polygon>
            <g id="Group-28" transform="translate(699.000000, 717.000000)">
                <path d="M50.1725093,381.930151 C18.8536331,360.266848 -3.20406142,340.056236 0.90099488,336.791885 L622,235.000266 C626.10697,231.734393 849.833018,426.726773 841.001296,428.552047 L299.998704,540.36241 C291.162864,542.188535 258.598484,526.098643 227.292158,504.444021 L50.1725093,381.930151 Z" id="Rectangle-14" fill="#858585"></path>
                <path d="M284,100.351407 C284,90.1970441 291.166982,80.9127416 299.998704,79.6156873 L841.001296,0.162365096 C849.837136,-1.13529389 857,5.48774829 857,14.9369161 L857,416.234588 C857,425.692006 849.833018,434.812782 841.001296,436.604546 L299.998704,546.362169 C291.162864,548.154768 284,541.367361 284,531.221857 L284,100.351407 Z" id="Rectangle-7" fill="#C5CCCF"></path>
                <path d="M611,330.341746 C627.961471,325.836042 641,298.745811 641,266 C641,230.101491 606,201 606,201 C606,201 571,230.101491 571,266 C571,298.745811 584.038529,325.836042 601,330.341746 L601,348.496949 C601,350.429046 602.565891,352 604.497515,352 L607.502485,352 C609.4375,352 611,350.431631 611,348.496949 L611,330.341746 Z" id="Combined-Shape" fill="#FFFFFF"></path>
            </g>
        </g>
    </g>
</svg>