<?xml version="1.0" encoding="UTF-8"?>
<svg width="848px" height="682px" viewBox="0 0 848 682" version="1.1" xmlns="http://www.w3.org/2000/svg" xmlns:xlink="http://www.w3.org/1999/xlink">
    <!-- Generator: Sketch 41.2 (35397) - http://www.bohemiancoding.com/sketch -->
    <title>Group 26</title>
    <desc>Created with Sketch.</desc>
    <defs>
        <filter x="-50%" y="-50%" width="200%" height="200%" filterUnits="objectBoundingBox" id="filter-1">
            <feOffset dx="0" dy="8" in="SourceAlpha" result="shadowOffsetOuter1"></feOffset>
            <feGaussianBlur stdDeviation="8" in="shadowOffsetOuter1" result="shadowBlurOuter1"></feGaussianBlur>
            <feColorMatrix values="0 0 0 0 0.654723729   0 0 0 0 0.682937495   0 0 0 0 0.694223002  0 0 0 0.5 0" type="matrix" in="shadowBlurOuter1" result="shadowMatrixOuter1"></feColorMatrix>
            <feMerge>
                <feMergeNode in="shadowMatrixOuter1"></feMergeNode>
                <feMergeNode in="SourceGraphic"></feMergeNode>
            </feMerge>
        </filter>
        <rect id="path-2" x="0" y="0" width="712" height="532" rx="6"></rect>
        <filter x="-50%" y="-50%" width="200%" height="200%" filterUnits="objectBoundingBox" id="filter-3">
            <feOffset dx="0" dy="8" in="SourceAlpha" result="shadowOffsetOuter1"></feOffset>
            <feGaussianBlur stdDeviation="8" in="shadowOffsetOuter1" result="shadowBlurOuter1"></feGaussianBlur>
            <feColorMatrix values="0 0 0 0 0.850980392   0 0 0 0 0.890196078   0 0 0 0 0.905882353  0 0 0 0.5 0" type="matrix" in="shadowBlurOuter1"></feColorMatrix>
        </filter>
        <rect id="path-4" x="0" y="0" width="696" height="432" rx="4"></rect>
        <path d="M0,7.60264898 C0,3.40382189 3.40220051,0 7.6009455,0 L140.44898,0 L186,41.6533333 L186,208.243412 C186,212.438892 182.592745,215.84 178.39099,215.84 L7.60900963,215.84 C3.40666965,215.84 0,212.427912 0,208.237351 L0,7.60264898 Z" id="path-6"></path>
        <filter x="-50%" y="-50%" width="200%" height="200%" filterUnits="objectBoundingBox" id="filter-7">
            <feOffset dx="0" dy="8" in="SourceAlpha" result="shadowOffsetOuter1"></feOffset>
            <feGaussianBlur stdDeviation="8" in="shadowOffsetOuter1" result="shadowBlurOuter1"></feGaussianBlur>
            <feColorMatrix values="0 0 0 0 0.654723729   0 0 0 0 0.682937495   0 0 0 0 0.694223002  0 0 0 0.5 0" type="matrix" in="shadowBlurOuter1"></feColorMatrix>
        </filter>
    </defs>
    <g id="Logo" stroke="none" stroke-width="1" fill="none" fill-rule="evenodd">
        <g id="Group-26" transform="translate(26.000000, 10.000000)">
            <g id="Group-42-Copy" filter="url(#filter-1)">
                <g id="Rectangle-18">
                    <use fill="black" fill-opacity="1" filter="url(#filter-3)" xlink:href="#path-2"></use>
                    <use fill="#EAF8FF" fill-rule="evenodd" xlink:href="#path-2"></use>
                </g>
                <g id="Group-7" transform="translate(8.000000, 30.000000)">
                    <g id="Group-3">
                        <mask id="mask-5" fill="white">
                            <use xlink:href="#path-4"></use>
                        </mask>
                        <use id="Rectangle-54" fill="#485961" xlink:href="#path-4"></use>
                        <polygon id="Path-75" fill="#37505B" mask="url(#mask-5)" points="-10.1457726 438.084507 -10.1457726 393.464789 708.174927 -58.8169014 708.174927 438.084507"></polygon>
                        <polygon id="Path-76" fill="#272F39" mask="url(#mask-5)" points="714.262391 -38.5352113 714.262391 446.197183 -56.8163265 446.197183"></polygon>
                        <g id="Group" mask="url(#mask-5)">
                            <g transform="translate(26.379009, 263.661972)">
                                <polygon id="Rectangle-55" fill="#FBD335" points="105.516035 44.6197183 336.83965 0 580.338192 44.6197183 580.338192 192.676056 105.516035 192.676056"></polygon>
                                <path d="M578.309038,44.6197183 L634.365307,61.5341467 C662.801853,70.1145949 685.854227,101.140924 685.854227,130.843787 L685.854227,247.43662 L578.309038,247.43662 L578.309038,44.6197183 Z" id="Rectangle-56" fill="#F5D142"></path>
                                <path d="M-2.27373675e-13,44.6197183 L56.0562691,61.5341467 C84.4928146,70.1145949 107.54519,101.140924 107.54519,130.843787 L107.54519,247.43662 L-2.27373675e-13,247.43662 L-2.27373675e-13,44.6197183 Z" id="Rectangle-56-Copy" fill="#FFD83A" transform="translate(53.772595, 146.028169) scale(-1, 1) translate(-53.772595, -146.028169) "></path>
                            </g>
                        </g>
                        <g id="Group-2-Copy" mask="url(#mask-5)">
                            <g transform="translate(129.865889, -77.070423)">
                                <path d="M72.1764741,280.264074 C74.036243,285.797075 73.137473,291.89444 74.6093889,298.084333 C75.9260797,303.621452 79.5640515,309.196319 81.9081335,315.09458 C84.8968864,322.614984 81.0971619,326.434745 89.2068781,342.63498 C97.3165943,358.835216 101.694014,350.569445 105.42631,358.025204 C107.048254,361.265251 107.884611,400.238666 124.889629,425.256181 C153.699068,467.640173 192.200274,518.407535 239.236628,518.407535 C286.272981,518.407535 326.821562,467.376793 334.120307,454.416605 C341.419052,441.456417 356.016541,427.686216 367.370143,396.905769 C378.723746,366.125322 374.668888,345.875027 377.101803,347.495051 C379.534718,349.115074 392.510264,348.305063 397.376093,331.294815 C399.035504,325.493752 397.845368,315.811514 399.809008,309.424497 C403.603278,297.083098 409.540668,296.1758 409.540668,281.884097 C409.540668,267.882536 422.516213,236.523438 417.650384,218.703179 C412.27691,199.023763 384.400547,233.283391 384.400547,233.283391 C384.400547,233.283391 431.879696,2.57520581e-10 241.301366,0 C50.7230351,-2.57514556e-10 91.232811,237.44314 92.4507646,241.383508 C93.6687182,245.323877 63.2557863,205.74299 63.2557863,234.093403 C63.2557863,240.119357 64.8377379,258.430588 72.1764741,280.264074 Z" id="Oval-25" fill="#E7D0C0"></path>
                                <path d="M180.846671,383.135569 C195.444161,370.985392 225.45011,374.225439 225.45011,374.225439 C225.45011,374.225439 234.235636,378.275498 238.425656,378.275498 C242.615676,378.275498 252.212173,374.225439 252.212173,374.225439 C252.212173,374.225439 278.793982,375.18538 296.815613,387.185628 C305.826346,393.185696 311.413103,406.625909 317.089904,422.826144 C323.945902,442.391526 321.144765,474.666899 313.035045,486.817076 C304.925325,498.967252 276.541322,523.267606 238.425656,523.267606 C200.30999,523.267606 170.30404,496.537217 160.57238,480.336982 C150.840721,464.136746 152.659073,447.642873 157.328494,425.25618 C161.997915,402.869486 166.249181,395.285745 180.846671,383.135569 Z M190.57833,410.675969 C190.57833,410.675969 209.23068,408.245934 236.803715,408.245934 C264.37675,408.245934 287.083949,410.675969 287.083949,410.675969 C287.083949,410.675969 314.656985,443.07644 288.705893,452.796581 C262.754801,462.516723 277.352294,426.066193 240.047599,426.066193 C202.742905,426.066193 214.096507,463.326734 188.145416,452.796581 C162.194325,442.266428 190.57833,410.675969 190.57833,410.675969 Z" id="Combined-Shape" fill="#6A4B1F"></path>
                                <path d="M82.7191051,225.183273 C83.9355626,224.103257 86.7739632,223.563249 90.0178497,225.993285 C93.2617362,228.42332 109.481168,247.05359 111.103112,247.863602 C112.725056,248.673614 124.35007,245.654543 162.194324,247.863602 C200.038577,250.072661 195.916776,254.343696 235.18177,254.343696 C274.446765,254.343696 287.894926,248.673614 307.358245,247.05359 C326.821563,245.433567 357.638485,247.863602 360.071399,247.053591 C362.504313,246.24358 381.597748,224.903267 386.022491,222.753238 C390.664535,220.497619 393.321235,229.233333 386.833462,234.903415 C380.345689,240.573496 367.370143,259.203767 367.370143,279.454061 C367.370143,299.704355 355.205569,315.094579 349.528768,320.764662 C343.851966,326.434744 328.443506,332.104826 307.358244,332.914838 C286.272981,333.72485 273.297437,329.674791 264.376748,322.384685 C255.456059,315.094579 250.590231,285.934155 246.535373,280.264073 C242.480515,274.59399 240.858572,271.954122 235.18177,272.163955 C229.504969,272.373788 226.261083,275.404002 223.828168,280.264073 C221.395253,285.124144 216.529421,316.714604 205.17582,324.814721 C193.822218,332.914838 145.163921,339.394932 126.511573,325.624733 C107.859224,311.854534 103.804367,294.034273 102.993395,272.973967 C102.182423,251.913661 82.3490124,233.654182 81.0971619,230.853355 C79.8453114,228.052529 81.5026477,226.263289 82.7191051,225.183273 Z" id="Path-70" fill="#202020"></path>
                                <path d="M88.3959065,109.351589 C88.3959065,109.351589 94.0727056,29.1604238 99.7495091,20.2502943 C105.426313,11.3401648 128.092585,0.810011769 237.999707,0.810011773 C347.906829,0.810011778 368.992083,10.5301531 375.47986,19.4402826 C381.967637,28.3504121 390.88832,110.161601 390.88832,110.161601 C390.88832,110.161601 512.534042,130.411896 465.497689,160.382331 C418.461335,190.352767 308.980191,196.022849 237.999707,196.022849 C167.019223,196.022849 47.8473263,191.97279 8.10971633,160.382331 C-31.6278936,128.791872 88.3959065,109.351589 88.3959065,109.351589 Z" id="Path-67" fill="#202020"></path>
                            </g>
                        </g>
                        <g id="Group-15" mask="url(#mask-5)">
                            <g transform="translate(-22.000000, 70.000000)">
                                <path d="M48.7298474,249.386123 C46.7364329,359.424509 38.3802209,356.603788 103.494253,356.603774 C174.942524,356.603758 158.307978,356.171728 180.000003,281.999993 C185.495878,263.207901 236.075794,261.999993 236.000003,166.000001 C235.961676,117.452855 217.362743,139.63519 210.000003,118.000001 C195.244087,74.640182 132.94281,49.830303 103.494253,64.5283019 C91.5786912,70.4754493 74.9046206,107.614298 59.2643672,108.679246 C43.0502322,109.783269 22.6503687,116.121675 24,132.000001 C25.7312119,168.095152 24.9721111,221.872751 34,237.999993 C39.7406508,248.254978 48.9237651,238.681679 48.7298474,249.386123 Z" id="Oval-28" fill="#F1AA7B"></path>
                                <path d="M53.9446267,168.633052 C48.7218961,150.594063 59.0893138,140.306633 77.1429228,145.439156 C77.1429228,145.439156 113.79911,157.145018 130.349144,157.145018 C143.028593,157.145018 164.703012,145.91454 164.703012,145.91454 C176.759941,140.422638 185.222246,146.637694 183.605476,159.785052 L183.681686,159.165318 C182.0643,172.317691 182.345131,193.592604 181.455246,206.769884 C181.455246,206.769884 190.588279,219.684983 163.024718,225.000062 C135.461157,230.31514 97.2097039,215.710798 97.2097039,215.710798 C79.2569435,210.23337 60.4717185,191.177224 55.2467653,173.130558 L53.9446267,168.633052 Z" id="Rectangle-89-Copy-3" fill="#DB8044" opacity="0.467933769" transform="translate(118.198027, 185.042516) rotate(-255.000000) translate(-118.198027, -185.042516) "></path>
                                <rect id="Rectangle-104" fill="#FECCAC" x="196" y="104" width="54" height="62" rx="27"></rect>
                                <g id="Group-14" stroke-width="1" fill="none" transform="translate(123.101325, 222.299450) rotate(-2.000000) translate(-123.101325, -222.299450) translate(6.101325, 94.299450)">
                                    <rect id="Rectangle-94-Copy" fill="#202020" opacity="0.173915578" x="0.139597987" y="142.002437" width="232.982162" height="112.075472" rx="3.4000001"></rect>
                                    <rect id="Rectangle-93" fill="#FFFFFF" opacity="0.514925373" x="-1.86517468e-13" y="-1.98951966e-13" width="232.982162" height="247.924528" rx="6.80000019"></rect>
                                    <rect id="Rectangle-94" fill="#3FA7D6" x="-8.26894109e-13" y="135.849057" width="232.982162" height="112.075472" rx="3.4000001"></rect>
                                    <path d="M-1.63868918e-13,139.249102 C-1.63868918e-13,137.371309 1.3682162,136.507233 3.06321776,137.32261 L229.918944,246.450975 C231.610712,247.264796 231.463737,247.924528 229.576212,247.924528 L3.40594916,247.924528 C1.52489538,247.924528 -1.63868918e-13,246.403964 -1.63868918e-13,244.524483 L-1.63868918e-13,139.249102 Z" id="Rectangle-94" fill="#FFFFFF" opacity="0.0674556903"></path>
                                    <rect id="Rectangle-98" fill="#F7F7F7" x="-2.4158453e-13" y="37.3584906" width="232.982162" height="16.9811321"></rect>
                                </g>
                                <g id="Group-12" stroke-width="1" fill="none" transform="translate(48.228537, 116.885483) rotate(-21.000000) translate(-48.228537, -116.885483) translate(20.228537, 71.885483)">
                                    <rect id="Rectangle-89-Copy-7" fill="#F8C4A2" opacity="0.682369403" x="4.16801076" y="7.8845294" width="49.8619376" height="81.2578616" rx="24.9309688"></rect>
                                    <rect id="Rectangle-89-Copy-2" fill="#F3C4A4" x="0.543651145" y="0.106732535" width="49.8619376" height="81.2578616" rx="24.9309688"></rect>
                                    <path d="M25.0237845,75.6477062 C35.7638255,75.6477062 44.4703489,68.045439 44.4703489,58.6675672 C44.4703489,49.2896953 47.6283376,41.6874282 25.0237845,41.6874281 C2.41923132,41.6874281 5.57722003,49.2896953 5.57722003,58.6675672 C5.57722003,68.045439 14.2837435,75.6477062 25.0237845,75.6477062 Z" id="Oval-29-Copy-2" fill="#FFFFFF" opacity="0.605177239"></path>
                                </g>
                                <g id="Group-11" stroke-width="1" fill="none" transform="translate(93.687453, 99.564931) rotate(-16.000000) translate(-93.687453, -99.564931) translate(65.687453, 41.564931)">
                                    <rect id="Rectangle-89-Copy-6" fill="#F1C1A1" opacity="0.533815299" x="3.02507282" y="6.70622793" width="52.4367816" height="108.679245" rx="26.2183908"></rect>
                                    <rect id="Rectangle-89" fill="#EEC5A9" x="8.66862138e-13" y="-7.81597009e-14" width="52.4367816" height="108.679245" rx="26.2183908"></rect>
                                    <path d="M25.9946179,102.998683 C37.2826989,102.998683 46.4334966,94.5009854 46.4334966,84.018544 C46.4334966,73.5361027 49.7526304,65.038405 25.9946179,65.038405 C2.23660546,65.038405 5.5557392,73.5361027 5.5557392,84.018544 C5.5557392,94.5009854 14.7065369,102.998683 25.9946179,102.998683 Z" id="Oval-29-Copy-2" fill="#FFFFFF" opacity="0.605177239"></path>
                                </g>
                                <g id="Group-13" stroke-width="1" fill="none" transform="translate(142.707436, 80.230240) rotate(-6.000000) translate(-142.707436, -80.230240) translate(110.707436, 3.230240)">
                                    <rect id="Rectangle-89-Copy-5" fill="#F4C6A7" opacity="0.545475746" x="1.04528463" y="6.05478105" width="61.2413793" height="146.037736" rx="30.6206897"></rect>
                                    <rect id="Rectangle-89-Copy" fill="#F7CBAE" x="-1.42108547e-14" y="7.10542736e-13" width="61.2413793" height="146.037736" rx="30.6206897"></rect>
                                    <path d="M30.7844619,142.307714 C44.2647031,142.307714 55.1925977,132.019156 55.1925977,119.327575 C55.1925977,106.635995 59.1563116,96.3474363 30.7844619,96.3474363 C2.41261232,96.3474363 6.37632619,106.635995 6.37632619,119.327575 C6.37632619,132.019156 17.3042208,142.307714 30.7844619,142.307714 Z" id="Oval-29-Copy-2" fill="#FFFFFF" opacity="0.605177239"></path>
                                </g>
                                <g id="Group-10" stroke-width="1" fill="none" transform="translate(171.540230, 23.773585)">
                                    <rect id="Rectangle-89-Copy-4" fill="#F2C1A1" opacity="0.755072295" x="0" y="4" width="61.2413793" height="152.830189" rx="30.6206897"></rect>
                                    <rect id="Rectangle-89-Copy-3" fill="#FFD6BB" x="0" y="0" width="61.2413793" height="152.830189" rx="30.6206897"></rect>
                                    <path d="M31.6206897,146.786495 C45.1009308,146.786495 56.0288254,136.425466 56.0288254,123.644489 C56.0288254,110.863512 59.9925393,100.502483 31.6206897,100.502483 C3.24884002,100.502483 7.21255389,110.863512 7.21255389,123.644489 C7.21255389,136.425466 18.1404485,146.786495 31.6206897,146.786495 Z" id="Oval-29-Copy-3" fill="#FFFFFF" opacity="0.605177239"></path>
                                </g>
                            </g>
                        </g>
                    </g>
                    <rect id="Rectangle-16" fill="#272F39" x="0" y="442" width="696" height="52" rx="4"></rect>
                </g>
                <g id="Group-43" transform="translate(86.000000, 484.000000)">
                    <rect id="Rectangle-17" fill="#FAFAFA" x="0" y="6" width="596" height="14" rx="7"></rect>
                    <rect id="Rectangle-17-Copy" fill="#36C1FF" x="0" y="6" width="177.189189" height="14" rx="7"></rect>
                    <ellipse id="Oval-6" fill="#2D9FD2" cx="176.182432" cy="13" rx="13.0878378" ry="13"></ellipse>
                </g>
                <polygon id="Path-40" fill="#FAFAFA" points="28 486 28 510 50 498"></polygon>
                <g id="Oval-2-+-Oval-2-Copy-+-Oval-2-Copy-2" transform="translate(8.000000, 10.000000)">
                    <circle id="Oval-2" fill="#00CE24" cx="35" cy="5" r="5"></circle>
                    <circle id="Oval-2-Copy" fill="#FFC200" cx="21" cy="5" r="5"></circle>
                    <circle id="Oval-2-Copy-2" fill="#FF5D4A" cx="5" cy="5" r="5"></circle>
                </g>
            </g>
            <g id="Group-45-Copy" transform="translate(620.000000, 388.000000)">
                <text id=".srt" font-family="Quicksand-Bold, Quicksand" font-size="60" font-weight="bold" fill="#272F39">
                    <tspan x="37.9591837" y="282.986667">.srt</tspan>
                </text>
                <g id="Group-44">
                    <g id="Rectangle-19">
                        <use fill="black" fill-opacity="1" filter="url(#filter-7)" xlink:href="#path-6"></use>
                        <use fill="#FCFCFC" fill-rule="evenodd" xlink:href="#path-6"></use>
                    </g>
                    <path d="M140.44898,0 L140.44898,33.6468071 C140.44898,38.0686894 144.023292,41.6533333 148.448537,41.6533333 L186,41.6533333 L140.44898,0 Z" id="Path-7" fill="#B5D0DA"></path>
                    <path d="M49.3469388,94.6841841 C49.3469388,92.5831912 51.0469692,90.88 53.1487898,90.88 L136.726176,90.88 C138.82588,90.88 140.528027,92.5806191 140.528027,94.6841841 L140.528027,124.942565 C140.528027,127.043558 138.826673,128.746749 136.731722,128.746749 L94.8983456,128.746749 C92.8017044,128.746749 89.7957278,129.832685 88.1827791,131.173527 L71.2457923,145.253222 C69.6335286,146.593494 68.3265306,145.983138 68.3265306,143.871349 L68.3265306,132.555399 C68.3265306,130.45194 66.6255154,128.746749 64.531343,128.746749 L53.1421264,128.746749 C51.0461022,128.746749 49.3469388,127.04613 49.3469388,124.942565 L49.3469388,94.6841841 Z" id="Path-8" stroke="#272F39" stroke-width="7.5999999" fill="#DF8E23"></path>
                </g>
            </g>
        </g>
    </g>
</svg>