<?xml version="1.0" encoding="UTF-8"?>
<svg width="363px" height="349px" viewBox="0 0 363 349" version="1.1" xmlns="http://www.w3.org/2000/svg" xmlns:xlink="http://www.w3.org/1999/xlink">
    <!-- Generator: Sketch 41.2 (35397) - http://www.bohemiancoding.com/sketch -->
    <title>writing</title>
    <desc>Created with Sketch.</desc>
    <defs>
        <path d="M0,4.75432133 C0,2.54228725 1.79405245,0.721236552 3.9996229,0.687007222 L44.0003771,0.066215903 C46.2093078,0.0319344238 48,1.79122783 48,4.00946484 L48,9.52989782 C48,14.7600908 43.7613763,19 38.5167446,19 L9.48325539,19 C4.24579806,19 0,14.7555059 0,9.52706264 L0,4.75432133 Z" id="path-1"></path>
        <rect id="path-3" x="10" y="29.5" width="1.5" height="5.5" rx="0.75"></rect>
        <mask id="mask-4" maskContentUnits="userSpaceOnUse" maskUnits="objectBoundingBox" x="0" y="0" width="1.5" height="5.5" fill="white">
            <use xlink:href="#path-3"></use>
        </mask>
        <rect id="path-5" x="4.6339746" y="14.6339746" width="5.5" height="63.5" rx="2.75"></rect>
        <filter x="-50%" y="-50%" width="200%" height="200%" filterUnits="objectBoundingBox" id="filter-6">
            <feOffset dx="0" dy="4" in="SourceAlpha" result="shadowOffsetOuter1"></feOffset>
            <feGaussianBlur stdDeviation="4" in="shadowOffsetOuter1" result="shadowBlurOuter1"></feGaussianBlur>
            <feColorMatrix values="0 0 0 0 0.425621811   0 0 0 0 0.425621811   0 0 0 0 0.425621811  0 0 0 0.5 0" type="matrix" in="shadowBlurOuter1"></feColorMatrix>
        </filter>
    </defs>
    <g id="Logo" stroke="none" stroke-width="1" fill="none" fill-rule="evenodd">
        <g id="writing" transform="translate(-11.000000, -12.000000)">
            <g id="Group-17-Copy" transform="translate(88.000000, 67.000000)">
                <g id="Group-14">
                    <path d="M233.89658,87.3157635 C251.475383,109.105399 262,136.823622 262,167 C262,237.140163 205.140163,294 135,294 C64.8598368,294 8,237.140163 8,167 C8,96.8598368 64.8598368,40 135,40 C140.979413,40 146.862312,40.4132275 152.621696,41.2126828 C155.270883,29.0820693 166.074826,20 179,20 C193.732286,20 205.708724,31.7991938 205.994767,46.4630369 C207.616723,46.1590046 209.289793,46 211,46 C225.911688,46 238,58.0883118 238,73 C238,78.2584497 236.496763,83.1657996 233.896578,87.3157606 Z" id="Combined-Shape" fill="#9D86D5"></path>
                    <g id="Group-16" transform="translate(116.000000, 106.000000)">
                        <mask id="mask-2" fill="white">
                            <use xlink:href="#path-1"></use>
                        </mask>
                        <use id="Mask" fill="#20292C" xlink:href="#path-1"></use>
                        <g id="Group-11" mask="url(#mask-2)">
                            <g transform="translate(2.000000, -2.000000)">
                                <rect id="Rectangle-2" fill="#FFFFFF" x="0" y="0" width="8" height="12" rx="4"></rect>
                                <path d="M1.91664143,0.585317897 C0.768193973,1.28752518 0,2.55228304 0,3.99582624 L0,8.00417376 C0,10.2034788 1.790861,12 4,12 C5.44462478,12 6.71351308,11.2318576 7.4166919,10.0813488 C6.8094366,10.4526492 6.09586654,10.6666667 5.33333333,10.6666667 C3.12419433,10.6666667 1.33333333,8.87014542 1.33333333,6.67084042 L1.33333333,2.66249291 C1.33333333,1.90171886 1.5466981,1.19060217 1.91664143,0.585317897 Z" id="Combined-Shape" fill="#E3E3E3"></path>
                            </g>
                        </g>
                        <g id="Group-11-Copy-4" mask="url(#mask-2)">
                            <g transform="translate(4.000000, 13.000000)">
                                <rect id="Rectangle-2" fill="#FFFFFF" x="0" y="0" width="8" height="12" rx="4"></rect>
                                <path d="M1.91664143,0.585317897 C0.768193973,1.28752518 0,2.55228304 0,3.99582624 L0,8.00417376 C0,10.2034788 1.790861,12 4,12 C5.44462478,12 6.71351308,11.2318576 7.4166919,10.0813488 C6.8094366,10.4526492 6.09586654,10.6666667 5.33333333,10.6666667 C3.12419433,10.6666667 1.33333333,8.87014542 1.33333333,6.67084042 L1.33333333,2.66249291 C1.33333333,1.90171886 1.5466981,1.19060217 1.91664143,0.585317897 Z" id="Combined-Shape" fill="#E3E3E3"></path>
                            </g>
                        </g>
                        <g id="Group-11-Copy" mask="url(#mask-2)">
                            <g transform="translate(12.000000, -4.000000)">
                                <rect id="Rectangle-2" fill="#FFFFFF" x="0" y="0" width="8" height="12" rx="4"></rect>
                                <path d="M1.91664143,0.585317897 C0.768193973,1.28752518 0,2.55228304 0,3.99582624 L0,8.00417376 C0,10.2034788 1.790861,12 4,12 C5.44462478,12 6.71351308,11.2318576 7.4166919,10.0813488 C6.8094366,10.4526492 6.09586654,10.6666667 5.33333333,10.6666667 C3.12419433,10.6666667 1.33333333,8.87014542 1.33333333,6.67084042 L1.33333333,2.66249291 C1.33333333,1.90171886 1.5466981,1.19060217 1.91664143,0.585317897 Z" id="Combined-Shape" fill="#E3E3E3"></path>
                            </g>
                        </g>
                        <g id="Group-11-Copy-5" mask="url(#mask-2)">
                            <g transform="translate(16.000000, 10.000000)">
                                <rect id="Rectangle-2" fill="#FFFFFF" x="0" y="0" width="8" height="12" rx="4"></rect>
                                <path d="M1.91664143,0.585317897 C0.768193973,1.28752518 0,2.55228304 0,3.99582624 L0,8.00417376 C0,10.2034788 1.790861,12 4,12 C5.44462478,12 6.71351308,11.2318576 7.4166919,10.0813488 C6.8094366,10.4526492 6.09586654,10.6666667 5.33333333,10.6666667 C3.12419433,10.6666667 1.33333333,8.87014542 1.33333333,6.67084042 L1.33333333,2.66249291 C1.33333333,1.90171886 1.5466981,1.19060217 1.91664143,0.585317897 Z" id="Combined-Shape" fill="#E3E3E3"></path>
                            </g>
                        </g>
                        <g id="Group-11-Copy-2" mask="url(#mask-2)">
                            <g transform="translate(24.000000, -4.000000)">
                                <rect id="Rectangle-2" fill="#FFFFFF" x="0" y="0" width="8" height="12" rx="4"></rect>
                                <path d="M1.91664143,0.585317897 C0.768193973,1.28752518 0,2.55228304 0,3.99582624 L0,8.00417376 C0,10.2034788 1.790861,12 4,12 C5.44462478,12 6.71351308,11.2318576 7.4166919,10.0813488 C6.8094366,10.4526492 6.09586654,10.6666667 5.33333333,10.6666667 C3.12419433,10.6666667 1.33333333,8.87014542 1.33333333,6.67084042 L1.33333333,2.66249291 C1.33333333,1.90171886 1.5466981,1.19060217 1.91664143,0.585317897 Z" id="Combined-Shape" fill="#E3E3E3"></path>
                            </g>
                        </g>
                        <g id="Group-11-Copy-6" mask="url(#mask-2)">
                            <g transform="translate(32.000000, 10.000000)">
                                <rect id="Rectangle-2" fill="#FFFFFF" x="0" y="0" width="8" height="12" rx="4"></rect>
                                <path d="M1.91664143,0.585317897 C0.768193973,1.28752518 0,2.55228304 0,3.99582624 L0,8.00417376 C0,10.2034788 1.790861,12 4,12 C5.44462478,12 6.71351308,11.2318576 7.4166919,10.0813488 C6.8094366,10.4526492 6.09586654,10.6666667 5.33333333,10.6666667 C3.12419433,10.6666667 1.33333333,8.87014542 1.33333333,6.67084042 L1.33333333,2.66249291 C1.33333333,1.90171886 1.5466981,1.19060217 1.91664143,0.585317897 Z" id="Combined-Shape" fill="#E3E3E3"></path>
                            </g>
                        </g>
                        <g id="Group-11-Copy-3" mask="url(#mask-2)">
                            <g transform="translate(36.000000, -4.000000)">
                                <rect id="Rectangle-2" fill="#FFFFFF" x="0" y="0" width="8" height="12" rx="4"></rect>
                                <path d="M1.91664143,0.585317897 C0.768193973,1.28752518 0,2.55228304 0,3.99582624 L0,8.00417376 C0,10.2034788 1.790861,12 4,12 C5.44462478,12 6.71351308,11.2318576 7.4166919,10.0813488 C6.8094366,10.4526492 6.09586654,10.6666667 5.33333333,10.6666667 C3.12419433,10.6666667 1.33333333,8.87014542 1.33333333,6.67084042 L1.33333333,2.66249291 C1.33333333,1.90171886 1.5466981,1.19060217 1.91664143,0.585317897 Z" id="Combined-Shape" fill="#E3E3E3"></path>
                            </g>
                        </g>
                    </g>
                    <ellipse id="Oval-4" fill="#20292C" cx="91" cy="89" rx="7" ry="7"></ellipse>
                    <ellipse id="Oval-4-Copy" fill="#20292C" cx="181" cy="89" rx="7" ry="7"></ellipse>
                    <path d="M75.5288889,168 C75.5288889,168 9.52888889,130 1.52888889,80 C-6.47111111,30 19.5288889,0 19.5288889,0" id="Path" stroke="#9D86D5" stroke-width="24" stroke-linecap="round"></path>
                    <path d="M273.528889,280 C273.528889,280 207.528889,242 199.528889,192 C191.528889,142 217.528889,112 217.528889,112" id="Path-Copy" stroke="#9D86D5" stroke-width="24" stroke-linecap="round" transform="translate(235.764444, 196.000000) scale(-1, -1) translate(-235.764444, -196.000000) "></path>
                </g>
                <path d="M142,293.810354 C139.68265,293.936239 137.348771,294 135,294 C64.8598368,294 8,237.140163 8,167 C8,96.8598368 64.8598368,40 135,40 C137.348771,40 139.68265,40.0637607 142,40.1896458 C75.1154902,43.8229993 22,99.2086059 22,167 C22,234.791394 75.1154902,290.177001 142.000005,293.810355 Z" id="Combined-Shape" fill="#BEAFE3"></path>
                <g id="Group-15" transform="translate(108.000000, 8.000000)">
                    <circle id="Oval-9-Copy" fill="#9D86D5" cx="27" cy="27" r="27"></circle>
                    <path d="M30,53.8352137 C29.0149984,53.9441001 28.0140273,54 27,54 C12.0883118,54 0,41.9116882 0,27 C0,12.0883118 12.0883118,0 27,0 C28.0140273,0 29.0149984,0.0558999352 30,0.164786333 C16.5001486,1.6571192 6,13.102339 6,27 C6,40.897661 16.5001486,52.3428808 30,53.8352137 Z" id="Combined-Shape" fill="#BEAEE3"></path>
                </g>
            </g>
            <g id="Group-27" transform="translate(107.990036, 72.044229) rotate(-300.000000) translate(-107.990036, -72.044229) translate(91.990036, -42.455771)">
                <g id="Group-29" transform="translate(8.901924, 193.169873)">
                    <use id="Rectangle-20" stroke="#676767" mask="url(#mask-4)" stroke-width="2" fill="#D8D8D8" xlink:href="#path-3"></use>
                    <polygon id="Triangle" fill="#DBDBDB" points="10.0238095 31.5 0.5 -8.52651283e-14 20.5 -8.52651283e-14 11.452381 31.5"></polygon>
                </g>
                <rect id="Rectangle-22" fill="#20292C" transform="translate(19.401924, 125.887438) rotate(-90.000000) translate(-19.401924, -125.887438) " x="-49.0980762" y="114.887438" width="137" height="22"></rect>
                <circle id="Oval-15" fill="#9D86D5" cx="13.330127" cy="112.892305" r="13"></circle>
                <g id="Group-30" transform="translate(6.633975, 0.633975)">
                    <rect id="Rectangle-23" fill="#474C4D" transform="translate(12.964102, 53.412824) rotate(-90.000000) translate(-12.964102, -53.412824) " x="-27.5358984" y="41.4128237" width="81" height="24"></rect>
                    <circle id="Oval-16" fill="#474C4D" cx="12.9115427" cy="11.5717968" r="11.5"></circle>
                    <g id="Rectangle-21">
                        <use fill="black" fill-opacity="1" filter="url(#filter-6)" xlink:href="#path-5"></use>
                        <use fill="#DADADA" fill-rule="evenodd" xlink:href="#path-5"></use>
                    </g>
                </g>
            </g>
        </g>
    </g>
</svg>